<svg width="600" height="600" viewbox = "0 0 600 600"  xmlns="http://www.w3.org/2000/svg">
<!--<json>{
  "shapes": [],
  "glyph": "0323,0504,0500,0506,0500,0500,0500,0500,0500,0500,0500,0500,0500,0500,0500,0500,0500,0500,0500,0507,0500,0503,0503,0503,0505,0503,0505,0503,0505,0503,0505,0503,0501,0507,0501,0501,0507,0501,0507,0500,0500,0500,0500,0500,0500,0500,0507,0500,0503,0503,0505,0503,0505,0503,0501,0501,0501,0501,0501,0501,0501,0501,0501,0501,0501,0501,0501,0501,0505,0502,0502,0502,0502,0504,0502,0504,0502,0504,0502,0500,0506,0500,0500,0506,0500,0506,0500,0506,0501,0501,0501,0501,0501,0501,0501,0505,0502,0502,0502,0506,0506,0506,0506,0506,0506,0506,0506,0506,0506,0506,0502,0502,0502,0502,0502,0502,0504,0502,0504,0502,0500,0500,0500,0500,0500,0500,0500,0500,0500,0500,0500,0500,0500,0507,0500,0507,0500,0503,0503,0503,0503,0503,0503,0503,0503,0505,0503,0503,0505,0503,0505,0503,0501,0507,0501,0501,0501,0501,0501,0501,0501,0501,0506,0501,0501,0506,0501,0505,0502,0502,0502,0505,0502,0502,0504,0504,0504,0504,0504,0502,0502,0502,0500,0500,0500,0500,0500,0500,0500,0503,0503,0503,0505,0503,0505,0503,0501,0501,0501,0506,0501,0505,0502,0505,0505,0505,0505,0505,0505,0506,0505,0506,0506,0506,0502,0502,0502,0505,0502,0501,0501,0501,0501,0501,0501,0501,0501,0501,0501,0501,0501,0501,0501,0501,0505,0503,0503,0503,0503,0504,0503,0500,0500,0500,0500,0500,0507,0501,0507,0501,0507,0501,0501,0507,0501,0507,0501,0503,0503,0504,0503,0504,0503,0500,0500,0506,0500,0506,0500,0506,0500,0506,0500,0500,0507,0500,0507,0500,0507,0500,0507,0500,0500,0500,0506,0500,0506,0500,0502,0502,0505,0502,0505,0502,0505,0502,0501,0506,0501,0505,0502,0500,0500,0500,0500,0500,0504,0502,0507,0507,0507,0507,0507,0507,0507,0507,0507,0507,0507,0507,0507,0505,0501,0501,0501,0501,0501,0501,0501,0501,0501,0501,0501,0501,0501,0501,0507,0501,0507,0501,0503,0503,0504,0503,0500,0500,0500,0500,0500,0500,0500,0505,0503,0505,0503,0505,0503,0501,0507,0501,0507,0501,0507,0501,0507,0501,0503,0503,0503,0504,0503,0500,0500,0500,0500,0500,0500,0500,0500,0500,0500,0500,0500,0500,0500,0506,0500,0506,0500,0502,0502,0505,0502,0501,0501,0501,0501,0501,0501,0501,0501,0504,0502,0504,0502,0504,0502,0500,0506,0500,0506,0500,0506,0500,0500,0506,0500,0502,0502,0502,0505,0502,0507,0507,0507,0507,0507,0507,0507,0507,0507,0507,0507,0507,0507,0507,0507,0507,0507,0507,0501,0501,0501,0501,0501,0507,0501,0503,0503,0504,0503,0500,0500,0507,0500,0500,0500,0506,0500,0502,0502,0502,0505,0502,0504,0504,0506,0506,0506,0506,0506,0506,0506,0506,0506,0506,0506,0506,0506,0506,0506,0506,0506,",
  "x0": 300,
  "y0": 300,
  "unit": 72,
  "width": 600,
  "height": 600,
  "style": {
    "color0": "black",
    "fill0": "black",
    "line0": 1,
    "color1": "black",
    "fill1": "black",
    "line1": 5,
    "color2": "red",
    "fill2": "red",
    "line2": 1,
    "color3": "#FF7900",
    "fill3": "#FF7900",
    "line3": 1,
    "color4": "yellow",
    "fill4": "yellow",
    "line4": 1,
    "color5": "green",
    "fill5": "green",
    "line5": 1,
    "color6": "blue",
    "fill6": "blue",
    "line6": 1,
    "color7": "purple",
    "fill7": "purple",
    "line7": 1
  }
}</json>-->	<path d = "M302 284 L302 280 L298 280 L298 284 L302 284 Z" stroke = "#ff7900" stroke-width = "1" fill = "#ff7900" />	<path d = "M293 275 L293 271 L289 271 L289 275 L293 275 Z" stroke = "#ff7900" stroke-width = "1" fill = "#ff7900" />	<path d = "M293 266 L293 262 L289 262 L289 266 L293 266 Z" stroke = "#ff7900" stroke-width = "1" fill = "#ff7900" />	<path d = "M293 257 L293 253 L289 253 L289 257 L293 257 Z" stroke = "#ff7900" stroke-width = "1" fill = "#ff7900" />	<path d = "M293 248 L293 244 L289 244 L289 248 L293 248 Z" stroke = "#ff7900" stroke-width = "1" fill = "#ff7900" />	<path d = "M293 239 L293 235 L289 235 L289 239 L293 239 Z" stroke = "#ff7900" stroke-width = "1" fill = "#ff7900" />	<path d = "M293 230 L293 226 L289 226 L289 230 L293 230 Z" stroke = "#ff7900" stroke-width = "1" fill = "#ff7900" />	<path d = "M293 221 L293 217 L289 217 L289 221 L293 221 Z" stroke = "#ff7900" stroke-width = "1" fill = "#ff7900" />	<path d = "M293 212 L293 208 L289 208 L289 212 L293 212 Z" stroke = "#ff7900" stroke-width = "1" fill = "#ff7900" />	<path d = "M293 203 L293 199 L289 199 L289 203 L293 203 Z" stroke = "#ff7900" stroke-width = "1" fill = "#ff7900" />	<path d = "M293 194 L293 190 L289 190 L289 194 L293 194 Z" stroke = "#ff7900" stroke-width = "1" fill = "#ff7900" />	<path d = "M293 185 L293 181 L289 181 L289 185 L293 185 Z" stroke = "#ff7900" stroke-width = "1" fill = "#ff7900" />	<path d = "M293 176 L293 172 L289 172 L289 176 L293 176 Z" stroke = "#ff7900" stroke-width = "1" fill = "#ff7900" />	<path d = "M293 167 L293 163 L289 163 L289 167 L293 167 Z" stroke = "#ff7900" stroke-width = "1" fill = "#ff7900" />	<path d = "M293 158 L293 154 L289 154 L289 158 L293 158 Z" stroke = "#ff7900" stroke-width = "1" fill = "#ff7900" />	<path d = "M293 149 L293 145 L289 145 L289 149 L293 149 Z" stroke = "#ff7900" stroke-width = "1" fill = "#ff7900" />	<path d = "M302 140 L302 136 L298 136 L298 140 L302 140 Z" stroke = "#ff7900" stroke-width = "1" fill = "#ff7900" />	<path d = "M311 140 L311 136 L307 136 L307 140 L311 140 Z" stroke = "#ff7900" stroke-width = "1" fill = "#ff7900" />	<path d = "M320 140 L320 136 L316 136 L316 140 L320 140 Z" stroke = "#ff7900" stroke-width = "1" fill = "#ff7900" />	<path d = "M329 140 L329 136 L325 136 L325 140 L329 140 Z" stroke = "#ff7900" stroke-width = "1" fill = "#ff7900" />	<path d = "M338 149 L338 145 L334 145 L334 149 L338 149 Z" stroke = "#ff7900" stroke-width = "1" fill = "#ff7900" />	<path d = "M347 158 L347 154 L343 154 L343 158 L347 158 Z" stroke = "#ff7900" stroke-width = "1" fill = "#ff7900" />	<path d = "M356 167 L356 163 L352 163 L352 167 L356 167 Z" stroke = "#ff7900" stroke-width = "1" fill = "#ff7900" />	<path d = "M365 176 L365 172 L361 172 L361 176 L365 176 Z" stroke = "#ff7900" stroke-width = "1" fill = "#ff7900" />	<path d = "M365 185 L365 181 L361 181 L361 185 L365 185 Z" stroke = "#ff7900" stroke-width = "1" fill = "#ff7900" />	<path d = "M374 194 L374 190 L370 190 L370 194 L374 194 Z" stroke = "#ff7900" stroke-width = "1" fill = "#ff7900" />	<path d = "M374 203 L374 199 L370 199 L370 203 L374 203 Z" stroke = "#ff7900" stroke-width = "1" fill = "#ff7900" />	<path d = "M383 212 L383 208 L379 208 L379 212 L383 212 Z" stroke = "#ff7900" stroke-width = "1" fill = "#ff7900" />	<path d = "M392 203 L392 199 L388 199 L388 203 L392 203 Z" stroke = "#ff7900" stroke-width = "1" fill = "#ff7900" />	<path d = "M392 194 L392 190 L388 190 L388 194 L392 194 Z" stroke = "#ff7900" stroke-width = "1" fill = "#ff7900" />	<path d = "M392 185 L392 181 L388 181 L388 185 L392 185 Z" stroke = "#ff7900" stroke-width = "1" fill = "#ff7900" />	<path d = "M392 176 L392 172 L388 172 L388 176 L392 176 Z" stroke = "#ff7900" stroke-width = "1" fill = "#ff7900" />	<path d = "M392 167 L392 163 L388 163 L388 167 L392 167 Z" stroke = "#ff7900" stroke-width = "1" fill = "#ff7900" />	<path d = "M392 158 L392 154 L388 154 L388 158 L392 158 Z" stroke = "#ff7900" stroke-width = "1" fill = "#ff7900" />	<path d = "M392 149 L392 145 L388 145 L388 149 L392 149 Z" stroke = "#ff7900" stroke-width = "1" fill = "#ff7900" />	<path d = "M401 140 L401 136 L397 136 L397 140 L401 140 Z" stroke = "#ff7900" stroke-width = "1" fill = "#ff7900" />	<path d = "M410 140 L410 136 L406 136 L406 140 L410 140 Z" stroke = "#ff7900" stroke-width = "1" fill = "#ff7900" />	<path d = "M419 140 L419 136 L415 136 L415 140 L419 140 Z" stroke = "#ff7900" stroke-width = "1" fill = "#ff7900" />	<path d = "M428 149 L428 145 L424 145 L424 149 L428 149 Z" stroke = "#ff7900" stroke-width = "1" fill = "#ff7900" />	<path d = "M437 158 L437 154 L433 154 L433 158 L437 158 Z" stroke = "#ff7900" stroke-width = "1" fill = "#ff7900" />	<path d = "M437 167 L437 163 L433 163 L433 167 L437 167 Z" stroke = "#ff7900" stroke-width = "1" fill = "#ff7900" />	<path d = "M437 176 L437 172 L433 172 L433 176 L437 176 Z" stroke = "#ff7900" stroke-width = "1" fill = "#ff7900" />	<path d = "M437 185 L437 181 L433 181 L433 185 L437 185 Z" stroke = "#ff7900" stroke-width = "1" fill = "#ff7900" />	<path d = "M437 194 L437 190 L433 190 L433 194 L437 194 Z" stroke = "#ff7900" stroke-width = "1" fill = "#ff7900" />	<path d = "M437 203 L437 199 L433 199 L433 203 L437 203 Z" stroke = "#ff7900" stroke-width = "1" fill = "#ff7900" />	<path d = "M437 212 L437 208 L433 208 L433 212 L437 212 Z" stroke = "#ff7900" stroke-width = "1" fill = "#ff7900" />	<path d = "M437 221 L437 217 L433 217 L433 221 L437 221 Z" stroke = "#ff7900" stroke-width = "1" fill = "#ff7900" />	<path d = "M437 230 L437 226 L433 226 L433 230 L437 230 Z" stroke = "#ff7900" stroke-width = "1" fill = "#ff7900" />	<path d = "M437 239 L437 235 L433 235 L433 239 L437 239 Z" stroke = "#ff7900" stroke-width = "1" fill = "#ff7900" />	<path d = "M437 248 L437 244 L433 244 L433 248 L437 248 Z" stroke = "#ff7900" stroke-width = "1" fill = "#ff7900" />	<path d = "M437 257 L437 253 L433 253 L433 257 L437 257 Z" stroke = "#ff7900" stroke-width = "1" fill = "#ff7900" />	<path d = "M437 266 L437 262 L433 262 L433 266 L437 266 Z" stroke = "#ff7900" stroke-width = "1" fill = "#ff7900" />	<path d = "M437 275 L437 271 L433 271 L433 275 L437 275 Z" stroke = "#ff7900" stroke-width = "1" fill = "#ff7900" />	<path d = "M437 284 L437 280 L433 280 L433 284 L437 284 Z" stroke = "#ff7900" stroke-width = "1" fill = "#ff7900" />	<path d = "M428 293 L428 289 L424 289 L424 293 L428 293 Z" stroke = "#ff7900" stroke-width = "1" fill = "#ff7900" />	<path d = "M419 293 L419 289 L415 289 L415 293 L419 293 Z" stroke = "#ff7900" stroke-width = "1" fill = "#ff7900" />	<path d = "M410 293 L410 289 L406 289 L406 293 L410 293 Z" stroke = "#ff7900" stroke-width = "1" fill = "#ff7900" />	<path d = "M401 293 L401 289 L397 289 L397 293 L401 293 Z" stroke = "#ff7900" stroke-width = "1" fill = "#ff7900" />	<path d = "M392 284 L392 280 L388 280 L388 284 L392 284 Z" stroke = "#ff7900" stroke-width = "1" fill = "#ff7900" />	<path d = "M383 275 L383 271 L379 271 L379 275 L383 275 Z" stroke = "#ff7900" stroke-width = "1" fill = "#ff7900" />	<path d = "M374 266 L374 262 L370 262 L370 266 L374 266 Z" stroke = "#ff7900" stroke-width = "1" fill = "#ff7900" />	<path d = "M374 257 L374 253 L370 253 L370 257 L374 257 Z" stroke = "#ff7900" stroke-width = "1" fill = "#ff7900" />	<path d = "M365 248 L365 244 L361 244 L361 248 L365 248 Z" stroke = "#ff7900" stroke-width = "1" fill = "#ff7900" />	<path d = "M365 239 L365 235 L361 235 L361 239 L365 239 Z" stroke = "#ff7900" stroke-width = "1" fill = "#ff7900" />	<path d = "M356 230 L356 226 L352 226 L352 230 L356 230 Z" stroke = "#ff7900" stroke-width = "1" fill = "#ff7900" />	<path d = "M347 221 L347 217 L343 217 L343 221 L347 221 Z" stroke = "#ff7900" stroke-width = "1" fill = "#ff7900" />	<path d = "M338 230 L338 226 L334 226 L334 230 L338 230 Z" stroke = "#ff7900" stroke-width = "1" fill = "#ff7900" />	<path d = "M338 239 L338 235 L334 235 L334 239 L338 239 Z" stroke = "#ff7900" stroke-width = "1" fill = "#ff7900" />	<path d = "M338 248 L338 244 L334 244 L334 248 L338 248 Z" stroke = "#ff7900" stroke-width = "1" fill = "#ff7900" />	<path d = "M338 257 L338 253 L334 253 L334 257 L338 257 Z" stroke = "#ff7900" stroke-width = "1" fill = "#ff7900" />	<path d = "M338 266 L338 262 L334 262 L334 266 L338 266 Z" stroke = "#ff7900" stroke-width = "1" fill = "#ff7900" />	<path d = "M338 275 L338 271 L334 271 L334 275 L338 275 Z" stroke = "#ff7900" stroke-width = "1" fill = "#ff7900" />	<path d = "M338 284 L338 280 L334 280 L334 284 L338 284 Z" stroke = "#ff7900" stroke-width = "1" fill = "#ff7900" />	<path d = "M329 293 L329 289 L325 289 L325 293 L329 293 Z" stroke = "#ff7900" stroke-width = "1" fill = "#ff7900" />	<path d = "M320 293 L320 289 L316 289 L316 293 L320 293 Z" stroke = "#ff7900" stroke-width = "1" fill = "#ff7900" />	<path d = "M311 293 L311 289 L307 289 L307 293 L311 293 Z" stroke = "#ff7900" stroke-width = "1" fill = "#ff7900" />	<path d = "M203 293 L203 289 L199 289 L199 293 L203 293 Z" stroke = "#ff7900" stroke-width = "1" fill = "#ff7900" />	<path d = "M194 293 L194 289 L190 289 L190 293 L194 293 Z" stroke = "#ff7900" stroke-width = "1" fill = "#ff7900" />	<path d = "M185 293 L185 289 L181 289 L181 293 L185 293 Z" stroke = "#ff7900" stroke-width = "1" fill = "#ff7900" />	<path d = "M176 293 L176 289 L172 289 L172 293 L176 293 Z" stroke = "#ff7900" stroke-width = "1" fill = "#ff7900" />	<path d = "M167 293 L167 289 L163 289 L163 293 L167 293 Z" stroke = "#ff7900" stroke-width = "1" fill = "#ff7900" />	<path d = "M158 293 L158 289 L154 289 L154 293 L158 293 Z" stroke = "#ff7900" stroke-width = "1" fill = "#ff7900" />	<path d = "M149 284 L149 280 L145 280 L145 284 L149 284 Z" stroke = "#ff7900" stroke-width = "1" fill = "#ff7900" />	<path d = "M140 275 L140 271 L136 271 L136 275 L140 275 Z" stroke = "#ff7900" stroke-width = "1" fill = "#ff7900" />	<path d = "M140 266 L140 262 L136 262 L136 266 L140 266 Z" stroke = "#ff7900" stroke-width = "1" fill = "#ff7900" />	<path d = "M140 257 L140 253 L136 253 L136 257 L140 257 Z" stroke = "#ff7900" stroke-width = "1" fill = "#ff7900" />	<path d = "M140 248 L140 244 L136 244 L136 248 L140 248 Z" stroke = "#ff7900" stroke-width = "1" fill = "#ff7900" />	<path d = "M140 239 L140 235 L136 235 L136 239 L140 239 Z" stroke = "#ff7900" stroke-width = "1" fill = "#ff7900" />	<path d = "M140 230 L140 226 L136 226 L136 230 L140 230 Z" stroke = "#ff7900" stroke-width = "1" fill = "#ff7900" />	<path d = "M140 221 L140 217 L136 217 L136 221 L140 221 Z" stroke = "#ff7900" stroke-width = "1" fill = "#ff7900" />	<path d = "M140 212 L140 208 L136 208 L136 212 L140 212 Z" stroke = "#ff7900" stroke-width = "1" fill = "#ff7900" />	<path d = "M140 203 L140 199 L136 199 L136 203 L140 203 Z" stroke = "#ff7900" stroke-width = "1" fill = "#ff7900" />	<path d = "M140 194 L140 190 L136 190 L136 194 L140 194 Z" stroke = "#ff7900" stroke-width = "1" fill = "#ff7900" />	<path d = "M140 185 L140 181 L136 181 L136 185 L140 185 Z" stroke = "#ff7900" stroke-width = "1" fill = "#ff7900" />	<path d = "M140 176 L140 172 L136 172 L136 176 L140 176 Z" stroke = "#ff7900" stroke-width = "1" fill = "#ff7900" />	<path d = "M140 167 L140 163 L136 163 L136 167 L140 167 Z" stroke = "#ff7900" stroke-width = "1" fill = "#ff7900" />	<path d = "M140 158 L140 154 L136 154 L136 158 L140 158 Z" stroke = "#ff7900" stroke-width = "1" fill = "#ff7900" />	<path d = "M149 149 L149 145 L145 145 L145 149 L149 149 Z" stroke = "#ff7900" stroke-width = "1" fill = "#ff7900" />	<path d = "M158 140 L158 136 L154 136 L154 140 L158 140 Z" stroke = "#ff7900" stroke-width = "1" fill = "#ff7900" />	<path d = "M167 140 L167 136 L163 136 L163 140 L167 140 Z" stroke = "#ff7900" stroke-width = "1" fill = "#ff7900" />	<path d = "M176 140 L176 136 L172 136 L172 140 L176 140 Z" stroke = "#ff7900" stroke-width = "1" fill = "#ff7900" />	<path d = "M185 140 L185 136 L181 136 L181 140 L185 140 Z" stroke = "#ff7900" stroke-width = "1" fill = "#ff7900" />	<path d = "M194 140 L194 136 L190 136 L190 140 L194 140 Z" stroke = "#ff7900" stroke-width = "1" fill = "#ff7900" />	<path d = "M203 140 L203 136 L199 136 L199 140 L203 140 Z" stroke = "#ff7900" stroke-width = "1" fill = "#ff7900" />	<path d = "M212 140 L212 136 L208 136 L208 140 L212 140 Z" stroke = "#ff7900" stroke-width = "1" fill = "#ff7900" />	<path d = "M221 140 L221 136 L217 136 L217 140 L221 140 Z" stroke = "#ff7900" stroke-width = "1" fill = "#ff7900" />	<path d = "M230 140 L230 136 L226 136 L226 140 L230 140 Z" stroke = "#ff7900" stroke-width = "1" fill = "#ff7900" />	<path d = "M239 149 L239 145 L235 145 L235 149 L239 149 Z" stroke = "#ff7900" stroke-width = "1" fill = "#ff7900" />	<path d = "M248 149 L248 145 L244 145 L244 149 L248 149 Z" stroke = "#ff7900" stroke-width = "1" fill = "#ff7900" />	<path d = "M257 158 L257 154 L253 154 L253 158 L257 158 Z" stroke = "#ff7900" stroke-width = "1" fill = "#ff7900" />	<path d = "M266 167 L266 163 L262 163 L262 167 L266 167 Z" stroke = "#ff7900" stroke-width = "1" fill = "#ff7900" />	<path d = "M266 176 L266 172 L262 172 L262 176 L266 176 Z" stroke = "#ff7900" stroke-width = "1" fill = "#ff7900" />	<path d = "M275 185 L275 181 L271 181 L271 185 L275 185 Z" stroke = "#ff7900" stroke-width = "1" fill = "#ff7900" />	<path d = "M275 194 L275 190 L271 190 L271 194 L275 194 Z" stroke = "#ff7900" stroke-width = "1" fill = "#ff7900" />	<path d = "M275 203 L275 199 L271 199 L271 203 L275 203 Z" stroke = "#ff7900" stroke-width = "1" fill = "#ff7900" />	<path d = "M275 212 L275 208 L271 208 L271 212 L275 212 Z" stroke = "#ff7900" stroke-width = "1" fill = "#ff7900" />	<path d = "M275 221 L275 217 L271 217 L271 221 L275 221 Z" stroke = "#ff7900" stroke-width = "1" fill = "#ff7900" />	<path d = "M275 230 L275 226 L271 226 L271 230 L275 230 Z" stroke = "#ff7900" stroke-width = "1" fill = "#ff7900" />	<path d = "M275 239 L275 235 L271 235 L271 239 L275 239 Z" stroke = "#ff7900" stroke-width = "1" fill = "#ff7900" />	<path d = "M275 248 L275 244 L271 244 L271 248 L275 248 Z" stroke = "#ff7900" stroke-width = "1" fill = "#ff7900" />	<path d = "M266 257 L266 253 L262 253 L262 257 L266 257 Z" stroke = "#ff7900" stroke-width = "1" fill = "#ff7900" />	<path d = "M266 266 L266 262 L262 262 L262 266 L266 266 Z" stroke = "#ff7900" stroke-width = "1" fill = "#ff7900" />	<path d = "M257 275 L257 271 L253 271 L253 275 L257 275 Z" stroke = "#ff7900" stroke-width = "1" fill = "#ff7900" />	<path d = "M248 284 L248 280 L244 280 L244 284 L248 284 Z" stroke = "#ff7900" stroke-width = "1" fill = "#ff7900" />	<path d = "M239 284 L239 280 L235 280 L235 284 L239 284 Z" stroke = "#ff7900" stroke-width = "1" fill = "#ff7900" />	<path d = "M230 284 L230 280 L226 280 L226 284 L230 284 Z" stroke = "#ff7900" stroke-width = "1" fill = "#ff7900" />	<path d = "M221 293 L221 289 L217 289 L217 293 L221 293 Z" stroke = "#ff7900" stroke-width = "1" fill = "#ff7900" />	<path d = "M212 293 L212 289 L208 289 L208 293 L212 293 Z" stroke = "#ff7900" stroke-width = "1" fill = "#ff7900" />	<path d = "M203 248 L203 244 L199 244 L199 248 L203 248 Z" stroke = "#ff7900" stroke-width = "1" fill = "#ff7900" />	<path d = "M194 248 L194 244 L190 244 L190 248 L194 248 Z" stroke = "#ff7900" stroke-width = "1" fill = "#ff7900" />	<path d = "M185 248 L185 244 L181 244 L181 248 L185 248 Z" stroke = "#ff7900" stroke-width = "1" fill = "#ff7900" />	<path d = "M185 239 L185 235 L181 235 L181 239 L185 239 Z" stroke = "#ff7900" stroke-width = "1" fill = "#ff7900" />	<path d = "M185 230 L185 226 L181 226 L181 230 L185 230 Z" stroke = "#ff7900" stroke-width = "1" fill = "#ff7900" />	<path d = "M185 221 L185 217 L181 217 L181 221 L185 221 Z" stroke = "#ff7900" stroke-width = "1" fill = "#ff7900" />	<path d = "M185 212 L185 208 L181 208 L181 212 L185 212 Z" stroke = "#ff7900" stroke-width = "1" fill = "#ff7900" />	<path d = "M185 203 L185 199 L181 199 L181 203 L185 203 Z" stroke = "#ff7900" stroke-width = "1" fill = "#ff7900" />	<path d = "M185 194 L185 190 L181 190 L181 194 L185 194 Z" stroke = "#ff7900" stroke-width = "1" fill = "#ff7900" />	<path d = "M185 185 L185 181 L181 181 L181 185 L185 185 Z" stroke = "#ff7900" stroke-width = "1" fill = "#ff7900" />	<path d = "M194 185 L194 181 L190 181 L190 185 L194 185 Z" stroke = "#ff7900" stroke-width = "1" fill = "#ff7900" />	<path d = "M203 185 L203 181 L199 181 L199 185 L203 185 Z" stroke = "#ff7900" stroke-width = "1" fill = "#ff7900" />	<path d = "M212 185 L212 181 L208 181 L208 185 L212 185 Z" stroke = "#ff7900" stroke-width = "1" fill = "#ff7900" />	<path d = "M221 194 L221 190 L217 190 L217 194 L221 194 Z" stroke = "#ff7900" stroke-width = "1" fill = "#ff7900" />	<path d = "M230 203 L230 199 L226 199 L226 203 L230 203 Z" stroke = "#ff7900" stroke-width = "1" fill = "#ff7900" />	<path d = "M230 212 L230 208 L226 208 L226 212 L230 212 Z" stroke = "#ff7900" stroke-width = "1" fill = "#ff7900" />	<path d = "M230 221 L230 217 L226 217 L226 221 L230 221 Z" stroke = "#ff7900" stroke-width = "1" fill = "#ff7900" />	<path d = "M230 230 L230 226 L226 226 L226 230 L230 230 Z" stroke = "#ff7900" stroke-width = "1" fill = "#ff7900" />	<path d = "M221 239 L221 235 L217 235 L217 239 L221 239 Z" stroke = "#ff7900" stroke-width = "1" fill = "#ff7900" />	<path d = "M212 248 L212 244 L208 244 L208 248 L212 248 Z" stroke = "#ff7900" stroke-width = "1" fill = "#ff7900" />	<path d = "M167 311 L167 307 L163 307 L163 311 L167 311 Z" stroke = "#ff7900" stroke-width = "1" fill = "#ff7900" />	<path d = "M158 311 L158 307 L154 307 L154 311 L158 311 Z" stroke = "#ff7900" stroke-width = "1" fill = "#ff7900" />	<path d = "M149 311 L149 307 L145 307 L145 311 L149 311 Z" stroke = "#ff7900" stroke-width = "1" fill = "#ff7900" />	<path d = "M140 320 L140 316 L136 316 L136 320 L140 320 Z" stroke = "#ff7900" stroke-width = "1" fill = "#ff7900" />	<path d = "M140 329 L140 325 L136 325 L136 329 L140 329 Z" stroke = "#ff7900" stroke-width = "1" fill = "#ff7900" />	<path d = "M140 338 L140 334 L136 334 L136 338 L140 338 Z" stroke = "#ff7900" stroke-width = "1" fill = "#ff7900" />	<path d = "M140 347 L140 343 L136 343 L136 347 L140 347 Z" stroke = "#ff7900" stroke-width = "1" fill = "#ff7900" />	<path d = "M140 356 L140 352 L136 352 L136 356 L140 356 Z" stroke = "#ff7900" stroke-width = "1" fill = "#ff7900" />	<path d = "M140 365 L140 361 L136 361 L136 365 L140 365 Z" stroke = "#ff7900" stroke-width = "1" fill = "#ff7900" />	<path d = "M140 374 L140 370 L136 370 L136 374 L140 374 Z" stroke = "#ff7900" stroke-width = "1" fill = "#ff7900" />	<path d = "M140 383 L140 379 L136 379 L136 383 L140 383 Z" stroke = "#ff7900" stroke-width = "1" fill = "#ff7900" />	<path d = "M140 392 L140 388 L136 388 L136 392 L140 392 Z" stroke = "#ff7900" stroke-width = "1" fill = "#ff7900" />	<path d = "M140 401 L140 397 L136 397 L136 401 L140 401 Z" stroke = "#ff7900" stroke-width = "1" fill = "#ff7900" />	<path d = "M140 410 L140 406 L136 406 L136 410 L140 410 Z" stroke = "#ff7900" stroke-width = "1" fill = "#ff7900" />	<path d = "M140 419 L140 415 L136 415 L136 419 L140 419 Z" stroke = "#ff7900" stroke-width = "1" fill = "#ff7900" />	<path d = "M140 428 L140 424 L136 424 L136 428 L140 428 Z" stroke = "#ff7900" stroke-width = "1" fill = "#ff7900" />	<path d = "M140 437 L140 433 L136 433 L136 437 L140 437 Z" stroke = "#ff7900" stroke-width = "1" fill = "#ff7900" />	<path d = "M140 446 L140 442 L136 442 L136 446 L140 446 Z" stroke = "#ff7900" stroke-width = "1" fill = "#ff7900" />	<path d = "M140 455 L140 451 L136 451 L136 455 L140 455 Z" stroke = "#ff7900" stroke-width = "1" fill = "#ff7900" />	<path d = "M149 464 L149 460 L145 460 L145 464 L149 464 Z" stroke = "#ff7900" stroke-width = "1" fill = "#ff7900" />	<path d = "M158 464 L158 460 L154 460 L154 464 L158 464 Z" stroke = "#ff7900" stroke-width = "1" fill = "#ff7900" />	<path d = "M167 464 L167 460 L163 460 L163 464 L167 464 Z" stroke = "#ff7900" stroke-width = "1" fill = "#ff7900" />	<path d = "M176 464 L176 460 L172 460 L172 464 L176 464 Z" stroke = "#ff7900" stroke-width = "1" fill = "#ff7900" />	<path d = "M185 455 L185 451 L181 451 L181 455 L185 455 Z" stroke = "#ff7900" stroke-width = "1" fill = "#ff7900" />	<path d = "M185 446 L185 442 L181 442 L181 446 L185 446 Z" stroke = "#ff7900" stroke-width = "1" fill = "#ff7900" />	<path d = "M185 437 L185 433 L181 433 L181 437 L185 437 Z" stroke = "#ff7900" stroke-width = "1" fill = "#ff7900" />	<path d = "M185 428 L185 424 L181 424 L181 428 L185 428 Z" stroke = "#ff7900" stroke-width = "1" fill = "#ff7900" />	<path d = "M185 419 L185 415 L181 415 L181 419 L185 419 Z" stroke = "#ff7900" stroke-width = "1" fill = "#ff7900" />	<path d = "M185 410 L185 406 L181 406 L181 410 L185 410 Z" stroke = "#ff7900" stroke-width = "1" fill = "#ff7900" />	<path d = "M194 419 L194 415 L190 415 L190 419 L194 419 Z" stroke = "#ff7900" stroke-width = "1" fill = "#ff7900" />	<path d = "M203 428 L203 424 L199 424 L199 428 L203 428 Z" stroke = "#ff7900" stroke-width = "1" fill = "#ff7900" />	<path d = "M212 437 L212 433 L208 433 L208 437 L212 437 Z" stroke = "#ff7900" stroke-width = "1" fill = "#ff7900" />	<path d = "M212 446 L212 442 L208 442 L208 446 L212 446 Z" stroke = "#ff7900" stroke-width = "1" fill = "#ff7900" />	<path d = "M221 455 L221 451 L217 451 L217 455 L221 455 Z" stroke = "#ff7900" stroke-width = "1" fill = "#ff7900" />	<path d = "M230 464 L230 460 L226 460 L226 464 L230 464 Z" stroke = "#ff7900" stroke-width = "1" fill = "#ff7900" />	<path d = "M239 464 L239 460 L235 460 L235 464 L239 464 Z" stroke = "#ff7900" stroke-width = "1" fill = "#ff7900" />	<path d = "M248 464 L248 460 L244 460 L244 464 L248 464 Z" stroke = "#ff7900" stroke-width = "1" fill = "#ff7900" />	<path d = "M257 455 L257 451 L253 451 L253 455 L257 455 Z" stroke = "#ff7900" stroke-width = "1" fill = "#ff7900" />	<path d = "M266 446 L266 442 L262 442 L262 446 L266 446 Z" stroke = "#ff7900" stroke-width = "1" fill = "#ff7900" />	<path d = "M266 437 L266 433 L262 433 L262 437 L266 437 Z" stroke = "#ff7900" stroke-width = "1" fill = "#ff7900" />	<path d = "M266 428 L266 424 L262 424 L262 428 L266 428 Z" stroke = "#ff7900" stroke-width = "1" fill = "#ff7900" />	<path d = "M257 419 L257 415 L253 415 L253 419 L257 419 Z" stroke = "#ff7900" stroke-width = "1" fill = "#ff7900" />	<path d = "M248 410 L248 406 L244 406 L244 410 L248 410 Z" stroke = "#ff7900" stroke-width = "1" fill = "#ff7900" />	<path d = "M239 401 L239 397 L235 397 L235 401 L239 401 Z" stroke = "#ff7900" stroke-width = "1" fill = "#ff7900" />	<path d = "M230 392 L230 388 L226 388 L226 392 L230 392 Z" stroke = "#ff7900" stroke-width = "1" fill = "#ff7900" />	<path d = "M230 383 L230 379 L226 379 L226 383 L230 383 Z" stroke = "#ff7900" stroke-width = "1" fill = "#ff7900" />	<path d = "M239 374 L239 370 L235 370 L235 374 L239 374 Z" stroke = "#ff7900" stroke-width = "1" fill = "#ff7900" />	<path d = "M248 365 L248 361 L244 361 L244 365 L248 365 Z" stroke = "#ff7900" stroke-width = "1" fill = "#ff7900" />	<path d = "M257 356 L257 352 L253 352 L253 356 L257 356 Z" stroke = "#ff7900" stroke-width = "1" fill = "#ff7900" />	<path d = "M266 347 L266 343 L262 343 L262 347 L266 347 Z" stroke = "#ff7900" stroke-width = "1" fill = "#ff7900" />	<path d = "M266 338 L266 334 L262 334 L262 338 L266 338 Z" stroke = "#ff7900" stroke-width = "1" fill = "#ff7900" />	<path d = "M266 329 L266 325 L262 325 L262 329 L266 329 Z" stroke = "#ff7900" stroke-width = "1" fill = "#ff7900" />	<path d = "M257 320 L257 316 L253 316 L253 320 L257 320 Z" stroke = "#ff7900" stroke-width = "1" fill = "#ff7900" />	<path d = "M248 311 L248 307 L244 307 L244 311 L248 311 Z" stroke = "#ff7900" stroke-width = "1" fill = "#ff7900" />	<path d = "M239 311 L239 307 L235 307 L235 311 L239 311 Z" stroke = "#ff7900" stroke-width = "1" fill = "#ff7900" />	<path d = "M230 311 L230 307 L226 307 L226 311 L230 311 Z" stroke = "#ff7900" stroke-width = "1" fill = "#ff7900" />	<path d = "M221 320 L221 316 L217 316 L217 320 L221 320 Z" stroke = "#ff7900" stroke-width = "1" fill = "#ff7900" />	<path d = "M212 329 L212 325 L208 325 L208 329 L212 329 Z" stroke = "#ff7900" stroke-width = "1" fill = "#ff7900" />	<path d = "M203 338 L203 334 L199 334 L199 338 L203 338 Z" stroke = "#ff7900" stroke-width = "1" fill = "#ff7900" />	<path d = "M203 347 L203 343 L199 343 L199 347 L203 347 Z" stroke = "#ff7900" stroke-width = "1" fill = "#ff7900" />	<path d = "M194 356 L194 352 L190 352 L190 356 L194 356 Z" stroke = "#ff7900" stroke-width = "1" fill = "#ff7900" />	<path d = "M185 365 L185 361 L181 361 L181 365 L185 365 Z" stroke = "#ff7900" stroke-width = "1" fill = "#ff7900" />	<path d = "M185 356 L185 352 L181 352 L181 356 L185 356 Z" stroke = "#ff7900" stroke-width = "1" fill = "#ff7900" />	<path d = "M185 347 L185 343 L181 343 L181 347 L185 347 Z" stroke = "#ff7900" stroke-width = "1" fill = "#ff7900" />	<path d = "M185 338 L185 334 L181 334 L181 338 L185 338 Z" stroke = "#ff7900" stroke-width = "1" fill = "#ff7900" />	<path d = "M185 329 L185 325 L181 325 L181 329 L185 329 Z" stroke = "#ff7900" stroke-width = "1" fill = "#ff7900" />	<path d = "M185 320 L185 316 L181 316 L181 320 L185 320 Z" stroke = "#ff7900" stroke-width = "1" fill = "#ff7900" />	<path d = "M176 311 L176 307 L172 307 L172 311 L176 311 Z" stroke = "#ff7900" stroke-width = "1" fill = "#ff7900" />	<path d = "M293 329 L293 325 L289 325 L289 329 L293 329 Z" stroke = "#ff7900" stroke-width = "1" fill = "#ff7900" />	<path d = "M293 338 L293 334 L289 334 L289 338 L293 338 Z" stroke = "#ff7900" stroke-width = "1" fill = "#ff7900" />	<path d = "M293 347 L293 343 L289 343 L289 347 L293 347 Z" stroke = "#ff7900" stroke-width = "1" fill = "#ff7900" />	<path d = "M293 356 L293 352 L289 352 L289 356 L293 356 Z" stroke = "#ff7900" stroke-width = "1" fill = "#ff7900" />	<path d = "M293 365 L293 361 L289 361 L289 365 L293 365 Z" stroke = "#ff7900" stroke-width = "1" fill = "#ff7900" />	<path d = "M293 374 L293 370 L289 370 L289 374 L293 374 Z" stroke = "#ff7900" stroke-width = "1" fill = "#ff7900" />	<path d = "M293 383 L293 379 L289 379 L289 383 L293 383 Z" stroke = "#ff7900" stroke-width = "1" fill = "#ff7900" />	<path d = "M293 392 L293 388 L289 388 L289 392 L293 392 Z" stroke = "#ff7900" stroke-width = "1" fill = "#ff7900" />	<path d = "M293 401 L293 397 L289 397 L289 401 L293 401 Z" stroke = "#ff7900" stroke-width = "1" fill = "#ff7900" />	<path d = "M293 410 L293 406 L289 406 L289 410 L293 410 Z" stroke = "#ff7900" stroke-width = "1" fill = "#ff7900" />	<path d = "M293 419 L293 415 L289 415 L289 419 L293 419 Z" stroke = "#ff7900" stroke-width = "1" fill = "#ff7900" />	<path d = "M293 428 L293 424 L289 424 L289 428 L293 428 Z" stroke = "#ff7900" stroke-width = "1" fill = "#ff7900" />	<path d = "M293 437 L293 433 L289 433 L289 437 L293 437 Z" stroke = "#ff7900" stroke-width = "1" fill = "#ff7900" />	<path d = "M293 446 L293 442 L289 442 L289 446 L293 446 Z" stroke = "#ff7900" stroke-width = "1" fill = "#ff7900" />	<path d = "M302 455 L302 451 L298 451 L298 455 L302 455 Z" stroke = "#ff7900" stroke-width = "1" fill = "#ff7900" />	<path d = "M311 464 L311 460 L307 460 L307 464 L311 464 Z" stroke = "#ff7900" stroke-width = "1" fill = "#ff7900" />	<path d = "M320 464 L320 460 L316 460 L316 464 L320 464 Z" stroke = "#ff7900" stroke-width = "1" fill = "#ff7900" />	<path d = "M329 464 L329 460 L325 460 L325 464 L329 464 Z" stroke = "#ff7900" stroke-width = "1" fill = "#ff7900" />	<path d = "M338 455 L338 451 L334 451 L334 455 L338 455 Z" stroke = "#ff7900" stroke-width = "1" fill = "#ff7900" />	<path d = "M338 446 L338 442 L334 442 L334 446 L338 446 Z" stroke = "#ff7900" stroke-width = "1" fill = "#ff7900" />	<path d = "M338 437 L338 433 L334 433 L334 437 L338 437 Z" stroke = "#ff7900" stroke-width = "1" fill = "#ff7900" />	<path d = "M338 428 L338 424 L334 424 L334 428 L338 428 Z" stroke = "#ff7900" stroke-width = "1" fill = "#ff7900" />	<path d = "M338 419 L338 415 L334 415 L334 419 L338 419 Z" stroke = "#ff7900" stroke-width = "1" fill = "#ff7900" />	<path d = "M338 410 L338 406 L334 406 L334 410 L338 410 Z" stroke = "#ff7900" stroke-width = "1" fill = "#ff7900" />	<path d = "M338 401 L338 397 L334 397 L334 401 L338 401 Z" stroke = "#ff7900" stroke-width = "1" fill = "#ff7900" />	<path d = "M338 392 L338 388 L334 388 L334 392 L338 392 Z" stroke = "#ff7900" stroke-width = "1" fill = "#ff7900" />	<path d = "M347 401 L347 397 L343 397 L343 401 L347 401 Z" stroke = "#ff7900" stroke-width = "1" fill = "#ff7900" />	<path d = "M356 410 L356 406 L352 406 L352 410 L356 410 Z" stroke = "#ff7900" stroke-width = "1" fill = "#ff7900" />	<path d = "M365 419 L365 415 L361 415 L361 419 L365 419 Z" stroke = "#ff7900" stroke-width = "1" fill = "#ff7900" />	<path d = "M365 428 L365 424 L361 424 L361 428 L365 428 Z" stroke = "#ff7900" stroke-width = "1" fill = "#ff7900" />	<path d = "M374 437 L374 433 L370 433 L370 437 L374 437 Z" stroke = "#ff7900" stroke-width = "1" fill = "#ff7900" />	<path d = "M383 446 L383 442 L379 442 L379 446 L383 446 Z" stroke = "#ff7900" stroke-width = "1" fill = "#ff7900" />	<path d = "M392 455 L392 451 L388 451 L388 455 L392 455 Z" stroke = "#ff7900" stroke-width = "1" fill = "#ff7900" />	<path d = "M401 464 L401 460 L397 460 L397 464 L401 464 Z" stroke = "#ff7900" stroke-width = "1" fill = "#ff7900" />	<path d = "M410 464 L410 460 L406 460 L406 464 L410 464 Z" stroke = "#ff7900" stroke-width = "1" fill = "#ff7900" />	<path d = "M419 464 L419 460 L415 460 L415 464 L419 464 Z" stroke = "#ff7900" stroke-width = "1" fill = "#ff7900" />	<path d = "M428 464 L428 460 L424 460 L424 464 L428 464 Z" stroke = "#ff7900" stroke-width = "1" fill = "#ff7900" />	<path d = "M437 455 L437 451 L433 451 L433 455 L437 455 Z" stroke = "#ff7900" stroke-width = "1" fill = "#ff7900" />	<path d = "M437 446 L437 442 L433 442 L433 446 L437 446 Z" stroke = "#ff7900" stroke-width = "1" fill = "#ff7900" />	<path d = "M437 437 L437 433 L433 433 L433 437 L437 437 Z" stroke = "#ff7900" stroke-width = "1" fill = "#ff7900" />	<path d = "M437 428 L437 424 L433 424 L433 428 L437 428 Z" stroke = "#ff7900" stroke-width = "1" fill = "#ff7900" />	<path d = "M437 419 L437 415 L433 415 L433 419 L437 419 Z" stroke = "#ff7900" stroke-width = "1" fill = "#ff7900" />	<path d = "M437 410 L437 406 L433 406 L433 410 L437 410 Z" stroke = "#ff7900" stroke-width = "1" fill = "#ff7900" />	<path d = "M437 401 L437 397 L433 397 L433 401 L437 401 Z" stroke = "#ff7900" stroke-width = "1" fill = "#ff7900" />	<path d = "M437 392 L437 388 L433 388 L433 392 L437 392 Z" stroke = "#ff7900" stroke-width = "1" fill = "#ff7900" />	<path d = "M437 383 L437 379 L433 379 L433 383 L437 383 Z" stroke = "#ff7900" stroke-width = "1" fill = "#ff7900" />	<path d = "M437 374 L437 370 L433 370 L433 374 L437 374 Z" stroke = "#ff7900" stroke-width = "1" fill = "#ff7900" />	<path d = "M437 365 L437 361 L433 361 L433 365 L437 365 Z" stroke = "#ff7900" stroke-width = "1" fill = "#ff7900" />	<path d = "M437 356 L437 352 L433 352 L433 356 L437 356 Z" stroke = "#ff7900" stroke-width = "1" fill = "#ff7900" />	<path d = "M437 347 L437 343 L433 343 L433 347 L437 347 Z" stroke = "#ff7900" stroke-width = "1" fill = "#ff7900" />	<path d = "M437 338 L437 334 L433 334 L433 338 L437 338 Z" stroke = "#ff7900" stroke-width = "1" fill = "#ff7900" />	<path d = "M437 329 L437 325 L433 325 L433 329 L437 329 Z" stroke = "#ff7900" stroke-width = "1" fill = "#ff7900" />	<path d = "M428 320 L428 316 L424 316 L424 320 L428 320 Z" stroke = "#ff7900" stroke-width = "1" fill = "#ff7900" />	<path d = "M419 311 L419 307 L415 307 L415 311 L419 311 Z" stroke = "#ff7900" stroke-width = "1" fill = "#ff7900" />	<path d = "M410 311 L410 307 L406 307 L406 311 L410 311 Z" stroke = "#ff7900" stroke-width = "1" fill = "#ff7900" />	<path d = "M401 311 L401 307 L397 307 L397 311 L401 311 Z" stroke = "#ff7900" stroke-width = "1" fill = "#ff7900" />	<path d = "M392 320 L392 316 L388 316 L388 320 L392 320 Z" stroke = "#ff7900" stroke-width = "1" fill = "#ff7900" />	<path d = "M392 329 L392 325 L388 325 L388 329 L392 329 Z" stroke = "#ff7900" stroke-width = "1" fill = "#ff7900" />	<path d = "M392 338 L392 334 L388 334 L388 338 L392 338 Z" stroke = "#ff7900" stroke-width = "1" fill = "#ff7900" />	<path d = "M392 347 L392 343 L388 343 L388 347 L392 347 Z" stroke = "#ff7900" stroke-width = "1" fill = "#ff7900" />	<path d = "M392 356 L392 352 L388 352 L388 356 L392 356 Z" stroke = "#ff7900" stroke-width = "1" fill = "#ff7900" />	<path d = "M392 365 L392 361 L388 361 L388 365 L392 365 Z" stroke = "#ff7900" stroke-width = "1" fill = "#ff7900" />	<path d = "M392 374 L392 370 L388 370 L388 374 L392 374 Z" stroke = "#ff7900" stroke-width = "1" fill = "#ff7900" />	<path d = "M392 383 L392 379 L388 379 L388 383 L392 383 Z" stroke = "#ff7900" stroke-width = "1" fill = "#ff7900" />	<path d = "M392 392 L392 388 L388 388 L388 392 L392 392 Z" stroke = "#ff7900" stroke-width = "1" fill = "#ff7900" />	<path d = "M383 383 L383 379 L379 379 L379 383 L383 383 Z" stroke = "#ff7900" stroke-width = "1" fill = "#ff7900" />	<path d = "M374 374 L374 370 L370 370 L370 374 L374 374 Z" stroke = "#ff7900" stroke-width = "1" fill = "#ff7900" />	<path d = "M365 365 L365 361 L361 361 L361 365 L365 365 Z" stroke = "#ff7900" stroke-width = "1" fill = "#ff7900" />	<path d = "M365 356 L365 352 L361 352 L361 356 L365 356 Z" stroke = "#ff7900" stroke-width = "1" fill = "#ff7900" />	<path d = "M356 347 L356 343 L352 343 L352 347 L356 347 Z" stroke = "#ff7900" stroke-width = "1" fill = "#ff7900" />	<path d = "M347 338 L347 334 L343 334 L343 338 L347 338 Z" stroke = "#ff7900" stroke-width = "1" fill = "#ff7900" />	<path d = "M338 329 L338 325 L334 325 L334 329 L338 329 Z" stroke = "#ff7900" stroke-width = "1" fill = "#ff7900" />	<path d = "M338 320 L338 316 L334 316 L334 320 L338 320 Z" stroke = "#ff7900" stroke-width = "1" fill = "#ff7900" />	<path d = "M329 311 L329 307 L325 307 L325 311 L329 311 Z" stroke = "#ff7900" stroke-width = "1" fill = "#ff7900" />	<path d = "M320 311 L320 307 L316 307 L316 311 L320 311 Z" stroke = "#ff7900" stroke-width = "1" fill = "#ff7900" />	<path d = "M311 311 L311 307 L307 307 L307 311 L311 311 Z" stroke = "#ff7900" stroke-width = "1" fill = "#ff7900" />	<path d = "M302 311 L302 307 L298 307 L298 311 L302 311 Z" stroke = "#ff7900" stroke-width = "1" fill = "#ff7900" />	<path d = "M293 320 L293 316 L289 316 L289 320 L293 320 Z" stroke = "#ff7900" stroke-width = "1" fill = "#ff7900" />	<path d = "M455 329 L455 325 L451 325 L451 329 L455 329 Z" stroke = "#ff7900" stroke-width = "1" fill = "#ff7900" />	<path d = "M455 338 L455 334 L451 334 L451 338 L455 338 Z" stroke = "#ff7900" stroke-width = "1" fill = "#ff7900" />	<path d = "M455 347 L455 343 L451 343 L451 347 L455 347 Z" stroke = "#ff7900" stroke-width = "1" fill = "#ff7900" />	<path d = "M455 356 L455 352 L451 352 L451 356 L455 356 Z" stroke = "#ff7900" stroke-width = "1" fill = "#ff7900" />	<path d = "M455 365 L455 361 L451 361 L451 365 L455 365 Z" stroke = "#ff7900" stroke-width = "1" fill = "#ff7900" />	<path d = "M464 374 L464 370 L460 370 L460 374 L464 374 Z" stroke = "#ff7900" stroke-width = "1" fill = "#ff7900" />	<path d = "M473 374 L473 370 L469 370 L469 374 L473 374 Z" stroke = "#ff7900" stroke-width = "1" fill = "#ff7900" />	<path d = "M482 374 L482 370 L478 370 L478 374 L482 374 Z" stroke = "#ff7900" stroke-width = "1" fill = "#ff7900" />	<path d = "M491 365 L491 361 L487 361 L487 365 L491 365 Z" stroke = "#ff7900" stroke-width = "1" fill = "#ff7900" />	<path d = "M491 356 L491 352 L487 352 L487 356 L491 356 Z" stroke = "#ff7900" stroke-width = "1" fill = "#ff7900" />	<path d = "M491 347 L491 343 L487 343 L487 347 L491 347 Z" stroke = "#ff7900" stroke-width = "1" fill = "#ff7900" />	<path d = "M500 338 L500 334 L496 334 L496 338 L500 338 Z" stroke = "#ff7900" stroke-width = "1" fill = "#ff7900" />	<path d = "M500 329 L500 325 L496 325 L496 329 L500 329 Z" stroke = "#ff7900" stroke-width = "1" fill = "#ff7900" />	<path d = "M500 320 L500 316 L496 316 L496 320 L500 320 Z" stroke = "#ff7900" stroke-width = "1" fill = "#ff7900" />	<path d = "M491 311 L491 307 L487 307 L487 311 L491 311 Z" stroke = "#ff7900" stroke-width = "1" fill = "#ff7900" />	<path d = "M482 311 L482 307 L478 307 L478 311 L482 311 Z" stroke = "#ff7900" stroke-width = "1" fill = "#ff7900" />	<path d = "M473 311 L473 307 L469 307 L469 311 L473 311 Z" stroke = "#ff7900" stroke-width = "1" fill = "#ff7900" />	<path d = "M464 311 L464 307 L460 307 L460 311 L464 311 Z" stroke = "#ff7900" stroke-width = "1" fill = "#ff7900" />	<path d = "M455 320 L455 316 L451 316 L451 320 L455 320 Z" stroke = "#ff7900" stroke-width = "1" fill = "#ff7900" /></svg>