<svg width="600" height="600" viewbox = "0 0 600 600"  xmlns="http://www.w3.org/2000/svg">
<!--<json>{
  "shapes": [],
  "glyph": "0504,0504,0504,0504,0504,0504,0504,0504,0504,0504,0504,0506,0506,0506,0506,0506,0506,0506,0506,0506,0506,0506,0506,01127,01127,01127,01056,0505,0505,0505,0505,0505,0505,0505,0505,0505,0506,0506,0506,0506,0506,0506,0506,0506,0506,0506,0506,0506,0506,0506,0506,0506,0506,0506,0506,0506,0506,0506,0506,0506,0506,0506,0506,0506,0506,0506,01123,01114,01117,01101,01116,01123,0505,0505,0505,0505,0505,0505,0505,0505,0505,0505,0506,0506,0506,0506,0506,0506,0506,0506,0506,0506,0506,0506,0506,0506,0506,0506,0506,0506,0506,0506,0506,0506,0506,0506,0506,0506,0506,0506,0506,0506,01114,01101,01113,01105,0505,0505,0505,0505,0505,0505,0505,0505,0505,0505,0506,0506,0506,0506,0506,0506,0506,0506,0506,0506,0506,0506,0506,0506,0506,0506,0506,0506,0506,0506,0506,0506,0506,0506,01056,01101,01122,01124,0504,0504,0504,0504,0504,0504,0504,0504,0504,0504,0504,0504,0504,0504,0504,0504,0504,0504,0506,0506,0506,0506,0506,0506,0506,0506,0506,0506,0506,0506,",
  "x0": 300,
  "y0": 300,
  "unit": 72,
  "width": 600,
  "height": 600,
  "style": {
    "color0": "black",
    "fill0": "black",
    "line0": 1,
    "color1": "black",
    "fill1": "black",
    "line1": 5,
    "color2": "red",
    "fill2": "red",
    "line2": 1,
    "color3": "#FF7900",
    "fill3": "#FF7900",
    "line3": 1,
    "color4": "yellow",
    "fill4": "yellow",
    "line4": 1,
    "color5": "green",
    "fill5": "green",
    "line5": 1,
    "color6": "blue",
    "fill6": "blue",
    "line6": 1,
    "color7": "purple",
    "fill7": "purple",
    "line7": 1
  }
}</json>-->	<path d = "M203 194 L203 190 L199 190 L199 194 L203 194 Z" stroke = "#000000" stroke-width = "1" fill = "#000000" />	<path d = "M203 185 L203 181 L199 181 L199 185 L203 185 Z" stroke = "#000000" stroke-width = "1" fill = "#000000" />	<path d = "M203 176 L203 172 L199 172 L199 176 L203 176 Z" stroke = "#000000" stroke-width = "1" fill = "#000000" />	<path d = "M203 167 L203 163 L199 163 L199 167 L203 167 Z" stroke = "#000000" stroke-width = "1" fill = "#000000" />	<path d = "M203 158 L203 154 L199 154 L199 158 L203 158 Z" stroke = "#000000" stroke-width = "1" fill = "#000000" />	<path d = "M203 149 L203 145 L199 145 L199 149 L203 149 Z" stroke = "#000000" stroke-width = "1" fill = "#000000" />	<path d = "M212 203 L212 199 L208 199 L208 203 L212 203 Z" stroke = "#000000" stroke-width = "1" fill = "#000000" />	<path d = "M221 194 L221 190 L217 190 L217 194 L221 194 Z" stroke = "#000000" stroke-width = "1" fill = "#000000" />	<path d = "M221 185 L221 181 L217 181 L217 185 L221 185 Z" stroke = "#000000" stroke-width = "1" fill = "#000000" />	<path d = "M221 176 L221 172 L217 172 L217 176 L221 176 Z" stroke = "#000000" stroke-width = "1" fill = "#000000" />	<path d = "M230 203 L230 199 L226 199 L226 203 L230 203 Z" stroke = "#000000" stroke-width = "1" fill = "#000000" />	<path d = "M239 194 L239 190 L235 190 L235 194 L239 194 Z" stroke = "#000000" stroke-width = "1" fill = "#000000" />	<path d = "M239 185 L239 181 L235 181 L235 185 L239 185 Z" stroke = "#000000" stroke-width = "1" fill = "#000000" />	<path d = "M239 176 L239 172 L235 172 L235 176 L239 176 Z" stroke = "#000000" stroke-width = "1" fill = "#000000" />	<path d = "M239 167 L239 163 L235 163 L235 167 L239 167 Z" stroke = "#000000" stroke-width = "1" fill = "#000000" />	<path d = "M239 158 L239 154 L235 154 L235 158 L239 158 Z" stroke = "#000000" stroke-width = "1" fill = "#000000" />	<path d = "M239 149 L239 145 L235 145 L235 149 L239 149 Z" stroke = "#000000" stroke-width = "1" fill = "#000000" />	<path d = "M257 194 L257 190 L253 190 L253 194 L257 194 Z" stroke = "#000000" stroke-width = "1" fill = "#000000" />	<path d = "M257 185 L257 181 L253 181 L253 185 L257 185 Z" stroke = "#000000" stroke-width = "1" fill = "#000000" />	<path d = "M257 176 L257 172 L253 172 L253 176 L257 176 Z" stroke = "#000000" stroke-width = "1" fill = "#000000" />	<path d = "M257 167 L257 163 L253 163 L253 167 L257 167 Z" stroke = "#000000" stroke-width = "1" fill = "#000000" />	<path d = "M257 158 L257 154 L253 154 L253 158 L257 158 Z" stroke = "#000000" stroke-width = "1" fill = "#000000" />	<path d = "M257 149 L257 145 L253 145 L253 149 L257 149 Z" stroke = "#000000" stroke-width = "1" fill = "#000000" />	<path d = "M266 203 L266 199 L262 199 L262 203 L266 203 Z" stroke = "#000000" stroke-width = "1" fill = "#000000" />	<path d = "M275 194 L275 190 L271 190 L271 194 L275 194 Z" stroke = "#000000" stroke-width = "1" fill = "#000000" />	<path d = "M275 185 L275 181 L271 181 L271 185 L275 185 Z" stroke = "#000000" stroke-width = "1" fill = "#000000" />	<path d = "M275 176 L275 172 L271 172 L271 176 L275 176 Z" stroke = "#000000" stroke-width = "1" fill = "#000000" />	<path d = "M284 203 L284 199 L280 199 L280 203 L284 203 Z" stroke = "#000000" stroke-width = "1" fill = "#000000" />	<path d = "M293 194 L293 190 L289 190 L289 194 L293 194 Z" stroke = "#000000" stroke-width = "1" fill = "#000000" />	<path d = "M293 185 L293 181 L289 181 L289 185 L293 185 Z" stroke = "#000000" stroke-width = "1" fill = "#000000" />	<path d = "M293 176 L293 172 L289 172 L289 176 L293 176 Z" stroke = "#000000" stroke-width = "1" fill = "#000000" />	<path d = "M293 167 L293 163 L289 163 L289 167 L293 167 Z" stroke = "#000000" stroke-width = "1" fill = "#000000" />	<path d = "M293 158 L293 154 L289 154 L289 158 L293 158 Z" stroke = "#000000" stroke-width = "1" fill = "#000000" />	<path d = "M293 149 L293 145 L289 145 L289 149 L293 149 Z" stroke = "#000000" stroke-width = "1" fill = "#000000" />	<path d = "M311 194 L311 190 L307 190 L307 194 L311 194 Z" stroke = "#000000" stroke-width = "1" fill = "#000000" />	<path d = "M311 185 L311 181 L307 181 L307 185 L311 185 Z" stroke = "#000000" stroke-width = "1" fill = "#000000" />	<path d = "M311 176 L311 172 L307 172 L307 176 L311 176 Z" stroke = "#000000" stroke-width = "1" fill = "#000000" />	<path d = "M311 167 L311 163 L307 163 L307 167 L311 167 Z" stroke = "#000000" stroke-width = "1" fill = "#000000" />	<path d = "M311 158 L311 154 L307 154 L307 158 L311 158 Z" stroke = "#000000" stroke-width = "1" fill = "#000000" />	<path d = "M311 149 L311 145 L307 145 L307 149 L311 149 Z" stroke = "#000000" stroke-width = "1" fill = "#000000" />	<path d = "M320 203 L320 199 L316 199 L316 203 L320 203 Z" stroke = "#000000" stroke-width = "1" fill = "#000000" />	<path d = "M329 194 L329 190 L325 190 L325 194 L329 194 Z" stroke = "#000000" stroke-width = "1" fill = "#000000" />	<path d = "M329 185 L329 181 L325 181 L325 185 L329 185 Z" stroke = "#000000" stroke-width = "1" fill = "#000000" />	<path d = "M329 176 L329 172 L325 172 L325 176 L329 176 Z" stroke = "#000000" stroke-width = "1" fill = "#000000" />	<path d = "M338 203 L338 199 L334 199 L334 203 L338 203 Z" stroke = "#000000" stroke-width = "1" fill = "#000000" />	<path d = "M347 194 L347 190 L343 190 L343 194 L347 194 Z" stroke = "#000000" stroke-width = "1" fill = "#000000" />	<path d = "M347 185 L347 181 L343 181 L343 185 L347 185 Z" stroke = "#000000" stroke-width = "1" fill = "#000000" />	<path d = "M347 176 L347 172 L343 172 L343 176 L347 176 Z" stroke = "#000000" stroke-width = "1" fill = "#000000" />	<path d = "M347 167 L347 163 L343 163 L343 167 L347 167 Z" stroke = "#000000" stroke-width = "1" fill = "#000000" />	<path d = "M347 158 L347 154 L343 154 L343 158 L347 158 Z" stroke = "#000000" stroke-width = "1" fill = "#000000" />	<path d = "M347 149 L347 145 L343 145 L343 149 L347 149 Z" stroke = "#000000" stroke-width = "1" fill = "#000000" />	<path d = "M383 203 L383 199 L379 199 L379 203 L383 203 Z" stroke = "#000000" stroke-width = "1" fill = "#000000" />	<path d = "M383 194 L383 190 L379 190 L379 194 L383 194 Z" stroke = "#000000" stroke-width = "1" fill = "#000000" />	<path d = "M392 194 L392 190 L388 190 L388 194 L392 194 Z" stroke = "#000000" stroke-width = "1" fill = "#000000" />	<path d = "M392 203 L392 199 L388 199 L388 203 L392 203 Z" stroke = "#000000" stroke-width = "1" fill = "#000000" />	<path d = "M149 275 L149 271 L145 271 L145 275 L149 275 Z" stroke = "#000000" stroke-width = "1" fill = "#000000" />	<path d = "M158 284 L158 280 L154 280 L154 284 L158 284 Z" stroke = "#000000" stroke-width = "1" fill = "#000000" />	<path d = "M167 284 L167 280 L163 280 L163 284 L167 284 Z" stroke = "#000000" stroke-width = "1" fill = "#000000" />	<path d = "M176 284 L176 280 L172 280 L172 284 L176 284 Z" stroke = "#000000" stroke-width = "1" fill = "#000000" />	<path d = "M185 275 L185 271 L181 271 L181 275 L185 275 Z" stroke = "#000000" stroke-width = "1" fill = "#000000" />	<path d = "M185 266 L185 262 L181 262 L181 266 L185 266 Z" stroke = "#000000" stroke-width = "1" fill = "#000000" />	<path d = "M176 257 L176 253 L172 253 L172 257 L176 257 Z" stroke = "#000000" stroke-width = "1" fill = "#000000" />	<path d = "M167 257 L167 253 L163 253 L163 257 L167 257 Z" stroke = "#000000" stroke-width = "1" fill = "#000000" />	<path d = "M158 257 L158 253 L154 253 L154 257 L158 257 Z" stroke = "#000000" stroke-width = "1" fill = "#000000" />	<path d = "M149 248 L149 244 L145 244 L145 248 L149 248 Z" stroke = "#000000" stroke-width = "1" fill = "#000000" />	<path d = "M149 239 L149 235 L145 235 L145 239 L149 239 Z" stroke = "#000000" stroke-width = "1" fill = "#000000" />	<path d = "M158 230 L158 226 L154 226 L154 230 L158 230 Z" stroke = "#000000" stroke-width = "1" fill = "#000000" />	<path d = "M167 230 L167 226 L163 226 L163 230 L167 230 Z" stroke = "#000000" stroke-width = "1" fill = "#000000" />	<path d = "M176 230 L176 226 L172 226 L172 230 L176 230 Z" stroke = "#000000" stroke-width = "1" fill = "#000000" />	<path d = "M185 239 L185 235 L181 235 L181 239 L185 239 Z" stroke = "#000000" stroke-width = "1" fill = "#000000" />	<path d = "M203 284 L203 280 L199 280 L199 284 L203 284 Z" stroke = "#000000" stroke-width = "1" fill = "#000000" />	<path d = "M203 275 L203 271 L199 271 L199 275 L203 275 Z" stroke = "#000000" stroke-width = "1" fill = "#000000" />	<path d = "M203 266 L203 262 L199 262 L199 266 L203 266 Z" stroke = "#000000" stroke-width = "1" fill = "#000000" />	<path d = "M203 257 L203 253 L199 253 L199 257 L203 257 Z" stroke = "#000000" stroke-width = "1" fill = "#000000" />	<path d = "M203 248 L203 244 L199 244 L199 248 L203 248 Z" stroke = "#000000" stroke-width = "1" fill = "#000000" />	<path d = "M203 239 L203 235 L199 235 L199 239 L203 239 Z" stroke = "#000000" stroke-width = "1" fill = "#000000" />	<path d = "M203 230 L203 226 L199 226 L199 230 L203 230 Z" stroke = "#000000" stroke-width = "1" fill = "#000000" />	<path d = "M212 284 L212 280 L208 280 L208 284 L212 284 Z" stroke = "#000000" stroke-width = "1" fill = "#000000" />	<path d = "M221 284 L221 280 L217 280 L217 284 L221 284 Z" stroke = "#000000" stroke-width = "1" fill = "#000000" />	<path d = "M230 284 L230 280 L226 280 L226 284 L230 284 Z" stroke = "#000000" stroke-width = "1" fill = "#000000" />	<path d = "M239 284 L239 280 L235 280 L235 284 L239 284 Z" stroke = "#000000" stroke-width = "1" fill = "#000000" />	<path d = "M257 275 L257 271 L253 271 L253 275 L257 275 Z" stroke = "#000000" stroke-width = "1" fill = "#000000" />	<path d = "M257 266 L257 262 L253 262 L253 266 L257 266 Z" stroke = "#000000" stroke-width = "1" fill = "#000000" />	<path d = "M257 257 L257 253 L253 253 L253 257 L257 257 Z" stroke = "#000000" stroke-width = "1" fill = "#000000" />	<path d = "M257 248 L257 244 L253 244 L253 248 L257 248 Z" stroke = "#000000" stroke-width = "1" fill = "#000000" />	<path d = "M257 239 L257 235 L253 235 L253 239 L257 239 Z" stroke = "#000000" stroke-width = "1" fill = "#000000" />	<path d = "M266 230 L266 226 L262 226 L262 230 L266 230 Z" stroke = "#000000" stroke-width = "1" fill = "#000000" />	<path d = "M275 230 L275 226 L271 226 L271 230 L275 230 Z" stroke = "#000000" stroke-width = "1" fill = "#000000" />	<path d = "M284 230 L284 226 L280 226 L280 230 L284 230 Z" stroke = "#000000" stroke-width = "1" fill = "#000000" />	<path d = "M293 239 L293 235 L289 235 L289 239 L293 239 Z" stroke = "#000000" stroke-width = "1" fill = "#000000" />	<path d = "M293 248 L293 244 L289 244 L289 248 L293 248 Z" stroke = "#000000" stroke-width = "1" fill = "#000000" />	<path d = "M293 257 L293 253 L289 253 L289 257 L293 257 Z" stroke = "#000000" stroke-width = "1" fill = "#000000" />	<path d = "M293 266 L293 262 L289 262 L289 266 L293 266 Z" stroke = "#000000" stroke-width = "1" fill = "#000000" />	<path d = "M293 275 L293 271 L289 271 L289 275 L293 275 Z" stroke = "#000000" stroke-width = "1" fill = "#000000" />	<path d = "M284 284 L284 280 L280 280 L280 284 L284 284 Z" stroke = "#000000" stroke-width = "1" fill = "#000000" />	<path d = "M275 284 L275 280 L271 280 L271 284 L275 284 Z" stroke = "#000000" stroke-width = "1" fill = "#000000" />	<path d = "M266 284 L266 280 L262 280 L262 284 L266 284 Z" stroke = "#000000" stroke-width = "1" fill = "#000000" />	<path d = "M311 284 L311 280 L307 280 L307 284 L311 284 Z" stroke = "#000000" stroke-width = "1" fill = "#000000" />	<path d = "M311 275 L311 271 L307 271 L307 275 L311 275 Z" stroke = "#000000" stroke-width = "1" fill = "#000000" />	<path d = "M311 266 L311 262 L307 262 L307 266 L311 266 Z" stroke = "#000000" stroke-width = "1" fill = "#000000" />	<path d = "M311 257 L311 253 L307 253 L307 257 L311 257 Z" stroke = "#000000" stroke-width = "1" fill = "#000000" />	<path d = "M311 248 L311 244 L307 244 L307 248 L311 248 Z" stroke = "#000000" stroke-width = "1" fill = "#000000" />	<path d = "M311 239 L311 235 L307 235 L307 239 L311 239 Z" stroke = "#000000" stroke-width = "1" fill = "#000000" />	<path d = "M320 230 L320 226 L316 226 L316 230 L320 230 Z" stroke = "#000000" stroke-width = "1" fill = "#000000" />	<path d = "M329 230 L329 226 L325 226 L325 230 L329 230 Z" stroke = "#000000" stroke-width = "1" fill = "#000000" />	<path d = "M338 230 L338 226 L334 226 L334 230 L338 230 Z" stroke = "#000000" stroke-width = "1" fill = "#000000" />	<path d = "M347 239 L347 235 L343 235 L343 239 L347 239 Z" stroke = "#000000" stroke-width = "1" fill = "#000000" />	<path d = "M347 248 L347 244 L343 244 L343 248 L347 248 Z" stroke = "#000000" stroke-width = "1" fill = "#000000" />	<path d = "M347 257 L347 253 L343 253 L343 257 L347 257 Z" stroke = "#000000" stroke-width = "1" fill = "#000000" />	<path d = "M347 266 L347 262 L343 262 L343 266 L347 266 Z" stroke = "#000000" stroke-width = "1" fill = "#000000" />	<path d = "M347 275 L347 271 L343 271 L343 275 L347 275 Z" stroke = "#000000" stroke-width = "1" fill = "#000000" />	<path d = "M347 284 L347 280 L343 280 L343 284 L347 284 Z" stroke = "#000000" stroke-width = "1" fill = "#000000" />	<path d = "M338 257 L338 253 L334 253 L334 257 L338 257 Z" stroke = "#000000" stroke-width = "1" fill = "#000000" />	<path d = "M329 257 L329 253 L325 253 L325 257 L329 257 Z" stroke = "#000000" stroke-width = "1" fill = "#000000" />	<path d = "M320 257 L320 253 L316 253 L316 257 L320 257 Z" stroke = "#000000" stroke-width = "1" fill = "#000000" />	<path d = "M365 284 L365 280 L361 280 L361 284 L365 284 Z" stroke = "#000000" stroke-width = "1" fill = "#000000" />	<path d = "M365 275 L365 271 L361 271 L361 275 L365 275 Z" stroke = "#000000" stroke-width = "1" fill = "#000000" />	<path d = "M365 266 L365 262 L361 262 L361 266 L365 266 Z" stroke = "#000000" stroke-width = "1" fill = "#000000" />	<path d = "M365 257 L365 253 L361 253 L361 257 L365 257 Z" stroke = "#000000" stroke-width = "1" fill = "#000000" />	<path d = "M365 248 L365 244 L361 244 L361 248 L365 248 Z" stroke = "#000000" stroke-width = "1" fill = "#000000" />	<path d = "M365 239 L365 235 L361 235 L361 239 L365 239 Z" stroke = "#000000" stroke-width = "1" fill = "#000000" />	<path d = "M365 230 L365 226 L361 226 L361 230 L365 230 Z" stroke = "#000000" stroke-width = "1" fill = "#000000" />	<path d = "M374 248 L374 244 L370 244 L370 248 L374 248 Z" stroke = "#000000" stroke-width = "1" fill = "#000000" />	<path d = "M383 257 L383 253 L379 253 L379 257 L383 257 Z" stroke = "#000000" stroke-width = "1" fill = "#000000" />	<path d = "M392 266 L392 262 L388 262 L388 266 L392 266 Z" stroke = "#000000" stroke-width = "1" fill = "#000000" />	<path d = "M401 275 L401 271 L397 271 L397 275 L401 275 Z" stroke = "#000000" stroke-width = "1" fill = "#000000" />	<path d = "M401 284 L401 280 L397 280 L397 284 L401 284 Z" stroke = "#000000" stroke-width = "1" fill = "#000000" />	<path d = "M401 266 L401 262 L397 262 L397 266 L401 266 Z" stroke = "#000000" stroke-width = "1" fill = "#000000" />	<path d = "M401 257 L401 253 L397 253 L397 257 L401 257 Z" stroke = "#000000" stroke-width = "1" fill = "#000000" />	<path d = "M401 248 L401 244 L397 244 L397 248 L401 248 Z" stroke = "#000000" stroke-width = "1" fill = "#000000" />	<path d = "M401 239 L401 235 L397 235 L397 239 L401 239 Z" stroke = "#000000" stroke-width = "1" fill = "#000000" />	<path d = "M401 230 L401 226 L397 226 L397 230 L401 230 Z" stroke = "#000000" stroke-width = "1" fill = "#000000" />	<path d = "M419 275 L419 271 L415 271 L415 275 L419 275 Z" stroke = "#000000" stroke-width = "1" fill = "#000000" />	<path d = "M428 284 L428 280 L424 280 L424 284 L428 284 Z" stroke = "#000000" stroke-width = "1" fill = "#000000" />	<path d = "M437 284 L437 280 L433 280 L433 284 L437 284 Z" stroke = "#000000" stroke-width = "1" fill = "#000000" />	<path d = "M446 284 L446 280 L442 280 L442 284 L446 284 Z" stroke = "#000000" stroke-width = "1" fill = "#000000" />	<path d = "M455 275 L455 271 L451 271 L451 275 L455 275 Z" stroke = "#000000" stroke-width = "1" fill = "#000000" />	<path d = "M455 266 L455 262 L451 262 L451 266 L455 266 Z" stroke = "#000000" stroke-width = "1" fill = "#000000" />	<path d = "M446 257 L446 253 L442 253 L442 257 L446 257 Z" stroke = "#000000" stroke-width = "1" fill = "#000000" />	<path d = "M437 257 L437 253 L433 253 L433 257 L437 257 Z" stroke = "#000000" stroke-width = "1" fill = "#000000" />	<path d = "M428 257 L428 253 L424 253 L424 257 L428 257 Z" stroke = "#000000" stroke-width = "1" fill = "#000000" />	<path d = "M419 248 L419 244 L415 244 L415 248 L419 248 Z" stroke = "#000000" stroke-width = "1" fill = "#000000" />	<path d = "M419 239 L419 235 L415 235 L415 239 L419 239 Z" stroke = "#000000" stroke-width = "1" fill = "#000000" />	<path d = "M428 230 L428 226 L424 226 L424 230 L428 230 Z" stroke = "#000000" stroke-width = "1" fill = "#000000" />	<path d = "M437 230 L437 226 L433 226 L433 230 L437 230 Z" stroke = "#000000" stroke-width = "1" fill = "#000000" />	<path d = "M446 230 L446 226 L442 226 L442 230 L446 230 Z" stroke = "#000000" stroke-width = "1" fill = "#000000" />	<path d = "M455 239 L455 235 L451 235 L451 239 L455 239 Z" stroke = "#000000" stroke-width = "1" fill = "#000000" />	<path d = "M203 374 L203 370 L199 370 L199 374 L203 374 Z" stroke = "#000000" stroke-width = "1" fill = "#000000" />	<path d = "M203 365 L203 361 L199 361 L199 365 L203 365 Z" stroke = "#000000" stroke-width = "1" fill = "#000000" />	<path d = "M203 356 L203 352 L199 352 L199 356 L203 356 Z" stroke = "#000000" stroke-width = "1" fill = "#000000" />	<path d = "M203 347 L203 343 L199 343 L199 347 L203 347 Z" stroke = "#000000" stroke-width = "1" fill = "#000000" />	<path d = "M203 338 L203 334 L199 334 L199 338 L203 338 Z" stroke = "#000000" stroke-width = "1" fill = "#000000" />	<path d = "M203 329 L203 325 L199 325 L199 329 L203 329 Z" stroke = "#000000" stroke-width = "1" fill = "#000000" />	<path d = "M203 320 L203 316 L199 316 L199 320 L203 320 Z" stroke = "#000000" stroke-width = "1" fill = "#000000" />	<path d = "M212 374 L212 370 L208 370 L208 374 L212 374 Z" stroke = "#000000" stroke-width = "1" fill = "#000000" />	<path d = "M221 374 L221 370 L217 370 L217 374 L221 374 Z" stroke = "#000000" stroke-width = "1" fill = "#000000" />	<path d = "M230 374 L230 370 L226 370 L226 374 L230 374 Z" stroke = "#000000" stroke-width = "1" fill = "#000000" />	<path d = "M239 374 L239 370 L235 370 L235 374 L239 374 Z" stroke = "#000000" stroke-width = "1" fill = "#000000" />	<path d = "M257 374 L257 370 L253 370 L253 374 L257 374 Z" stroke = "#000000" stroke-width = "1" fill = "#000000" />	<path d = "M257 365 L257 361 L253 361 L253 365 L257 365 Z" stroke = "#000000" stroke-width = "1" fill = "#000000" />	<path d = "M257 356 L257 352 L253 352 L253 356 L257 356 Z" stroke = "#000000" stroke-width = "1" fill = "#000000" />	<path d = "M257 347 L257 343 L253 343 L253 347 L257 347 Z" stroke = "#000000" stroke-width = "1" fill = "#000000" />	<path d = "M257 338 L257 334 L253 334 L253 338 L257 338 Z" stroke = "#000000" stroke-width = "1" fill = "#000000" />	<path d = "M257 329 L257 325 L253 325 L253 329 L257 329 Z" stroke = "#000000" stroke-width = "1" fill = "#000000" />	<path d = "M266 320 L266 316 L262 316 L262 320 L266 320 Z" stroke = "#000000" stroke-width = "1" fill = "#000000" />	<path d = "M275 320 L275 316 L271 316 L271 320 L275 320 Z" stroke = "#000000" stroke-width = "1" fill = "#000000" />	<path d = "M284 320 L284 316 L280 316 L280 320 L284 320 Z" stroke = "#000000" stroke-width = "1" fill = "#000000" />	<path d = "M293 329 L293 325 L289 325 L289 329 L293 329 Z" stroke = "#000000" stroke-width = "1" fill = "#000000" />	<path d = "M293 338 L293 334 L289 334 L289 338 L293 338 Z" stroke = "#000000" stroke-width = "1" fill = "#000000" />	<path d = "M293 347 L293 343 L289 343 L289 347 L293 347 Z" stroke = "#000000" stroke-width = "1" fill = "#000000" />	<path d = "M293 356 L293 352 L289 352 L289 356 L293 356 Z" stroke = "#000000" stroke-width = "1" fill = "#000000" />	<path d = "M293 365 L293 361 L289 361 L289 365 L293 365 Z" stroke = "#000000" stroke-width = "1" fill = "#000000" />	<path d = "M293 374 L293 370 L289 370 L289 374 L293 374 Z" stroke = "#000000" stroke-width = "1" fill = "#000000" />	<path d = "M284 347 L284 343 L280 343 L280 347 L284 347 Z" stroke = "#000000" stroke-width = "1" fill = "#000000" />	<path d = "M275 347 L275 343 L271 343 L271 347 L275 347 Z" stroke = "#000000" stroke-width = "1" fill = "#000000" />	<path d = "M266 347 L266 343 L262 343 L262 347 L266 347 Z" stroke = "#000000" stroke-width = "1" fill = "#000000" />	<path d = "M311 374 L311 370 L307 370 L307 374 L311 374 Z" stroke = "#000000" stroke-width = "1" fill = "#000000" />	<path d = "M311 365 L311 361 L307 361 L307 365 L311 365 Z" stroke = "#000000" stroke-width = "1" fill = "#000000" />	<path d = "M311 356 L311 352 L307 352 L307 356 L311 356 Z" stroke = "#000000" stroke-width = "1" fill = "#000000" />	<path d = "M311 347 L311 343 L307 343 L307 347 L311 347 Z" stroke = "#000000" stroke-width = "1" fill = "#000000" />	<path d = "M311 338 L311 334 L307 334 L307 338 L311 338 Z" stroke = "#000000" stroke-width = "1" fill = "#000000" />	<path d = "M311 329 L311 325 L307 325 L307 329 L311 329 Z" stroke = "#000000" stroke-width = "1" fill = "#000000" />	<path d = "M311 320 L311 316 L307 316 L307 320 L311 320 Z" stroke = "#000000" stroke-width = "1" fill = "#000000" />	<path d = "M320 347 L320 343 L316 343 L316 347 L320 347 Z" stroke = "#000000" stroke-width = "1" fill = "#000000" />	<path d = "M329 338 L329 334 L325 334 L325 338 L329 338 Z" stroke = "#000000" stroke-width = "1" fill = "#000000" />	<path d = "M338 329 L338 325 L334 325 L334 329 L338 329 Z" stroke = "#000000" stroke-width = "1" fill = "#000000" />	<path d = "M347 320 L347 316 L343 316 L343 320 L347 320 Z" stroke = "#000000" stroke-width = "1" fill = "#000000" />	<path d = "M329 356 L329 352 L325 352 L325 356 L329 356 Z" stroke = "#000000" stroke-width = "1" fill = "#000000" />	<path d = "M338 365 L338 361 L334 361 L334 365 L338 365 Z" stroke = "#000000" stroke-width = "1" fill = "#000000" />	<path d = "M347 374 L347 370 L343 370 L343 374 L347 374 Z" stroke = "#000000" stroke-width = "1" fill = "#000000" />	<path d = "M365 374 L365 370 L361 370 L361 374 L365 374 Z" stroke = "#000000" stroke-width = "1" fill = "#000000" />	<path d = "M365 365 L365 361 L361 361 L361 365 L365 365 Z" stroke = "#000000" stroke-width = "1" fill = "#000000" />	<path d = "M365 356 L365 352 L361 352 L361 356 L365 356 Z" stroke = "#000000" stroke-width = "1" fill = "#000000" />	<path d = "M365 347 L365 343 L361 343 L361 347 L365 347 Z" stroke = "#000000" stroke-width = "1" fill = "#000000" />	<path d = "M365 338 L365 334 L361 334 L361 338 L365 338 Z" stroke = "#000000" stroke-width = "1" fill = "#000000" />	<path d = "M365 329 L365 325 L361 325 L361 329 L365 329 Z" stroke = "#000000" stroke-width = "1" fill = "#000000" />	<path d = "M365 320 L365 316 L361 316 L361 320 L365 320 Z" stroke = "#000000" stroke-width = "1" fill = "#000000" />	<path d = "M374 320 L374 316 L370 316 L370 320 L374 320 Z" stroke = "#000000" stroke-width = "1" fill = "#000000" />	<path d = "M383 320 L383 316 L379 316 L379 320 L383 320 Z" stroke = "#000000" stroke-width = "1" fill = "#000000" />	<path d = "M392 320 L392 316 L388 316 L388 320 L392 320 Z" stroke = "#000000" stroke-width = "1" fill = "#000000" />	<path d = "M401 320 L401 316 L397 316 L397 320 L401 320 Z" stroke = "#000000" stroke-width = "1" fill = "#000000" />	<path d = "M383 347 L383 343 L379 343 L379 347 L383 347 Z" stroke = "#000000" stroke-width = "1" fill = "#000000" />	<path d = "M374 347 L374 343 L370 343 L370 347 L374 347 Z" stroke = "#000000" stroke-width = "1" fill = "#000000" />	<path d = "M374 374 L374 370 L370 370 L370 374 L374 374 Z" stroke = "#000000" stroke-width = "1" fill = "#000000" />	<path d = "M383 374 L383 370 L379 370 L379 374 L383 374 Z" stroke = "#000000" stroke-width = "1" fill = "#000000" />	<path d = "M392 374 L392 370 L388 370 L388 374 L392 374 Z" stroke = "#000000" stroke-width = "1" fill = "#000000" />	<path d = "M401 374 L401 370 L397 370 L397 374 L401 374 Z" stroke = "#000000" stroke-width = "1" fill = "#000000" />	<path d = "M221 464 L221 460 L217 460 L217 464 L221 464 Z" stroke = "#000000" stroke-width = "1" fill = "#000000" />	<path d = "M221 455 L221 451 L217 451 L217 455 L221 455 Z" stroke = "#000000" stroke-width = "1" fill = "#000000" />	<path d = "M230 455 L230 451 L226 451 L226 455 L230 455 Z" stroke = "#000000" stroke-width = "1" fill = "#000000" />	<path d = "M230 464 L230 460 L226 460 L226 464 L230 464 Z" stroke = "#000000" stroke-width = "1" fill = "#000000" />	<path d = "M257 464 L257 460 L253 460 L253 464 L257 464 Z" stroke = "#000000" stroke-width = "1" fill = "#000000" />	<path d = "M257 455 L257 451 L253 451 L253 455 L257 455 Z" stroke = "#000000" stroke-width = "1" fill = "#000000" />	<path d = "M257 446 L257 442 L253 442 L253 446 L257 446 Z" stroke = "#000000" stroke-width = "1" fill = "#000000" />	<path d = "M257 437 L257 433 L253 433 L253 437 L257 437 Z" stroke = "#000000" stroke-width = "1" fill = "#000000" />	<path d = "M257 428 L257 424 L253 424 L253 428 L257 428 Z" stroke = "#000000" stroke-width = "1" fill = "#000000" />	<path d = "M257 419 L257 415 L253 415 L253 419 L257 419 Z" stroke = "#000000" stroke-width = "1" fill = "#000000" />	<path d = "M266 410 L266 406 L262 406 L262 410 L266 410 Z" stroke = "#000000" stroke-width = "1" fill = "#000000" />	<path d = "M275 410 L275 406 L271 406 L271 410 L275 410 Z" stroke = "#000000" stroke-width = "1" fill = "#000000" />	<path d = "M284 410 L284 406 L280 406 L280 410 L284 410 Z" stroke = "#000000" stroke-width = "1" fill = "#000000" />	<path d = "M293 419 L293 415 L289 415 L289 419 L293 419 Z" stroke = "#000000" stroke-width = "1" fill = "#000000" />	<path d = "M293 428 L293 424 L289 424 L289 428 L293 428 Z" stroke = "#000000" stroke-width = "1" fill = "#000000" />	<path d = "M293 437 L293 433 L289 433 L289 437 L293 437 Z" stroke = "#000000" stroke-width = "1" fill = "#000000" />	<path d = "M293 446 L293 442 L289 442 L289 446 L293 446 Z" stroke = "#000000" stroke-width = "1" fill = "#000000" />	<path d = "M293 455 L293 451 L289 451 L289 455 L293 455 Z" stroke = "#000000" stroke-width = "1" fill = "#000000" />	<path d = "M293 464 L293 460 L289 460 L289 464 L293 464 Z" stroke = "#000000" stroke-width = "1" fill = "#000000" />	<path d = "M284 437 L284 433 L280 433 L280 437 L284 437 Z" stroke = "#000000" stroke-width = "1" fill = "#000000" />	<path d = "M275 437 L275 433 L271 433 L271 437 L275 437 Z" stroke = "#000000" stroke-width = "1" fill = "#000000" />	<path d = "M266 437 L266 433 L262 433 L262 437 L266 437 Z" stroke = "#000000" stroke-width = "1" fill = "#000000" />	<path d = "M311 464 L311 460 L307 460 L307 464 L311 464 Z" stroke = "#000000" stroke-width = "1" fill = "#000000" />	<path d = "M311 455 L311 451 L307 451 L307 455 L311 455 Z" stroke = "#000000" stroke-width = "1" fill = "#000000" />	<path d = "M311 446 L311 442 L307 442 L307 446 L311 446 Z" stroke = "#000000" stroke-width = "1" fill = "#000000" />	<path d = "M311 437 L311 433 L307 433 L307 437 L311 437 Z" stroke = "#000000" stroke-width = "1" fill = "#000000" />	<path d = "M311 428 L311 424 L307 424 L307 428 L311 428 Z" stroke = "#000000" stroke-width = "1" fill = "#000000" />	<path d = "M311 419 L311 415 L307 415 L307 419 L311 419 Z" stroke = "#000000" stroke-width = "1" fill = "#000000" />	<path d = "M311 410 L311 406 L307 406 L307 410 L311 410 Z" stroke = "#000000" stroke-width = "1" fill = "#000000" />	<path d = "M320 410 L320 406 L316 406 L316 410 L320 410 Z" stroke = "#000000" stroke-width = "1" fill = "#000000" />	<path d = "M329 410 L329 406 L325 406 L325 410 L329 410 Z" stroke = "#000000" stroke-width = "1" fill = "#000000" />	<path d = "M338 410 L338 406 L334 406 L334 410 L338 410 Z" stroke = "#000000" stroke-width = "1" fill = "#000000" />	<path d = "M347 419 L347 415 L343 415 L343 419 L347 419 Z" stroke = "#000000" stroke-width = "1" fill = "#000000" />	<path d = "M347 428 L347 424 L343 424 L343 428 L347 428 Z" stroke = "#000000" stroke-width = "1" fill = "#000000" />	<path d = "M338 437 L338 433 L334 433 L334 437 L338 437 Z" stroke = "#000000" stroke-width = "1" fill = "#000000" />	<path d = "M329 437 L329 433 L325 433 L325 437 L329 437 Z" stroke = "#000000" stroke-width = "1" fill = "#000000" />	<path d = "M320 437 L320 433 L316 433 L316 437 L320 437 Z" stroke = "#000000" stroke-width = "1" fill = "#000000" />	<path d = "M329 446 L329 442 L325 442 L325 446 L329 446 Z" stroke = "#000000" stroke-width = "1" fill = "#000000" />	<path d = "M338 455 L338 451 L334 451 L334 455 L338 455 Z" stroke = "#000000" stroke-width = "1" fill = "#000000" />	<path d = "M347 464 L347 460 L343 460 L343 464 L347 464 Z" stroke = "#000000" stroke-width = "1" fill = "#000000" />	<path d = "M365 410 L365 406 L361 406 L361 410 L365 410 Z" stroke = "#000000" stroke-width = "1" fill = "#000000" />	<path d = "M374 410 L374 406 L370 406 L370 410 L374 410 Z" stroke = "#000000" stroke-width = "1" fill = "#000000" />	<path d = "M383 410 L383 406 L379 406 L379 410 L383 410 Z" stroke = "#000000" stroke-width = "1" fill = "#000000" />	<path d = "M392 410 L392 406 L388 406 L388 410 L392 410 Z" stroke = "#000000" stroke-width = "1" fill = "#000000" />	<path d = "M401 410 L401 406 L397 406 L397 410 L401 410 Z" stroke = "#000000" stroke-width = "1" fill = "#000000" />	<path d = "M383 419 L383 415 L379 415 L379 419 L383 419 Z" stroke = "#000000" stroke-width = "1" fill = "#000000" />	<path d = "M383 428 L383 424 L379 424 L379 428 L383 428 Z" stroke = "#000000" stroke-width = "1" fill = "#000000" />	<path d = "M383 437 L383 433 L379 433 L379 437 L383 437 Z" stroke = "#000000" stroke-width = "1" fill = "#000000" />	<path d = "M383 446 L383 442 L379 442 L379 446 L383 446 Z" stroke = "#000000" stroke-width = "1" fill = "#000000" />	<path d = "M383 455 L383 451 L379 451 L379 455 L383 455 Z" stroke = "#000000" stroke-width = "1" fill = "#000000" />	<path d = "M383 464 L383 460 L379 460 L379 464 L383 464 Z" stroke = "#000000" stroke-width = "1" fill = "#000000" /></svg>