<svg width="800" height="800" viewbox = "0 0 800 800"  xmlns="http://www.w3.org/2000/svg">
<!--<json>{
  "glyph": "01306,01362,01203,01334,01350,01334,01312,01336,01203,01335,01335,01203,0331,0332,0332,0332,0332,0332,0332,0332,0332,0332,0332,0332,0332,0336,0331,0337,01334,01334,01334,01337,01203,01334,01334,01203,01335,01335,01335,01336,0331,0332,0332,0332,0332,0332,0332,0332,0332,0332,0332,0332,0332,0336,0331,0337,01203,01334,01334,01334,01334,01335,01335,01203,01334,01334,01334,01337,0331,0332,0332,0332,0332,0332,0332,0332,0332,0332,0332,0332,0332,0336,0331,0337,01203,01334,01334,01203,01335,01335,01335,01336,01203,01334,01334,01203,0331,0332,0332,0332,0332,0332,0332,0332,0332,0332,0332,0332,0332,0336,0331,0337,01203,01334,01334,01203,01334,01334,01334,01337,01203,01363,01335,01335,0336,0330,0333,0336,0341,0337,0337,0330,0330,0330,0330,0330,0330,0330,0330,0332,0332,0332,0332,0332,0330,0332,0332,0330,0337,0330,0337,0210,0210,0210,0333,0331,0336,0336,0336,0330,0330,0330,0330,0211,0211,0213,0213,0213,0213,0337,0337,0337,0230,",
  "x0": 175.65790591153527,
  "y0": 474.34209408846476,
  "unit": 46.65073802097332,
  "width": 800,
  "height": 800,
  "style": {
    "color0": "black",
    "fill0": "#00000050",
    "line0": 1,
    "color1": "black",
    "fill1": "#40404040",
    "line1": 5,
    "color2": "red",
    "fill2": "#ff000040",
    "line2": 1,
    "color3": "#FF7900",
    "fill3": "#FF7900",
    "line3": 1,
    "color4": "yellow",
    "fill4": "yellow",
    "line4": 1,
    "color5": "green",
    "fill5": "green",
    "line5": 1,
    "color6": "blue",
    "fill6": "blue",
    "line6": 1,
    "color7": "purple",
    "fill7": "purple",
    "line7": 1
  },
  "shapes": [
    "0220:0313,0336,0312,0336,0313,0337,0306,0350,0335,0306,0330,0335,0335,0201,0335,0201,0335,0201,0335,0201,0335,0201,0335,0201,0334,0331,0342,0335,0342,0335,0342,0335,0342,0335,0342,0335,0342,0350,0335,0336,0312,0337,0342,0335,0335,0342,0335,0335,0342,0335,0335,0342,0335,0335,0342,0335,0335,0342,0335,0335,0335,0306,0336,0313,0337,0350,0334,0306,0313,0336,0312,0337,0313,0337,",
    "0221:0330,0220,",
    "0222:0221,0221,0221,0221,0221,0221,0221,0221,0331,0331,0331,0331,0331,0331,0331,0333,0331,",
    "0223:0222,0222,0331,0222,0222,0331,0222,0222,0331,0222,0222,0331,0332,0332,0332,0331,0332,0331,0332,0331,0332,0331,0330,0330,0332,0332,0331,0331,",
    "0230:0306,0362,0203,0334,0350,0334,0312,0336,0203,0335,0335,0203,0334,0334,0334,0337,0203,0334,0334,0203,0335,0335,0335,0336,0203,0334,0334,0334,0334,0335,0335,0203,0334,0334,0334,0337,0203,0334,0334,0203,0335,0335,0335,0336,0203,0334,0334,0203,0203,0334,0334,0203,0334,0334,0334,0337,0203,0363,0335,0335,",
    "01220:0333,0200,0336,0330,0332,0220,0313,0304,0331,0333,0337,",
    "01221:0333,0200,0336,0332,0336,0221,0221,0221,0331,0331,0331,0313,0304,0333,0333,0337,0337,",
    "01222:0333,0200,0336,0330,0332,0331,0336,0336,0222,0313,0330,0332,0331,0331,0304,0313,0333,0333,0333,0333,0337,0337,0337,",
    "01223:0333,0200,0336,0332,0332,0336,0336,0333,0330,0223,0313,0304,0331,0333,0333,0333,0333,0333,0333,0333,0337,0337,0337,",
    "01224:0333,0224,0313,0304,",
    "01225:0333,0225,0313,0304,",
    "01226:0226,0200,",
    "01227:0227,0200,",
    "01230:0333,0200,0336,0330,0332,0336,0333,0230,0313,0304,0331,0331,0333,0337,0337,",
    "01231:0333,0200,0336,0330,0332,0336,0231,0313,0337,0331,0333,0337,",
    "01232:0333,0232,",
    "01233:0333,0233,",
    "01234:0333,0234,",
    "01235:0333,0200,0336,0330,0332,0235,0331,0333,0337,",
    "01236:0333,0200,0336,0330,0332,0236,0331,0333,0337,",
    "01237:0333,0237,",
    "0240:0220,0336,0331,0333,0336,0321,0335,0342,0335,0335,0342,0335,0330,0330,0332,0332,0337,0337,",
    "01240:0333,0200,0336,0330,0332,0210,0240,0211,0333,0331,0337,",
    "0241:0220,0336,0321,0343,0332,0350,0335,0336,0342,0334,0334,0342,0335,0304,0337,0333,0337,",
    "01241:0333,0200,0336,0332,0330,0210,0241,0211,0333,0331,0337,",
    "0242:0220,0321,0336,0343,0333,0336,0350,0335,0342,0334,0334,0342,0335,0337,0304,0332,0337,",
    "01242:0333,0200,0336,0330,0332,0210,0242,0211,0333,0331,0337,",
    "0243:0220,0336,0331,0332,0336,0321,0343,0332,0350,0334,0336,0342,0335,0335,0342,0337,0334,0334,0335,0304,0332,0330,0330,0337,0337,0333,",
    "01243:0333,0200,0336,0330,0332,0210,0243,0211,0333,0331,0337,",
    "0244:0220,0336,0331,0333,0336,0321,0343,0333,0350,0336,0335,0342,0334,0334,0342,0335,0337,0304,0333,0330,0330,0337,0337,0332,",
    "01244:0333,0200,0336,0330,0332,0210,0244,0211,0333,0331,0337,",
    "0245:0210,0332,0332,0362,0335,0203,0203,0203,0203,0334,0203,0363,0332,0332,0331,0211,",
    "01245:0333,0200,0336,0330,0332,0336,0245,0337,0333,0331,0337,",
    "0246:0210,0332,0332,0335,0306,0336,0330,0335,0335,0335,0321,0362,0203,0335,0335,0203,0364,0331,0350,0335,0337,0366,0333,0333,0333,0333,0334,0334,0334,0334,0367,0335,0336,0342,0334,0334,0342,0330,0330,0330,0330,0335,0335,0335,0304,0337,0211,",
    "01246:0333,0200,0336,0330,0332,0336,0246,",
    "0247:0330,0332,0336,0332,0336,0221,0333,0333,0333,0222,0333,0333,0333,0223,0333,0333,0333,0225,0333,0331,0331,0331,0332,0332,0332,0332,0332,0332,0332,0332,0332,0332,0332,0332,0333,0333,0226,0331,0331,0331,0333,0333,0333,0333,0333,0333,0333,0333,0333,0333,0333,0333,0333,0330,0333,0330,0330,0333,0330,0331,0332,0332,0332,0332,0332,0332,0332,0332,0332,0332,0332,0332,0227,0333,0333,0333,0230,0333,0331,0331,0331,0331,0332,0332,0332,0330,0332,0332,0332,0332,0332,0332,0333,0333,0231,0333,0333,0333,0232,0331,0333,0330,0333,0333,0233,0333,0333,0333,0234,0330,0330,0332,0330,0332,0332,0337,0337,",
    "01247:0333,0200,0336,0330,0332,0220,0336,0247,0337,0331,0333,0337,"
  ]
}</json>-->	<path d = "M222 474 L222 428 L176 428 L176 474 L222 474 Z" stroke = "#000000" stroke-width = "1" fill = "none" />    <line x1="199" y1="451" x2="199" y2="428" style="stroke:#000000;stroke-width:1" />
    <line x1="199" y1="451" x2="219" y2="439" style="stroke:#000000;stroke-width:1" />
    <line x1="199" y1="451" x2="219" y2="463" style="stroke:#000000;stroke-width:1" />
    <line x1="199" y1="451" x2="199" y2="474" style="stroke:#000000;stroke-width:1" />
    <line x1="199" y1="451" x2="179" y2="463" style="stroke:#000000;stroke-width:1" />
<circle cx="199" cy = "451" r = "23.32536901048666" stroke = "#000000" stroke-width = "1" fill = "none" />
<circle cx="193" cy = "441" r = "2.9156711263108326" stroke = "#000000" stroke-width = "1" fill = "none" />
<circle cx="205" cy = "441" r = "2.9156711263108326" stroke = "#000000" stroke-width = "1" fill = "none" />
<circle cx="211" cy = "451" r = "2.9156711263108326" stroke = "#000000" stroke-width = "1" fill = "none" />
<circle cx="205" cy = "461" r = "2.9156711263108326" stroke = "#000000" stroke-width = "1" fill = "none" />
<circle cx="193" cy = "461" r = "2.9156711263108326" stroke = "#000000" stroke-width = "1" fill = "none" />
    <line x1="199" y1="451" x2="179" y2="439" style="stroke:#000000;stroke-width:1" />
<circle cx="187" cy = "451" r = "2.9156711263108326" stroke = "#000000" stroke-width = "1" fill = "none" />
	<path d = "M269 474 L269 428 L222 428 L222 474 L269 474 Z" stroke = "#000000" stroke-width = "1" fill = "none" /><circle cx="234" cy = "463" r = "1" stroke = "#000000" stroke-width = "1" fill = "#000000" />
	<path d = "M234 463 L234 439 L257 439 " stroke = "#000000" stroke-width = "1" fill = "none" />	<path d = "M249 431 L257 439 L249 448 " stroke = "#000000" stroke-width = "1" fill = "none" />    <line x1="269" y1="474" x2="277" y2="466" style="stroke:#000000;stroke-width:1" />
    <line x1="281" y1="474" x2="289" y2="466" style="stroke:#000000;stroke-width:1" />
    <line x1="292" y1="474" x2="301" y2="466" style="stroke:#000000;stroke-width:1" />
    <line x1="304" y1="474" x2="312" y2="466" style="stroke:#000000;stroke-width:1" />
	<path d = "M316 474 L316 428 L269 428 L269 474 L316 474 Z" stroke = "#000000" stroke-width = "1" fill = "none" />    <line x1="281" y1="451" x2="304" y2="451" style="stroke:#000000;stroke-width:1" />
    <line x1="304" y1="451" x2="300" y2="455" style="stroke:#000000;stroke-width:1" />
    <line x1="304" y1="451" x2="300" y2="447" style="stroke:#000000;stroke-width:1" />
	<path d = "M362 474 L362 428 L316 428 L316 474 L362 474 Z" stroke = "#000000" stroke-width = "1" fill = "none" />  <path d="M330.68872568444493 442.76996177748117           A11.66268450524333 11.66268450524333 0 0 1 347.1822522854386 442.7699617774811" fill = "none" stroke = "#000000" stroke-width = "1" />
  <path d="M330.688725684445 459.26348837847485           A11.66268450524333 11.66268450524333 0 0 1 330.68872568444493 442.76996177748117" fill = "none" stroke = "#000000" stroke-width = "1" />
  <path d="M347.18225228543866 459.2634883784748           A11.66268450524333 11.66268450524333 0 0 1 330.688725684445 459.26348837847485" fill = "none" stroke = "#000000" stroke-width = "1" />
	<path d = "M343 470 L347 459 L336 455 " stroke = "#000000" stroke-width = "1" fill = "none" />	<path d = "M409 474 L409 428 L362 428 L362 474 L409 474 Z" stroke = "#000000" stroke-width = "1" fill = "none" />	<path d = "M402 435 L386 451 L402 468 " stroke = "#000000" stroke-width = "1" fill = "none" />    <line x1="386" y1="451" x2="391" y2="451" style="stroke:#000000;stroke-width:1" />
    <line x1="397" y1="451" x2="403" y2="451" style="stroke:#000000;stroke-width:1" />
	<path d = "M456 474 L456 428 L409 428 L409 474 L456 474 Z" stroke = "#000000" stroke-width = "1" fill = "none" />  <path d="M423.99020172639155 442.769961777481           A11.66268450524333 11.66268450524333 0 0 1 440.4837283273852 442.76996177748094" fill = "none" stroke = "#000000" stroke-width = "1" />
  <path d="M423.9902017263916 459.2634883784747           A11.66268450524333 11.66268450524333 0 0 1 423.99020172639155 442.769961777481" fill = "none" stroke = "#000000" stroke-width = "1" />
  <path d="M440.4837283273853 459.2634883784746           A11.66268450524333 11.66268450524333 0 0 1 423.9902017263916 459.2634883784747" fill = "none" stroke = "#000000" stroke-width = "1" />
	<path d = "M436 470 L440 459 L430 455 " stroke = "#000000" stroke-width = "1" fill = "none" />	<path d = "M502 474 L502 428 L456 428 L456 474 L502 474 Z" stroke = "#000000" stroke-width = "1" fill = "none" />	<path d = "M502 474 L479 434 L456 474 " stroke = "#000000" stroke-width = "1" fill = "none" />    <line x1="479" y1="461" x2="479" y2="434" style="stroke:#000000;stroke-width:1" />
    <line x1="479" y1="461" x2="502" y2="474" style="stroke:#000000;stroke-width:1" />
    <line x1="479" y1="461" x2="456" y2="474" style="stroke:#000000;stroke-width:1" />
	<path d = "M549 474 L549 428 L502 428 L502 474 L549 474 Z" stroke = "#000000" stroke-width = "1" fill = "none" />    <line x1="537" y1="451" x2="514" y2="451" style="stroke:#000000;stroke-width:1" />
    <line x1="549" y1="474" x2="557" y2="466" style="stroke:#000000;stroke-width:1" />
    <line x1="561" y1="474" x2="569" y2="466" style="stroke:#000000;stroke-width:1" />
    <line x1="572" y1="474" x2="580" y2="466" style="stroke:#000000;stroke-width:1" />
    <line x1="584" y1="474" x2="592" y2="466" style="stroke:#000000;stroke-width:1" />
	<path d = "M596 474 L596 428 L549 428 L549 474 L596 474 Z" stroke = "#000000" stroke-width = "1" fill = "none" />    <line x1="561" y1="451" x2="584" y2="451" style="stroke:#000000;stroke-width:1" />
    <line x1="584" y1="451" x2="580" y2="455" style="stroke:#000000;stroke-width:1" />
    <line x1="584" y1="451" x2="580" y2="447" style="stroke:#000000;stroke-width:1" />
	<path d = "M642 474 L642 428 L596 428 L596 474 L642 474 Z" stroke = "#000000" stroke-width = "1" fill = "none" />  <path d="M627.0866804112783 459.26348837847166           A11.66268450524333 11.66268450524333 0 0 1 610.5931538102847 459.26348837847206" fill = "none" stroke = "#000000" stroke-width = "1" />
  <path d="M610.5931538102847 459.26348837847206           A11.66268450524333 11.66268450524333 0 0 1 610.5931538102842 442.7699617774784" fill = "none" stroke = "#000000" stroke-width = "1" />
  <path d="M610.5931538102842 442.7699617774784           A11.66268450524333 11.66268450524333 0 0 1 627.0866804112779 442.769961777478" fill = "none" stroke = "#000000" stroke-width = "1" />
	<path d = "M616 447 L627 443 L623 432 " stroke = "#000000" stroke-width = "1" fill = "none" />	<path d = "M689 474 L689 428 L642 428 L642 474 L689 474 Z" stroke = "#000000" stroke-width = "1" fill = "none" />  <path d="M673.7374184322515 459.2634883784707           A11.66268450524333 11.66268450524333 0 0 1 657.2438918312578 459.263488378471" fill = "none" stroke = "#000000" stroke-width = "1" />
  <path d="M657.2438918312578 459.263488378471           A11.66268450524333 11.66268450524333 0 0 1 657.2438918312575 442.7699617774773" fill = "none" stroke = "#000000" stroke-width = "1" />
  <path d="M657.2438918312575 442.7699617774773           A11.66268450524333 11.66268450524333 0 0 1 673.7374184322512 442.7699617774771" fill = "none" stroke = "#000000" stroke-width = "1" />
	<path d = "M663 447 L674 443 L669 432 " stroke = "#000000" stroke-width = "1" fill = "none" />    <line x1="689" y1="474" x2="697" y2="466" style="stroke:#000000;stroke-width:1" />
    <line x1="700" y1="474" x2="709" y2="466" style="stroke:#000000;stroke-width:1" />
    <line x1="712" y1="474" x2="720" y2="466" style="stroke:#000000;stroke-width:1" />
    <line x1="724" y1="474" x2="732" y2="466" style="stroke:#000000;stroke-width:1" />
	<path d = "M735 474 L735 428 L689 428 L689 474 L735 474 Z" stroke = "#000000" stroke-width = "1" fill = "none" />    <line x1="700" y1="451" x2="724" y2="451" style="stroke:#000000;stroke-width:1" />
    <line x1="724" y1="451" x2="720" y2="455" style="stroke:#000000;stroke-width:1" />
    <line x1="724" y1="451" x2="720" y2="447" style="stroke:#000000;stroke-width:1" />
	<path d = "M222 544 L222 498 L176 498 L176 544 L222 544 Z" stroke = "#000000" stroke-width = "1" fill = "none" />  <path d="M190.73651162152433 512.7460688089417           A11.66268450524333 11.66268450524333 0 0 1 207.230038222518 512.7460688089415" fill = "none" stroke = "#000000" stroke-width = "1" />
  <path d="M190.73651162152458 529.2395954099353           A11.66268450524333 11.66268450524333 0 0 1 190.73651162152433 512.7460688089417" fill = "none" stroke = "#000000" stroke-width = "1" />
  <path d="M207.23003822251826 529.2395954099351           A11.66268450524333 11.66268450524333 0 0 1 190.73651162152458 529.2395954099353" fill = "none" stroke = "#000000" stroke-width = "1" />
	<path d = "M203 540 L207 529 L196 525 " stroke = "#000000" stroke-width = "1" fill = "none" />	<path d = "M269 544 L269 498 L222 498 L222 544 L269 544 Z" stroke = "#000000" stroke-width = "1" fill = "none" />  <path d="M237.38724964249758 512.7460688089411           A11.66268450524333 11.66268450524333 0 0 1 253.8807762434912 512.7460688089405" fill = "none" stroke = "#000000" stroke-width = "1" />
  <path d="M237.38724964249795 529.2395954099347           A11.66268450524333 11.66268450524333 0 0 1 237.38724964249758 512.7460688089411" fill = "none" stroke = "#000000" stroke-width = "1" />
  <path d="M253.88077624349157 529.2395954099344           A11.66268450524333 11.66268450524333 0 0 1 237.38724964249795 529.2395954099347" fill = "none" stroke = "#000000" stroke-width = "1" />
	<path d = "M249 540 L254 529 L243 525 " stroke = "#000000" stroke-width = "1" fill = "none" />	<path d = "M316 544 L316 498 L269 498 L269 544 L316 544 Z" stroke = "#000000" stroke-width = "1" fill = "none" />  <path d="M284.03798766347063 512.74606880894           A11.66268450524333 11.66268450524333 0 0 1 300.53151426446425 512.7460688089394" fill = "none" stroke = "#000000" stroke-width = "1" />
  <path d="M284.03798766347114 529.2395954099336           A11.66268450524333 11.66268450524333 0 0 1 284.03798766347063 512.74606880894" fill = "none" stroke = "#000000" stroke-width = "1" />
  <path d="M300.53151426446476 529.2395954099333           A11.66268450524333 11.66268450524333 0 0 1 284.03798766347114 529.2395954099336" fill = "none" stroke = "#000000" stroke-width = "1" />
	<path d = "M296 540 L301 529 L290 525 " stroke = "#000000" stroke-width = "1" fill = "none" />	<path d = "M362 544 L362 498 L316 498 L316 544 L362 544 Z" stroke = "#000000" stroke-width = "1" fill = "none" />    <line x1="339" y1="521" x2="339" y2="509" style="stroke:#000000;stroke-width:1" />
    <line x1="339" y1="521" x2="327" y2="521" style="stroke:#000000;stroke-width:1" />
    <line x1="339" y1="521" x2="339" y2="533" style="stroke:#000000;stroke-width:1" />
    <line x1="339" y1="521" x2="351" y2="521" style="stroke:#000000;stroke-width:1" />
    <line x1="362" y1="544" x2="371" y2="536" style="stroke:#000000;stroke-width:1" />
    <line x1="374" y1="544" x2="382" y2="536" style="stroke:#000000;stroke-width:1" />
    <line x1="386" y1="544" x2="394" y2="536" style="stroke:#000000;stroke-width:1" />
    <line x1="397" y1="544" x2="405" y2="536" style="stroke:#000000;stroke-width:1" />
	<path d = "M409 544 L409 498 L362 498 L362 544 L409 544 Z" stroke = "#000000" stroke-width = "1" fill = "none" />    <line x1="374" y1="521" x2="397" y2="521" style="stroke:#000000;stroke-width:1" />
    <line x1="397" y1="521" x2="393" y2="525" style="stroke:#000000;stroke-width:1" />
    <line x1="397" y1="521" x2="393" y2="517" style="stroke:#000000;stroke-width:1" />
	<path d = "M456 544 L456 498 L409 498 L409 544 L456 544 Z" stroke = "#000000" stroke-width = "1" fill = "none" />  <path d="M423.99020172639 512.7460688089338           A11.66268450524333 11.66268450524333 0 0 1 440.48372832738363 512.7460688089326" fill = "none" stroke = "#000000" stroke-width = "1" />
  <path d="M423.9902017263911 529.2395954099275           A11.66268450524333 11.66268450524333 0 0 1 423.99020172639 512.7460688089338" fill = "none" stroke = "#000000" stroke-width = "1" />
  <path d="M440.4837283273847 529.2395954099264           A11.66268450524333 11.66268450524333 0 0 1 423.9902017263911 529.2395954099275" fill = "none" stroke = "#000000" stroke-width = "1" />
	<path d = "M436 540 L440 529 L430 525 " stroke = "#000000" stroke-width = "1" fill = "none" />	<path d = "M502 544 L502 498 L456 498 L456 544 L502 544 Z" stroke = "#000000" stroke-width = "1" fill = "none" />  <path d="M470.6409397473631 512.7460688089305           A11.66268450524333 11.66268450524333 0 0 1 487.13446634835674 512.7460688089293" fill = "none" stroke = "#000000" stroke-width = "1" />
  <path d="M470.6409397473643 529.2395954099242           A11.66268450524333 11.66268450524333 0 0 1 470.6409397473631 512.7460688089305" fill = "none" stroke = "#000000" stroke-width = "1" />
  <path d="M487.13446634835793 529.2395954099231           A11.66268450524333 11.66268450524333 0 0 1 470.6409397473643 529.2395954099242" fill = "none" stroke = "#000000" stroke-width = "1" />
	<path d = "M483 540 L487 529 L476 525 " stroke = "#000000" stroke-width = "1" fill = "none" />    <line x1="502" y1="544" x2="510" y2="536" style="stroke:#000000;stroke-width:1" />
    <line x1="514" y1="544" x2="522" y2="536" style="stroke:#000000;stroke-width:1" />
    <line x1="526" y1="544" x2="534" y2="536" style="stroke:#000000;stroke-width:1" />
    <line x1="537" y1="544" x2="545" y2="536" style="stroke:#000000;stroke-width:1" />
	<path d = "M549 544 L549 498 L502 498 L502 544 L549 544 Z" stroke = "#000000" stroke-width = "1" fill = "none" />    <line x1="514" y1="521" x2="537" y2="521" style="stroke:#000000;stroke-width:1" />
    <line x1="537" y1="521" x2="533" y2="525" style="stroke:#000000;stroke-width:1" />
    <line x1="537" y1="521" x2="533" y2="517" style="stroke:#000000;stroke-width:1" />
	<path d = "M596 544 L596 498 L549 498 L549 544 L596 544 Z" stroke = "#000000" stroke-width = "1" fill = "none" />  <path d="M580.4359423903043 529.2395954099155           A11.66268450524333 11.66268450524333 0 0 1 563.9424157893106 529.2395954099165" fill = "none" stroke = "#000000" stroke-width = "1" />
  <path d="M563.9424157893106 529.2395954099165           A11.66268450524333 11.66268450524333 0 0 1 563.9424157893094 512.7460688089229" fill = "none" stroke = "#000000" stroke-width = "1" />
  <path d="M563.9424157893094 512.7460688089229           A11.66268450524333 11.66268450524333 0 0 1 580.435942390303 512.7460688089217" fill = "none" stroke = "#000000" stroke-width = "1" />
	<path d = "M570 517 L580 513 L576 502 " stroke = "#000000" stroke-width = "1" fill = "none" />	<path d = "M642 544 L642 498 L596 498 L596 544 L642 544 Z" stroke = "#000000" stroke-width = "1" fill = "none" />  <path d="M627.0866804112776 529.2395954099118           A11.66268450524333 11.66268450524333 0 0 1 610.593153810284 529.2395954099128" fill = "none" stroke = "#000000" stroke-width = "1" />
  <path d="M610.593153810284 529.2395954099128           A11.66268450524333 11.66268450524333 0 0 1 610.5931538102827 512.7460688089192" fill = "none" stroke = "#000000" stroke-width = "1" />
  <path d="M610.5931538102827 512.7460688089192           A11.66268450524333 11.66268450524333 0 0 1 627.0866804112763 512.7460688089179" fill = "none" stroke = "#000000" stroke-width = "1" />
	<path d = "M616 517 L627 513 L623 502 " stroke = "#000000" stroke-width = "1" fill = "none" />	<path d = "M689 544 L689 498 L642 498 L642 544 L689 544 Z" stroke = "#000000" stroke-width = "1" fill = "none" />  <path d="M673.7374184322509 529.239595409908           A11.66268450524333 11.66268450524333 0 0 1 657.2438918312573 529.239595409909" fill = "none" stroke = "#000000" stroke-width = "1" />
  <path d="M657.2438918312573 529.239595409909           A11.66268450524333 11.66268450524333 0 0 1 657.2438918312561 512.7460688089154" fill = "none" stroke = "#000000" stroke-width = "1" />
  <path d="M657.2438918312561 512.7460688089154           A11.66268450524333 11.66268450524333 0 0 1 673.7374184322497 512.7460688089142" fill = "none" stroke = "#000000" stroke-width = "1" />
	<path d = "M663 517 L674 513 L669 502 " stroke = "#000000" stroke-width = "1" fill = "none" />	<path d = "M735 544 L735 498 L689 498 L689 544 L735 544 Z" stroke = "#000000" stroke-width = "1" fill = "none" />    <line x1="724" y1="521" x2="700" y2="521" style="stroke:#000000;stroke-width:1" />
    <line x1="176" y1="614" x2="184" y2="606" style="stroke:#000000;stroke-width:1" />
    <line x1="187" y1="614" x2="196" y2="606" style="stroke:#000000;stroke-width:1" />
    <line x1="199" y1="614" x2="207" y2="606" style="stroke:#000000;stroke-width:1" />
    <line x1="211" y1="614" x2="219" y2="606" style="stroke:#000000;stroke-width:1" />
	<path d = "M222 614 L222 568 L176 568 L176 614 L222 614 Z" stroke = "#000000" stroke-width = "1" fill = "none" />    <line x1="187" y1="591" x2="211" y2="591" style="stroke:#000000;stroke-width:1" />
    <line x1="211" y1="591" x2="207" y2="595" style="stroke:#000000;stroke-width:1" />
    <line x1="211" y1="591" x2="207" y2="587" style="stroke:#000000;stroke-width:1" />
	<path d = "M269 614 L269 568 L222 568 L222 614 L269 614 Z" stroke = "#000000" stroke-width = "1" fill = "none" />  <path d="M237.38724964250025 582.722175840394           A11.66268450524333 11.66268450524333 0 0 1 253.88077624349387 582.7221758403934" fill = "none" stroke = "#000000" stroke-width = "1" />
  <path d="M237.38724964250073 599.2157024413876           A11.66268450524333 11.66268450524333 0 0 1 237.38724964250025 582.722175840394" fill = "none" stroke = "#000000" stroke-width = "1" />
  <path d="M253.88077624349435 599.2157024413873           A11.66268450524333 11.66268450524333 0 0 1 237.38724964250073 599.2157024413876" fill = "none" stroke = "#000000" stroke-width = "1" />
	<path d = "M249 610 L254 599 L243 595 " stroke = "#000000" stroke-width = "1" fill = "none" />	<path d = "M316 614 L316 568 L269 568 L269 614 L316 614 Z" stroke = "#000000" stroke-width = "1" fill = "none" />  <path d="M284.03798766347353 582.7221758403921           A11.66268450524333 11.66268450524333 0 0 1 300.53151426446715 582.7221758403919" fill = "none" stroke = "#000000" stroke-width = "1" />
  <path d="M284.03798766347364 599.2157024413857           A11.66268450524333 11.66268450524333 0 0 1 284.03798766347353 582.7221758403921" fill = "none" stroke = "#000000" stroke-width = "1" />
  <path d="M300.53151426446726 599.2157024413856           A11.66268450524333 11.66268450524333 0 0 1 284.03798766347364 599.2157024413857" fill = "none" stroke = "#000000" stroke-width = "1" />
	<path d = "M296 610 L301 599 L290 595 " stroke = "#000000" stroke-width = "1" fill = "none" />	<path d = "M362 614 L362 568 L316 568 L316 614 L362 614 Z" stroke = "#000000" stroke-width = "1" fill = "none" />  <path d="M330.68872568444687 582.7221758403908           A11.66268450524333 11.66268450524333 0 0 1 347.1822522854405 582.722175840391" fill = "none" stroke = "#000000" stroke-width = "1" />
  <path d="M330.68872568444664 599.2157024413845           A11.66268450524333 11.66268450524333 0 0 1 330.68872568444687 582.7221758403908" fill = "none" stroke = "#000000" stroke-width = "1" />
  <path d="M347.18225228544026 599.2157024413848           A11.66268450524333 11.66268450524333 0 0 1 330.68872568444664 599.2157024413845" fill = "none" stroke = "#000000" stroke-width = "1" />
	<path d = "M343 610 L347 599 L336 595 " stroke = "#000000" stroke-width = "1" fill = "none" />	<path d = "M409 614 L409 568 L362 568 L362 614 L409 614 Z" stroke = "#000000" stroke-width = "1" fill = "none" />  <path d="M377.3394637054201 582.7221758403905           A11.66268450524333 11.66268450524333 0 0 1 393.8329903064137 582.7221758403911" fill = "none" stroke = "#000000" stroke-width = "1" />
  <path d="M377.3394637054195 599.2157024413841           A11.66268450524333 11.66268450524333 0 0 1 377.3394637054201 582.7221758403905" fill = "none" stroke = "#000000" stroke-width = "1" />
  <path d="M393.83299030641314 599.2157024413848           A11.66268450524333 11.66268450524333 0 0 1 377.3394637054195 599.2157024413841" fill = "none" stroke = "#000000" stroke-width = "1" />
	<path d = "M389 610 L394 599 L383 595 " stroke = "#000000" stroke-width = "1" fill = "none" />	<path d = "M456 614 L456 568 L409 568 L409 614 L456 614 Z" stroke = "#000000" stroke-width = "1" fill = "none" />  <path d="M440.48372832738625 599.2157024413855           A11.66268450524333 11.66268450524333 0 0 1 423.9902017263926 599.2157024413848" fill = "none" stroke = "#000000" stroke-width = "1" />
  <path d="M423.9902017263926 599.2157024413848           A11.66268450524333 11.66268450524333 0 0 1 423.9902017263932 582.7221758403912" fill = "none" stroke = "#000000" stroke-width = "1" />
  <path d="M423.9902017263932 582.7221758403912           A11.66268450524333 11.66268450524333 0 0 1 440.4837283273868 582.7221758403917" fill = "none" stroke = "#000000" stroke-width = "1" />
	<path d = "M430 587 L440 583 L436 572 " stroke = "#000000" stroke-width = "1" fill = "none" />	<path d = "M502 614 L502 568 L456 568 L456 614 L502 614 Z" stroke = "#000000" stroke-width = "1" fill = "none" />  <path d="M487.1344663483596 599.2157024413863           A11.66268450524333 11.66268450524333 0 0 1 470.64093974736596 599.2157024413856" fill = "none" stroke = "#000000" stroke-width = "1" />
  <path d="M470.64093974736596 599.2157024413856           A11.66268450524333 11.66268450524333 0 0 1 470.64093974736653 582.722175840392" fill = "none" stroke = "#000000" stroke-width = "1" />
  <path d="M470.64093974736653 582.722175840392           A11.66268450524333 11.66268450524333 0 0 1 487.13446634836015 582.7221758403925" fill = "none" stroke = "#000000" stroke-width = "1" />
	<path d = "M476 587 L487 583 L483 572 " stroke = "#000000" stroke-width = "1" fill = "none" />    <line x1="502" y1="614" x2="510" y2="606" style="stroke:#000000;stroke-width:1" />
    <line x1="514" y1="614" x2="522" y2="606" style="stroke:#000000;stroke-width:1" />
    <line x1="526" y1="614" x2="534" y2="606" style="stroke:#000000;stroke-width:1" />
    <line x1="537" y1="614" x2="545" y2="606" style="stroke:#000000;stroke-width:1" />
	<path d = "M549 614 L549 568 L502 568 L502 614 L549 614 Z" stroke = "#000000" stroke-width = "1" fill = "none" />    <line x1="514" y1="591" x2="537" y2="591" style="stroke:#000000;stroke-width:1" />
    <line x1="537" y1="591" x2="533" y2="595" style="stroke:#000000;stroke-width:1" />
    <line x1="537" y1="591" x2="533" y2="587" style="stroke:#000000;stroke-width:1" />
	<path d = "M596 614 L596 568 L549 568 L549 614 L596 614 Z" stroke = "#000000" stroke-width = "1" fill = "none" />  <path d="M563.9424157893133 582.7221758403933           A11.66268450524333 11.66268450524333 0 0 1 580.4359423903069 582.7221758403941" fill = "none" stroke = "#000000" stroke-width = "1" />
  <path d="M563.9424157893122 599.215702441387           A11.66268450524333 11.66268450524333 0 0 1 563.9424157893133 582.7221758403933" fill = "none" stroke = "#000000" stroke-width = "1" />
  <path d="M580.4359423903059 599.215702441388           A11.66268450524333 11.66268450524333 0 0 1 563.9424157893122 599.215702441387" fill = "none" stroke = "#000000" stroke-width = "1" />
	<path d = "M576 610 L580 599 L570 595 " stroke = "#000000" stroke-width = "1" fill = "none" />	<path d = "M642 614 L642 568 L596 568 L596 614 L642 614 Z" stroke = "#000000" stroke-width = "1" fill = "none" />  <path d="M610.5931538102864 582.722175840395           A11.66268450524333 11.66268450524333 0 0 1 627.08668041128 582.7221758403963" fill = "none" stroke = "#000000" stroke-width = "1" />
  <path d="M610.5931538102851 599.2157024413887           A11.66268450524333 11.66268450524333 0 0 1 610.5931538102864 582.722175840395" fill = "none" stroke = "#000000" stroke-width = "1" />
  <path d="M627.0866804112787 599.2157024413901           A11.66268450524333 11.66268450524333 0 0 1 610.5931538102851 599.2157024413887" fill = "none" stroke = "#000000" stroke-width = "1" />
	<path d = "M623 610 L627 599 L616 595 " stroke = "#000000" stroke-width = "1" fill = "none" />	<path d = "M689 614 L689 568 L642 568 L642 614 L689 614 Z" stroke = "#000000" stroke-width = "1" fill = "none" />  <path d="M657.2438918312597 582.722175840398           A11.66268450524333 11.66268450524333 0 0 1 673.7374184322533 582.7221758403995" fill = "none" stroke = "#000000" stroke-width = "1" />
  <path d="M657.243891831258 599.2157024413916           A11.66268450524333 11.66268450524333 0 0 1 657.2438918312597 582.722175840398" fill = "none" stroke = "#000000" stroke-width = "1" />
  <path d="M673.7374184322516 599.2157024413933           A11.66268450524333 11.66268450524333 0 0 1 657.243891831258 599.2157024413916" fill = "none" stroke = "#000000" stroke-width = "1" />
	<path d = "M669 610 L674 599 L663 595 " stroke = "#000000" stroke-width = "1" fill = "none" />	<path d = "M735 614 L735 568 L689 568 L689 614 L735 614 Z" stroke = "#000000" stroke-width = "1" fill = "none" />    <line x1="712" y1="591" x2="712" y2="579" style="stroke:#000000;stroke-width:1" />
    <line x1="712" y1="591" x2="700" y2="591" style="stroke:#000000;stroke-width:1" />
    <line x1="712" y1="591" x2="712" y2="603" style="stroke:#000000;stroke-width:1" />
    <line x1="712" y1="591" x2="724" y2="591" style="stroke:#000000;stroke-width:1" />
    <line x1="176" y1="684" x2="184" y2="676" style="stroke:#000000;stroke-width:1" />
    <line x1="187" y1="684" x2="196" y2="676" style="stroke:#000000;stroke-width:1" />
    <line x1="199" y1="684" x2="207" y2="676" style="stroke:#000000;stroke-width:1" />
    <line x1="211" y1="684" x2="219" y2="676" style="stroke:#000000;stroke-width:1" />
	<path d = "M222 684 L222 638 L176 638 L176 684 L222 684 Z" stroke = "#000000" stroke-width = "1" fill = "none" />    <line x1="187" y1="661" x2="211" y2="661" style="stroke:#000000;stroke-width:1" />
    <line x1="211" y1="661" x2="207" y2="665" style="stroke:#000000;stroke-width:1" />
    <line x1="211" y1="661" x2="207" y2="657" style="stroke:#000000;stroke-width:1" />
	<path d = "M269 684 L269 638 L222 638 L222 684 L269 684 Z" stroke = "#000000" stroke-width = "1" fill = "none" />  <path d="M237.38724964249053 652.6982828718017           A11.66268450524333 11.66268450524333 0 0 1 253.88077624348415 652.698282871804" fill = "none" stroke = "#000000" stroke-width = "1" />
  <path d="M237.38724964248806 669.1918094727953           A11.66268450524333 11.66268450524333 0 0 1 237.38724964249053 652.6982828718017" fill = "none" stroke = "#000000" stroke-width = "1" />
  <path d="M253.88077624348168 669.1918094727979           A11.66268450524333 11.66268450524333 0 0 1 237.38724964248806 669.1918094727953" fill = "none" stroke = "#000000" stroke-width = "1" />
	<path d = "M249 680 L254 669 L243 665 " stroke = "#000000" stroke-width = "1" fill = "none" />	<path d = "M316 684 L316 638 L269 638 L269 684 L316 684 Z" stroke = "#000000" stroke-width = "1" fill = "none" />  <path d="M284.0379876634645 652.6982828718097           A11.66268450524333 11.66268450524333 0 0 1 300.53151426445817 652.6982828718135" fill = "none" stroke = "#000000" stroke-width = "1" />
  <path d="M284.03798766346074 669.1918094728034           A11.66268450524333 11.66268450524333 0 0 1 284.0379876634645 652.6982828718097" fill = "none" stroke = "#000000" stroke-width = "1" />
  <path d="M300.53151426445436 669.1918094728072           A11.66268450524333 11.66268450524333 0 0 1 284.03798766346074 669.1918094728034" fill = "none" stroke = "#000000" stroke-width = "1" />
	<path d = "M296 680 L301 669 L290 665 " stroke = "#000000" stroke-width = "1" fill = "none" />    <line x1="316" y1="684" x2="324" y2="676" style="stroke:#000000;stroke-width:1" />
    <line x1="327" y1="684" x2="336" y2="676" style="stroke:#000000;stroke-width:1" />
    <line x1="339" y1="684" x2="347" y2="676" style="stroke:#000000;stroke-width:1" />
    <line x1="351" y1="684" x2="359" y2="676" style="stroke:#000000;stroke-width:1" />
	<path d = "M362 684 L362 638 L316 638 L316 684 L362 684 Z" stroke = "#000000" stroke-width = "1" fill = "none" />    <line x1="327" y1="661" x2="351" y2="661" style="stroke:#000000;stroke-width:1" />
    <line x1="351" y1="661" x2="346" y2="665" style="stroke:#000000;stroke-width:1" />
    <line x1="351" y1="661" x2="346" y2="657" style="stroke:#000000;stroke-width:1" />
	<path d = "M409 684 L409 638 L362 638 L362 684 L409 684 Z" stroke = "#000000" stroke-width = "1" fill = "none" />  <path d="M393.8329903064005 669.1918094728322           A11.66268450524333 11.66268450524333 0 0 1 377.3394637054069 669.1918094728273" fill = "none" stroke = "#000000" stroke-width = "1" />
  <path d="M377.3394637054069 669.1918094728273           A11.66268450524333 11.66268450524333 0 0 1 377.3394637054116 652.6982828718337" fill = "none" stroke = "#000000" stroke-width = "1" />
  <path d="M377.3394637054116 652.6982828718337           A11.66268450524333 11.66268450524333 0 0 1 393.83299030640524 652.6982828718384" fill = "none" stroke = "#000000" stroke-width = "1" />
	<path d = "M383 657 L394 653 L389 642 " stroke = "#000000" stroke-width = "1" fill = "none" />	<path d = "M456 684 L456 638 L409 638 L409 684 L456 684 Z" stroke = "#000000" stroke-width = "1" fill = "none" />  <path d="M440.483728327374 669.1918094728433           A11.66268450524333 11.66268450524333 0 0 1 423.9902017263804 669.1918094728388" fill = "none" stroke = "#000000" stroke-width = "1" />
  <path d="M423.9902017263804 669.1918094728388           A11.66268450524333 11.66268450524333 0 0 1 423.99020172638467 652.6982828718452" fill = "none" stroke = "#000000" stroke-width = "1" />
  <path d="M423.99020172638467 652.6982828718452           A11.66268450524333 11.66268450524333 0 0 1 440.4837283273783 652.6982828718494" fill = "none" stroke = "#000000" stroke-width = "1" />
	<path d = "M430 657 L440 653 L436 642 " stroke = "#000000" stroke-width = "1" fill = "none" />	<path d = "M502 684 L502 638 L456 638 L456 684 L502 684 Z" stroke = "#000000" stroke-width = "1" fill = "none" />  <path d="M487.1344663483476 669.191809472853           A11.66268450524333 11.66268450524333 0 0 1 470.64093974735397 669.1918094728492" fill = "none" stroke = "#000000" stroke-width = "1" />
  <path d="M470.64093974735397 669.1918094728492           A11.66268450524333 11.66268450524333 0 0 1 470.6409397473577 652.6982828718556" fill = "none" stroke = "#000000" stroke-width = "1" />
  <path d="M470.6409397473577 652.6982828718556           A11.66268450524333 11.66268450524333 0 0 1 487.1344663483514 652.6982828718593" fill = "none" stroke = "#000000" stroke-width = "1" />
	<path d = "M476 657 L487 653 L483 642 " stroke = "#000000" stroke-width = "1" fill = "none" />	<path d = "M549 684 L549 638 L502 638 L502 684 L549 684 Z" stroke = "#000000" stroke-width = "1" fill = "none" />    <line x1="537" y1="661" x2="514" y2="661" style="stroke:#000000;stroke-width:1" />
    <line x1="549" y1="684" x2="557" y2="676" style="stroke:#000000;stroke-width:1" />
    <line x1="561" y1="684" x2="569" y2="676" style="stroke:#000000;stroke-width:1" />
    <line x1="572" y1="684" x2="580" y2="676" style="stroke:#000000;stroke-width:1" />
    <line x1="584" y1="684" x2="592" y2="676" style="stroke:#000000;stroke-width:1" />
	<path d = "M596 684 L596 638 L549 638 L549 684 L596 684 Z" stroke = "#000000" stroke-width = "1" fill = "none" />    <line x1="561" y1="661" x2="584" y2="661" style="stroke:#000000;stroke-width:1" />
    <line x1="584" y1="661" x2="580" y2="665" style="stroke:#000000;stroke-width:1" />
    <line x1="584" y1="661" x2="580" y2="657" style="stroke:#000000;stroke-width:1" />
	<path d = "M642 684 L642 638 L596 638 L596 684 L642 684 Z" stroke = "#000000" stroke-width = "1" fill = "none" />  <path d="M610.5931538102775 652.6982828718836           A11.66268450524333 11.66268450524333 0 0 1 627.0866804112711 652.6982828718876" fill = "none" stroke = "#000000" stroke-width = "1" />
  <path d="M610.5931538102735 669.1918094728773           A11.66268450524333 11.66268450524333 0 0 1 610.5931538102775 652.6982828718836" fill = "none" stroke = "#000000" stroke-width = "1" />
  <path d="M627.0866804112671 669.1918094728815           A11.66268450524333 11.66268450524333 0 0 1 610.5931538102735 669.1918094728773" fill = "none" stroke = "#000000" stroke-width = "1" />
	<path d = "M623 680 L627 669 L616 665 " stroke = "#000000" stroke-width = "1" fill = "none" />	<path d = "M689 684 L689 638 L642 638 L642 684 L689 684 Z" stroke = "#000000" stroke-width = "1" fill = "none" />  <path d="M657.2438918312514 652.6982828718964           A11.66268450524333 11.66268450524333 0 0 1 673.737418432245 652.6982828719016" fill = "none" stroke = "#000000" stroke-width = "1" />
  <path d="M657.2438918312461 669.19180947289           A11.66268450524333 11.66268450524333 0 0 1 657.2438918312514 652.6982828718964" fill = "none" stroke = "#000000" stroke-width = "1" />
  <path d="M673.7374184322397 669.1918094728953           A11.66268450524333 11.66268450524333 0 0 1 657.2438918312461 669.19180947289" fill = "none" stroke = "#000000" stroke-width = "1" />
	<path d = "M669 680 L674 669 L663 665 " stroke = "#000000" stroke-width = "1" fill = "none" />    <line x1="689" y1="684" x2="697" y2="676" style="stroke:#000000;stroke-width:1" />
    <line x1="700" y1="684" x2="709" y2="676" style="stroke:#000000;stroke-width:1" />
    <line x1="712" y1="684" x2="720" y2="676" style="stroke:#000000;stroke-width:1" />
    <line x1="724" y1="684" x2="732" y2="676" style="stroke:#000000;stroke-width:1" />
	<path d = "M735 684 L735 638 L689 638 L689 684 L735 684 Z" stroke = "#000000" stroke-width = "1" fill = "none" />    <line x1="700" y1="661" x2="724" y2="661" style="stroke:#000000;stroke-width:1" />
    <line x1="724" y1="661" x2="720" y2="665" style="stroke:#000000;stroke-width:1" />
    <line x1="724" y1="661" x2="720" y2="657" style="stroke:#000000;stroke-width:1" />
    <line x1="176" y1="754" x2="184" y2="746" style="stroke:#000000;stroke-width:1" />
    <line x1="187" y1="754" x2="196" y2="746" style="stroke:#000000;stroke-width:1" />
    <line x1="199" y1="754" x2="207" y2="746" style="stroke:#000000;stroke-width:1" />
    <line x1="211" y1="754" x2="219" y2="746" style="stroke:#000000;stroke-width:1" />
	<path d = "M222 754 L222 708 L176 708 L176 754 L222 754 Z" stroke = "#000000" stroke-width = "1" fill = "none" />    <line x1="187" y1="731" x2="211" y2="731" style="stroke:#000000;stroke-width:1" />
    <line x1="211" y1="731" x2="207" y2="735" style="stroke:#000000;stroke-width:1" />
    <line x1="211" y1="731" x2="207" y2="727" style="stroke:#000000;stroke-width:1" />
	<path d = "M269 754 L269 708 L222 708 L222 754 L269 754 Z" stroke = "#000000" stroke-width = "1" fill = "none" />  <path d="M237.38724964246583 722.6743899031927           A11.66268450524333 11.66268450524333 0 0 1 253.88077624345945 722.6743899031992" fill = "none" stroke = "#000000" stroke-width = "1" />
  <path d="M237.3872496424592 739.1679165041863           A11.66268450524333 11.66268450524333 0 0 1 237.38724964246583 722.6743899031927" fill = "none" stroke = "#000000" stroke-width = "1" />
  <path d="M253.88077624345283 739.167916504193           A11.66268450524333 11.66268450524333 0 0 1 237.3872496424592 739.1679165041863" fill = "none" stroke = "#000000" stroke-width = "1" />
	<path d = "M249 750 L254 739 L243 735 " stroke = "#000000" stroke-width = "1" fill = "none" />	<path d = "M316 754 L316 708 L269 708 L269 754 L316 754 Z" stroke = "#000000" stroke-width = "1" fill = "none" />  <path d="M284.03798766343976 722.6743899032124           A11.66268450524333 11.66268450524333 0 0 1 300.5315142644334 722.6743899032202" fill = "none" stroke = "#000000" stroke-width = "1" />
  <path d="M284.03798766343186 739.167916504206           A11.66268450524333 11.66268450524333 0 0 1 284.03798766343976 722.6743899032124" fill = "none" stroke = "#000000" stroke-width = "1" />
  <path d="M300.5315142644255 739.1679165042141           A11.66268450524333 11.66268450524333 0 0 1 284.03798766343186 739.167916504206" fill = "none" stroke = "#000000" stroke-width = "1" />
	<path d = "M296 750 L301 739 L290 735 " stroke = "#000000" stroke-width = "1" fill = "none" />    <line x1="316" y1="754" x2="324" y2="746" style="stroke:#000000;stroke-width:1" />
    <line x1="327" y1="754" x2="336" y2="746" style="stroke:#000000;stroke-width:1" />
    <line x1="339" y1="754" x2="347" y2="746" style="stroke:#000000;stroke-width:1" />
    <line x1="351" y1="754" x2="359" y2="746" style="stroke:#000000;stroke-width:1" />
	<path d = "M362 754 L362 708 L316 708 L316 754 L362 754 Z" stroke = "#000000" stroke-width = "1" fill = "none" />    <line x1="327" y1="731" x2="351" y2="731" style="stroke:#000000;stroke-width:1" />
    <line x1="351" y1="731" x2="346" y2="735" style="stroke:#000000;stroke-width:1" />
    <line x1="351" y1="731" x2="346" y2="727" style="stroke:#000000;stroke-width:1" />
	<path d = "M409 754 L409 708 L362 708 L362 754 L409 754 Z" stroke = "#000000" stroke-width = "1" fill = "none" />  <path d="M377.3394637053871 722.6743899032599           A11.66268450524333 11.66268450524333 0 0 1 393.83299030638074 722.674389903269" fill = "none" stroke = "#000000" stroke-width = "1" />
  <path d="M377.3394637053779 739.1679165042535           A11.66268450524333 11.66268450524333 0 0 1 377.3394637053871 722.6743899032599" fill = "none" stroke = "#000000" stroke-width = "1" />
  <path d="M393.8329903063715 739.1679165042627           A11.66268450524333 11.66268450524333 0 0 1 377.3394637053779 739.1679165042535" fill = "none" stroke = "#000000" stroke-width = "1" />
	<path d = "M389 750 L394 739 L383 735 " stroke = "#000000" stroke-width = "1" fill = "none" />	<path d = "M456 754 L456 708 L409 708 L409 754 L456 754 Z" stroke = "#000000" stroke-width = "1" fill = "none" />  <path d="M423.9902017263611 722.6743899032869           A11.66268450524333 11.66268450524333 0 0 1 440.48372832735475 722.6743899032972" fill = "none" stroke = "#000000" stroke-width = "1" />
  <path d="M423.9902017263506 739.1679165042805           A11.66268450524333 11.66268450524333 0 0 1 423.9902017263611 722.6743899032869" fill = "none" stroke = "#000000" stroke-width = "1" />
  <path d="M440.48372832734424 739.167916504291           A11.66268450524333 11.66268450524333 0 0 1 423.9902017263506 739.1679165042805" fill = "none" stroke = "#000000" stroke-width = "1" />
	<path d = "M436 750 L440 739 L430 735 " stroke = "#000000" stroke-width = "1" fill = "none" />	<path d = "M502 754 L502 708 L456 708 L456 754 L502 754 Z" stroke = "#000000" stroke-width = "1" fill = "none" />  <path d="M470.64093974733515 722.6743899033175           A11.66268450524333 11.66268450524333 0 0 1 487.1344663483288 722.6743899033293" fill = "none" stroke = "#000000" stroke-width = "1" />
  <path d="M470.6409397473234 739.1679165043112           A11.66268450524333 11.66268450524333 0 0 1 470.64093974733515 722.6743899033175" fill = "none" stroke = "#000000" stroke-width = "1" />
  <path d="M487.134466348317 739.1679165043231           A11.66268450524333 11.66268450524333 0 0 1 470.6409397473234 739.1679165043112" fill = "none" stroke = "#000000" stroke-width = "1" />
	<path d = "M483 750 L487 739 L476 735 " stroke = "#000000" stroke-width = "1" fill = "none" />	<path d = "M549 754 L549 708 L502 708 L502 754 L549 754 Z" stroke = "#000000" stroke-width = "1" fill = "none" />    <line x1="526" y1="731" x2="526" y2="719" style="stroke:#000000;stroke-width:1" />
    <line x1="526" y1="731" x2="514" y2="731" style="stroke:#000000;stroke-width:1" />
    <line x1="526" y1="731" x2="526" y2="743" style="stroke:#000000;stroke-width:1" />
    <line x1="526" y1="731" x2="537" y2="731" style="stroke:#000000;stroke-width:1" />
    <line x1="549" y1="754" x2="557" y2="746" style="stroke:#000000;stroke-width:1" />
    <line x1="561" y1="754" x2="569" y2="746" style="stroke:#000000;stroke-width:1" />
    <line x1="572" y1="754" x2="580" y2="746" style="stroke:#000000;stroke-width:1" />
    <line x1="584" y1="754" x2="592" y2="746" style="stroke:#000000;stroke-width:1" />
	<path d = "M596 754 L596 708 L549 708 L549 754 L596 754 Z" stroke = "#000000" stroke-width = "1" fill = "none" />    <line x1="561" y1="731" x2="584" y2="731" style="stroke:#000000;stroke-width:1" />
    <line x1="584" y1="731" x2="580" y2="735" style="stroke:#000000;stroke-width:1" />
    <line x1="584" y1="731" x2="580" y2="727" style="stroke:#000000;stroke-width:1" />
    <line x1="596" y1="754" x2="604" y2="746" style="stroke:#000000;stroke-width:1" />
    <line x1="607" y1="754" x2="615" y2="746" style="stroke:#000000;stroke-width:1" />
    <line x1="619" y1="754" x2="627" y2="746" style="stroke:#000000;stroke-width:1" />
    <line x1="631" y1="754" x2="639" y2="746" style="stroke:#000000;stroke-width:1" />
	<path d = "M642 754 L642 708 L596 708 L596 754 L642 754 Z" stroke = "#000000" stroke-width = "1" fill = "none" />	<path d = "M607 719 L631 719 L631 743 " stroke = "#000000" stroke-width = "1" fill = "none" />	<path d = "M622 734 L631 743 L639 734 " stroke = "#000000" stroke-width = "1" fill = "none" /><circle cx="631" cy = "743" r = "1" stroke = "#000000" stroke-width = "1" fill = "#000000" />
	<path d = "M689 754 L689 708 L642 708 L642 754 L689 754 Z" stroke = "#000000" stroke-width = "1" fill = "none" />  <path d="M673.7374184322096 739.1679165044694           A11.66268450524333 11.66268450524333 0 0 1 657.2438918312159 739.1679165044559" fill = "none" stroke = "#000000" stroke-width = "1" />
  <path d="M657.2438918312159 739.1679165044559           A11.66268450524333 11.66268450524333 0 0 1 657.2438918312293 722.6743899034623" fill = "none" stroke = "#000000" stroke-width = "1" />
  <path d="M657.2438918312293 722.6743899034623           A11.66268450524333 11.66268450524333 0 0 1 673.737418432223 722.6743899034756" fill = "none" stroke = "#000000" stroke-width = "1" />
	<path d = "M663 727 L674 723 L669 712 " stroke = "#000000" stroke-width = "1" fill = "none" />	<path d = "M735 754 L735 708 L689 708 L689 754 L735 754 Z" stroke = "#000000" stroke-width = "1" fill = "none" />  <path d="M720.3881564531831 739.167916504505           A11.66268450524333 11.66268450524333 0 0 1 703.8946298521895 739.1679165044919" fill = "none" stroke = "#000000" stroke-width = "1" />
  <path d="M703.8946298521895 739.1679165044919           A11.66268450524333 11.66268450524333 0 0 1 703.8946298522025 722.6743899034983" fill = "none" stroke = "#000000" stroke-width = "1" />
  <path d="M703.8946298522025 722.6743899034983           A11.66268450524333 11.66268450524333 0 0 1 720.3881564531961 722.6743899035112" fill = "none" stroke = "#000000" stroke-width = "1" />
	<path d = "M710 727 L720 723 L716 712 " stroke = "#000000" stroke-width = "1" fill = "none" /><circle cx="759" cy = "731" r = "11.66268450524333" stroke = "#000000" stroke-width = "1" fill = "none" />
	<path d = "M557 233 L557 85 L471 85 L428 11 L300 85 L300 233 L214 233 L171 308 L300 382 L428 308 L471 382 L557 382 L642 382 L685 308 L557 233 Z" stroke = "#000000" stroke-width = "1" fill = "rgba(0, 0, 0, 0.314)" /></svg>