<svg width="600" height="200" viewbox = "0 0 600 200"  xmlns="http://www.w3.org/2000/svg">
<!--<json>{
  "glyph": "0330,0332,0336,0336,0336,0336,0331,0331,0331,0337,0337,0337,0331,0332,0332,0337,0331,0332,0332,0337,0224,",
  "x0": 300,
  "y0": 122.83553626126641,
  "unit": 73.20500000000004,
  "width": 600,
  "height": 200,
  "style": {
    "color0": "black",
    "fill0": "black",
    "line0": 1,
    "color1": "black",
    "fill1": "black",
    "line1": 5,
    "color2": "red",
    "fill2": "red",
    "line2": 1,
    "color3": "#FF7900",
    "fill3": "#FF7900",
    "line3": 1,
    "color4": "yellow",
    "fill4": "yellow",
    "line4": 1,
    "color5": "green",
    "fill5": "green",
    "line5": 1,
    "color6": "blue",
    "fill6": "blue",
    "line6": 1,
    "color7": "purple",
    "fill7": "purple",
    "line7": 1
  },
  "shapes": [
    "0220:0336,0331,0331,0332,0332,0336,0330,0333,0335,0362,0203,0203,0335,0203,0334,0203,0203,0334,0203,0335,0203,0203,0203,0334,0203,0203,0334,0203,0335,0203,0203,0335,0203,0334,0203,0203,0203,0334,0203,0203,0203,0203,0203,0203,0203,0334,0203,0203,0203,0335,0203,0334,0203,0203,0334,0203,0335,0203,0203,0354,0334,0334,0333,0333,0333,0331,0337,0337,0330,",
    "0221:0331,0332,0336,0336,0362,0203,0203,0203,0335,0203,0334,0203,0203,0334,0203,0335,0203,0203,0203,0335,0203,0203,0203,0335,0203,0334,0203,0203,0334,0203,0335,0203,0203,0203,0335,0203,0203,0203,0335,0203,0334,0203,0203,0334,0203,0335,0203,0203,0203,0335,0203,0203,0203,0335,0203,0334,0203,0203,0334,0203,0335,0203,0203,0203,0354,0335,0337,0337,0333,0330,",
    "0222:0332,0362,0203,0335,0203,0203,0335,0203,0364,0335,0335,0336,0336,0332,0350,0310,0335,0337,0342,0336,0335,0331,0334,0337,0362,0203,0203,0364,0334,0336,0330,0335,0337,0335,0335,0335,0335,0362,0203,0203,0203,0364,0335,0336,0330,0335,0335,0335,0337,0362,0203,0203,0203,0203,0364,0335,0336,0331,0334,0335,0335,0335,0335,0337,0362,0203,0203,0203,0203,0364,0335,0336,0330,0335,0335,0335,0337,0362,0203,0203,0203,0203,0364,0335,0336,0331,0334,0337,0335,0335,0335,0335,0362,0203,0203,0203,0203,0364,0335,0336,0330,0335,0335,0335,0337,0362,0203,0203,0203,0203,0364,0335,0336,0331,0335,0335,0335,0337,0362,0203,0203,0203,0364,0335,0335,0335,0336,0330,0335,0337,0362,0203,0203,0364,0335,0336,0331,0335,0335,0335,0337,0342,0335,0336,0330,0335,0335,0304,0313,0337,0337,0331,0333,0337,",
    "0223:0336,0330,0336,0336,0336,0341,0337,0337,0337,0331,0337,",
    "0224:0362,0203,0335,0203,0203,0203,0203,0335,0203,0335,0203,0203,0203,0203,0354,0335,0322,0333,0342,0333,0342,0333,0342,0333,0336,0330,0334,0337,0201,0201,0201,0201,0335,0336,0331,0333,0333,0330,0332,0220,0333,0333,0333,0333,0333,0333,0221,0332,0332,0332,0331,0222,0332,0223,0332,0336,0333,0337,0223,0333,0223,0333,0223,0333,0223,0336,0332,0337,0223,0332,0223,0332,0332,0320,",
    "01220:0333,0200,0336,0330,0332,0220,0331,0333,0337,",
    "01221:0333,0200,0336,0330,0332,0221,0331,0333,0337,",
    "01222:0333,0200,0336,0336,0332,0332,0330,0222,0336,0331,0333,0336,0333,0333,0337,0337,0337,",
    "01223:0333,0200,0336,0332,0337,0223,0336,0333,0337,",
    "01224:0333,0200,0336,0330,0332,0336,0331,0332,0330,0331,0332,0224,",
    "01225:0333,0200,0336,0330,0332,0225,0331,0333,0337,",
    "01226:0333,0200,0336,0330,0332,0226,0331,0333,0337,",
    "01227:0333,0200,0336,0330,0332,0227,0331,0333,0337,",
    "01230:0333,0200,0336,0330,0332,0230,0331,0333,0337,",
    "01231:0333,0200,0336,0330,0332,0231,0331,0333,0337,",
    "01232:0333,0200,0336,0330,0332,0232,0331,0333,0337,",
    "01233:0333,0200,0336,0330,0332,0233,0331,0333,0337,",
    "01234:0333,0200,0336,0330,0332,0336,0234,0337,0331,0333,0337,",
    "01235:0333,0200,0336,0330,0332,0336,0336,0235,0337,0337,0331,0333,0337,",
    "01236:0333,0200,",
    "01237:0333,0200,",
    "0240:0220,0336,0331,0333,0336,0321,0335,0342,0335,0335,0342,0335,0330,0330,0332,0332,0337,0337,",
    "01240:0333,0200,0336,0330,0332,0210,0240,0211,0333,0331,0337,",
    "0241:0220,0336,0321,0343,0332,0350,0335,0336,0342,0334,0334,0342,0335,0304,0337,0333,0337,",
    "01241:0333,0200,0336,0332,0330,0210,0241,0211,0333,0331,0337,",
    "0242:0220,0321,0336,0343,0333,0336,0350,0335,0342,0334,0334,0342,0335,0337,0304,0332,0337,",
    "01242:0333,0200,0336,0330,0332,0210,0242,0211,0333,0331,0337,",
    "0243:0220,0336,0331,0332,0336,0321,0343,0332,0350,0334,0336,0342,0335,0335,0342,0337,0334,0334,0335,0304,0332,0330,0330,0337,0337,0333,",
    "01243:0333,0200,0336,0330,0332,0210,0243,0211,0333,0331,0337,",
    "0244:0220,0336,0331,0333,0336,0321,0343,0333,0350,0336,0335,0342,0334,0334,0342,0335,0337,0304,0333,0330,0330,0337,0337,0332,",
    "01244:0333,0200,0336,0330,0332,0210,0244,0211,0333,0331,0337,",
    "0245:0210,0332,0332,0362,0335,0203,0203,0203,0203,0334,0203,0363,0332,0332,0331,0211,",
    "01245:0333,0200,0336,0330,0332,0336,0245,0337,0333,0331,0337,",
    "0246:0210,0332,0332,0335,0306,0336,0330,0335,0335,0335,0321,0362,0203,0335,0335,0203,0364,0331,0350,0335,0337,0366,0333,0333,0333,0333,0334,0334,0334,0334,0367,0335,0336,0342,0334,0334,0342,0330,0330,0330,0330,0335,0335,0335,0304,0337,0211,",
    "01246:0333,0200,0336,0330,0332,0336,0246,",
    "0247:0330,0332,0336,0332,0336,0221,0333,0333,0333,0222,0333,0333,0333,0223,0333,0333,0333,0225,0333,0331,0331,0331,0332,0332,0332,0332,0332,0332,0332,0332,0332,0332,0332,0332,0333,0333,0226,0331,0331,0331,0333,0333,0333,0333,0333,0333,0333,0333,0333,0333,0333,0333,0333,0330,0333,0330,0330,0333,0330,0331,0332,0332,0332,0332,0332,0332,0332,0332,0332,0332,0332,0332,0227,0333,0333,0333,0230,0333,0331,0331,0331,0331,0332,0332,0332,0330,0332,0332,0332,0332,0332,0332,0333,0333,0231,0333,0333,0333,0232,0331,0333,0330,0333,0333,0233,0333,0333,0333,0234,0330,0330,0332,0330,0332,0332,0337,0337,",
    "01247:0333,0200,0336,0330,0332,0220,0336,0247,0337,0331,0333,0337,"
  ]
}</json>-->	<path d = "M7 173 L7 27 L154 27 L300 27 L446 27 L593 27 L593 173 L446 173 L300 173 L154 173 L7 173 Z" stroke = "#000000" stroke-width = "1" fill = "none" />    <line x1="154" y1="173" x2="154" y2="27" style="stroke:#ff0000;stroke-width:1" />
    <line x1="300" y1="173" x2="300" y2="27" style="stroke:#ff0000;stroke-width:1" />
    <line x1="446" y1="173" x2="446" y2="27" style="stroke:#ff0000;stroke-width:1" />
    <line x1="593" y1="100" x2="446" y2="100" style="stroke:#ff0000;stroke-width:1" />
    <line x1="446" y1="100" x2="300" y2="100" style="stroke:#ff0000;stroke-width:1" />
    <line x1="300" y1="100" x2="154" y2="100" style="stroke:#ff0000;stroke-width:1" />
    <line x1="154" y1="100" x2="7" y2="100" style="stroke:#ff0000;stroke-width:1" />
	<path d = "M25 155 L44 155 L62 155 L62 173 L80 173 L99 173 L99 155 L117 155 L135 155 L154 155 L154 137 L154 118 L135 118 L135 100 L135 82 L154 82 L154 63 L154 45 L154 27 L135 27 L117 27 L99 27 L80 27 L62 27 L44 27 L25 27 L25 45 L25 63 L25 82 L7 82 L7 100 L7 118 L25 118 L25 137 L25 155 Z" stroke = "#ff0000" stroke-width = "1" fill = "none" />	<path d = "M446 173 L446 155 L446 137 L446 118 L465 118 L465 100 L465 82 L446 82 L446 63 L446 45 L446 27 L465 27 L483 27 L501 27 L501 45 L520 45 L538 45 L538 27 L556 27 L575 27 L593 27 L593 45 L593 63 L593 82 L575 82 L575 100 L575 118 L593 118 L593 137 L593 155 L593 173 L575 173 L556 173 L538 173 L538 155 L520 155 L501 155 L501 173 L483 173 L465 173 L446 173 Z" stroke = "#ff0000" stroke-width = "1" fill = "none" />	<path d = "M227 173 L227 100 L300 100 L373 100 L373 173 " stroke = "#ff0000" stroke-width = "1" fill = "none" />    <line x1="355" y1="173" x2="373" y2="155" style="stroke:#ff0000;stroke-width:1" />
	<path d = "M337 173 L355 155 L373 137 " stroke = "#ff0000" stroke-width = "1" fill = "none" />	<path d = "M373 118 L355 137 L337 155 L318 173 " stroke = "#ff0000" stroke-width = "1" fill = "none" />	<path d = "M300 173 L318 155 L337 137 L355 118 L373 100 " stroke = "#ff0000" stroke-width = "1" fill = "none" />	<path d = "M355 100 L337 118 L318 137 L300 155 L282 173 " stroke = "#ff0000" stroke-width = "1" fill = "none" />	<path d = "M263 173 L282 155 L300 137 L318 118 L337 100 " stroke = "#ff0000" stroke-width = "1" fill = "none" />	<path d = "M318 100 L300 118 L282 137 L263 155 L245 173 " stroke = "#ff0000" stroke-width = "1" fill = "none" />	<path d = "M227 173 L245 155 L263 137 L282 118 L300 100 " stroke = "#ff0000" stroke-width = "1" fill = "none" />	<path d = "M282 100 L263 118 L245 137 L227 155 " stroke = "#ff0000" stroke-width = "1" fill = "none" />	<path d = "M227 137 L245 118 L263 100 " stroke = "#ff0000" stroke-width = "1" fill = "none" />    <line x1="245" y1="100" x2="227" y2="118" style="stroke:#ff0000;stroke-width:1" />
<circle cx="154" cy = "100" r = "9.150625000000005" stroke = "#ff0000" stroke-width = "1" fill = "none" />
<circle cx="80" cy = "100" r = "9.150625000000005" stroke = "#ff0000" stroke-width = "1" fill = "none" />
<circle cx="227" cy = "100" r = "9.150625000000005" stroke = "#ff0000" stroke-width = "1" fill = "none" />
<circle cx="373" cy = "100" r = "9.150625000000005" stroke = "#ff0000" stroke-width = "1" fill = "none" />
<circle cx="520" cy = "100" r = "9.150625000000005" stroke = "#ff0000" stroke-width = "1" fill = "none" />
<circle cx="446" cy = "100" r = "9.150625000000005" stroke = "#ff0000" stroke-width = "1" fill = "none" />
<circle cx="300" cy = "100" r = "9.150625000000005" stroke = "#ff0000" stroke-width = "1" fill = "none" />
</svg>