<svg width="600" height="400" viewbox = "0 0 600 400"  xmlns="http://www.w3.org/2000/svg">
<!--<json>{
  "glyph": "0336,0330,0333,0336,0336,0220,0333,0333,0333,0220,0330,0220,0330,0220,0330,0220,0332,0332,0332,0332,0220,0331,0220,0331,0220,0342,0330,0330,0342,0330,0220,0331,0335,0201,0201,0201,0201,0333,0337,0342,0334,0336,0330,0335,0201,0220,0334,0331,0333,0220,0332,0331,0331,0220,0331,0220,0333,0220,0332,0330,0330,0333,0333,0222,0330,0332,0335,0335,0222,0335,0333,0330,0334,0222,0335,0335,0331,0331,0331,0332,0335,0201,0335,0201,0334,0201,0334,0334,0330,0222,0335,0330,0330,0332,0335,0201,0201,0201,0335,0201,0201,0201,0335,0223,0330,0330,0334,0335,0335,0331,0220,0201,0334,0201,0201,0201,0335,0201,0350,0334,0310,0337,0201,0201,0335,0336,0304,0333,0333,0331,0331,0313,0330,0330,0330,0333,0333,0333,0333,0201,0201,0335,0201,0201,0220,0334,0336,0333,0331,0333,0337,0336,0332,0337,0143,0154,0157,0143,0153,0365,0332,0332,0332,0332,0330,0332,0332,0332,0332,0332,0332,0331,053,0365,0331,0331,0331,055,0365,0333,0333,0333,0331,0332,0325,0201,0201,0201,0201,0335,0201,0201,0201,0201,0335,0201,0201,0201,0201,0335,0201,0201,0201,0201,0335,",
  "x0": 34.28494972488892,
  "y0": 400,
  "unit": 300,
  "width": 600,
  "height": 400,
  "style": {
    "color0": "black",
    "fill0": "black",
    "line0": 1,
    "color1": "black",
    "fill1": "black",
    "line1": 5,
    "color2": "red",
    "fill2": "red",
    "line2": 1,
    "color3": "#FF7900",
    "fill3": "#FF7900",
    "line3": 1,
    "color4": "yellow",
    "fill4": "yellow",
    "line4": 1,
    "color5": "green",
    "fill5": "green",
    "line5": 1,
    "color6": "blue",
    "fill6": "blue",
    "line6": 1,
    "color7": "purple",
    "fill7": "purple",
    "line7": 1
  },
  "shapes": [
    "0220:0336,0336,0341,0337,0337,",
    "0221:0220,0330,0220,0330,0220,0330,0220,0333,0333,0333,0220,0331,0220,0331,0220,0331,0220,0332,0332,0332,0325,0336,0332,0337,0362,0203,0203,0203,0336,0203,0335,0337,0203,0203,0203,0203,0335,0203,0203,0203,0203,0335,0203,0203,0203,0203,0335,0336,0203,0354,0335,0334,0330,0330,0330,0330,0330,0330,0330,0333,0333,0333,0333,0335,0335,0343,0335,0335,0331,0331,0332,0331,0332,0331,0331,0331,0332,0331,0337,0320,",
    "0222:0220,0330,0330,0330,0220,0331,0331,0331,0336,0336,0325,0330,0342,0330,0342,0330,0306,0334,0201,0335,0335,0201,0201,0334,0334,0201,0201,0335,0335,0201,0201,0334,0334,0201,0201,0335,0335,0201,0201,0334,0334,0201,0335,0342,0330,0342,0330,0330,0337,0337,0304,0320,0331,0331,0331,",
    "0223:0220,0330,0330,0220,0331,0331,0325,0336,0330,0336,0336,0330,0337,0201,0334,0331,0337,0342,0336,0333,0337,0342,0336,0335,0332,0342,0330,0330,0330,0337,0331,0331,0331,0331,0337,0320,0336,0336,0336,0330,0337,0337,0337,",
    "0224:0336,0336,0336,0347,0337,0337,0337,",
    "0225:0220,0336,0336,0350,0335,0342,0335,0335,0342,0335,0335,0342,0335,0335,0342,0335,0337,0304,0337,",
    "0230:0316,0336,0313,0336,0336,0330,0337,0333,0333,0330,0330,0330,0330,0320,0220,0330,0220,0331,0333,0331,0220,0330,0330,0220,0331,0331,0333,0333,0220,0331,0333,0220,0333,0333,0333,0220,0330,0220,0331,0333,0220,0332,0332,0330,0220,0330,0220,0330,0220,0330,0220,0333,0220,0331,0333,0220,0331,0333,0220,0331,0220,0331,0331,0220,0333,0220,0333,0333,0220,0333,0220,0333,0220,0332,0332,0332,0332,0332,0330,0330,0330,0333,0333,0220,0330,0330,0330,0330,0333,0333,0220,0333,0220,0331,0331,0331,0331,0331,0331,0331,0331,0336,0331,0337,0335,0330,0330,0330,0330,0334,0337,0316,0337,0362,0203,0334,0203,0203,0334,0203,0334,0203,0203,0354,0334,0336,0313,0336,0330,0332,0332,0332,0332,0336,0330,0337,0332,0334,0326,0342,0330,0330,0330,0201,0201,0201,0201,0201,0201,0201,0201,0201,0335,0201,0201,0350,0334,0310,0337,0201,0334,0335,0335,0336,0330,0304,0335,0201,0334,0350,0310,0335,0337,0201,0335,0336,0304,0313,0201,0201,0201,0201,0201,0331,0333,0201,0201,0331,0333,0331,0201,0201,0201,0335,0201,0335,0332,0330,0201,0335,0201,0334,0201,0332,0330,0330,0201,0335,0201,0334,0201,0201,0335,0335,0334,0333,0333,0333,0333,0333,0333,0333,0330,0333,0333,0333,0335,0334,0335,0201,0201,0201,0335,0201,0201,0201,0335,0335,0330,0330,0330,0332,0332,0332,0330,0332,0332,0331,0201,0335,0201,0201,0201,0201,0201,0334,0201,0201,0201,0334,0330,0334,0201,0201,0335,0201,0201,0201,0201,0201,0334,0201,0335,0335,0330,0332,0332,0332,0332,0332,0332,0331,0332,0332,0332,0342,0336,0330,0333,0334,0337,0342,0332,0332,0336,0333,0337,0342,0335,0336,0331,0337,0331,0331,0331,0333,0333,0333,0333,0333,0331,0333,0333,0333,0333,0333,0333,0333,0333,0333,0333,0336,0330,0337,0210,0101,0125,0104,0111,0117,0365,0211,0330,0330,0330,0330,0330,0330,0330,0330,0120,0122,0117,0102,0105,0210,0210,0365,0211,0211,0330,0336,0330,0337,0332,0332,0332,0332,0332,0332,0332,0332,0332,0332,0332,0332,0332,0332,0332,0332,0332,0331,0331,0331,0331,0331,0331,0331,0331,0331,0331,0336,0333,0337,0313,0337,0316,0337,0320,",
    "0231:0230,0331,0230,0330,0330,0230,0330,0230,0333,0333,0230,0331,0230,0331,0230,0331,0230,",
    "01220:0333,0200,0336,0330,0332,0220,0331,0333,0337,",
    "01221:0333,0200,0336,0330,0332,0336,0331,0332,0336,0331,0332,0337,0221,0337,0333,0336,0331,0333,0336,0330,0333,0337,0337,0337,",
    "01222:0333,0200,0336,0332,0336,0336,0330,0337,0222,0333,0333,0336,0331,0337,0337,0337,",
    "01223:0333,0200,0336,0332,0336,0336,0330,0337,0223,0333,0333,0336,0331,0337,0337,0337,",
    "01224:0333,0200,0336,0330,0332,0342,0335,0342,0335,0342,0335,0342,0335,0224,0331,0333,0337,",
    "01225:0333,0200,0336,0330,0332,0336,0331,0337,0337,0337,0225,0336,0336,0331,0333,0336,0330,0337,0337,",
    "01226:0333,0200,0336,0332,0336,0336,0330,0337,0337,0337,0226,0336,0336,0333,0336,0333,0331,0333,0337,0337,0337,",
    "01227:0333,0200,0336,0332,0336,0330,0337,0337,0337,0227,0336,0336,0331,0333,0336,0330,0337,0337,",
    "01230:0333,0200,0336,0330,0332,0336,0331,0337,0337,0337,0230,0336,0331,0336,0330,0333,0330,0336,0331,0337,0337,",
    "01231:0333,0200,0336,0330,0332,0336,0331,",
    "01232:0333,0200,0336,0330,0332,0232,0331,0333,0337,",
    "01233:0333,0200,0336,0330,0332,0233,0331,0333,0337,",
    "01234:0333,0200,0336,0330,0332,0336,0234,0337,0331,0333,0337,",
    "01235:0333,0200,0336,0330,0332,0336,0336,0235,0337,0337,0331,0333,0337,",
    "01236:0333,0200,",
    "01237:0333,0200,",
    "0240:0220,0336,0331,0333,0336,0321,0335,0342,0335,0335,0342,0335,0330,0330,0332,0332,0337,0337,",
    "01240:0333,0200,0336,0330,0332,0210,0240,0211,0333,0331,0337,",
    "0241:0220,0336,0321,0343,0332,0350,0335,0336,0342,0334,0334,0342,0335,0304,0337,0333,0337,",
    "01241:0333,0200,0336,0332,0330,0210,0241,0211,0333,0331,0337,",
    "0242:0220,0321,0336,0343,0333,0336,0350,0335,0342,0334,0334,0342,0335,0337,0304,0332,0337,",
    "01242:0333,0200,0336,0330,0332,0210,0242,0211,0333,0331,0337,",
    "0243:0220,0336,0331,0332,0336,0321,0343,0332,0350,0334,0336,0342,0335,0335,0342,0337,0334,0334,0335,0304,0332,0330,0330,0337,0337,0333,",
    "01243:0333,0200,0336,0330,0332,0210,0243,0211,0333,0331,0337,",
    "0244:0220,0336,0331,0333,0336,0321,0343,0333,0350,0336,0335,0342,0334,0334,0342,0335,0337,0304,0333,0330,0330,0337,0337,0332,",
    "01244:0333,0200,0336,0330,0332,0210,0244,0211,0333,0331,0337,",
    "0245:0210,0332,0332,0362,0335,0203,0203,0203,0203,0334,0203,0363,0332,0332,0331,0211,",
    "01245:0333,0200,0336,0330,0332,0336,0245,0337,0333,0331,0337,",
    "0246:0210,0332,0332,0335,0306,0336,0330,0335,0335,0335,0321,0362,0203,0335,0335,0203,0364,0331,0350,0335,0337,0366,0333,0333,0333,0333,0334,0334,0334,0334,0367,0335,0336,0342,0334,0334,0342,0330,0330,0330,0330,0335,0335,0335,0304,0337,0211,",
    "01246:0333,0200,0336,0330,0332,0336,0246,",
    "0247:0330,0332,0336,0332,0336,0221,0333,0333,0333,0222,0333,0333,0333,0223,0333,0333,0333,0225,0333,0331,0331,0331,0332,0332,0332,0332,0332,0332,0332,0332,0332,0332,0332,0332,0333,0333,0226,0331,0331,0331,0333,0333,0333,0333,0333,0333,0333,0333,0333,0333,0333,0333,0333,0330,0333,0330,0330,0333,0330,0331,0332,0332,0332,0332,0332,0332,0332,0332,0332,0332,0332,0332,0227,0333,0333,0333,0230,0333,0331,0331,0331,0331,0332,0332,0332,0330,0332,0332,0332,0332,0332,0332,0333,0333,0231,0333,0333,0333,0232,0331,0333,0330,0333,0333,0233,0333,0333,0333,0234,0330,0330,0332,0330,0332,0332,0337,0337,",
    "01247:0333,0200,0336,0330,0332,0220,0336,0247,0337,0331,0333,0337,"
  ]
}</json>--><circle cx="184" cy = "250" r = "9.375" stroke = "#000000" stroke-width = "1" fill = "none" />
<circle cx="297" cy = "250" r = "9.375" stroke = "#000000" stroke-width = "1" fill = "none" />
<circle cx="297" cy = "213" r = "9.375" stroke = "#000000" stroke-width = "1" fill = "none" />
<circle cx="297" cy = "175" r = "9.375" stroke = "#000000" stroke-width = "1" fill = "none" />
<circle cx="297" cy = "138" r = "9.375" stroke = "#000000" stroke-width = "1" fill = "none" />
<circle cx="147" cy = "138" r = "9.375" stroke = "#000000" stroke-width = "1" fill = "none" />
<circle cx="147" cy = "175" r = "9.375" stroke = "#000000" stroke-width = "1" fill = "none" />
<circle cx="147" cy = "213" r = "9.375" stroke = "#000000" stroke-width = "1" fill = "none" />
    <line x1="147" y1="213" x2="147" y2="175" style="stroke:#000000;stroke-width:1" />
    <line x1="147" y1="138" x2="147" y2="100" style="stroke:#000000;stroke-width:1" />
<circle cx="147" cy = "100" r = "9.375" stroke = "#000000" stroke-width = "1" fill = "none" />
    <line x1="147" y1="138" x2="184" y2="138" style="stroke:#000000;stroke-width:1" />
    <line x1="184" y1="138" x2="222" y2="138" style="stroke:#000000;stroke-width:1" />
    <line x1="222" y1="138" x2="259" y2="138" style="stroke:#000000;stroke-width:1" />
    <line x1="259" y1="138" x2="297" y2="138" style="stroke:#000000;stroke-width:1" />
    <line x1="297" y1="175" x2="372" y2="175" style="stroke:#000000;stroke-width:1" />
    <line x1="297" y1="138" x2="334" y2="138" style="stroke:#000000;stroke-width:1" />
<circle cx="334" cy = "138" r = "9.375" stroke = "#000000" stroke-width = "1" fill = "none" />
<circle cx="372" cy = "175" r = "9.375" stroke = "#000000" stroke-width = "1" fill = "none" />
<circle cx="334" cy = "250" r = "9.375" stroke = "#000000" stroke-width = "1" fill = "none" />
<circle cx="334" cy = "288" r = "9.375" stroke = "#000000" stroke-width = "1" fill = "none" />
<circle cx="372" cy = "288" r = "9.375" stroke = "#000000" stroke-width = "1" fill = "none" />
<circle cx="409" cy = "213" r = "9.375" stroke = "#000000" stroke-width = "1" fill = "none" />
<circle cx="409" cy = "100" r = "9.375" stroke = "#000000" stroke-width = "1" fill = "none" />
    <line x1="409" y1="203" x2="409" y2="194" style="stroke:#008000;stroke-width:1" />
    <line x1="409" y1="194" x2="409" y2="184" style="stroke:#008000;stroke-width:1" />
    <line x1="409" y1="184" x2="401" y2="180" style="stroke:#008000;stroke-width:1" />
    <line x1="401" y1="180" x2="409" y2="175" style="stroke:#008000;stroke-width:1" />
    <line x1="409" y1="175" x2="417" y2="170" style="stroke:#008000;stroke-width:1" />
    <line x1="417" y1="170" x2="409" y2="166" style="stroke:#008000;stroke-width:1" />
    <line x1="409" y1="166" x2="401" y2="161" style="stroke:#008000;stroke-width:1" />
    <line x1="401" y1="161" x2="409" y2="156" style="stroke:#008000;stroke-width:1" />
    <line x1="409" y1="156" x2="417" y2="152" style="stroke:#008000;stroke-width:1" />
    <line x1="417" y1="152" x2="409" y2="147" style="stroke:#008000;stroke-width:1" />
    <line x1="409" y1="147" x2="401" y2="142" style="stroke:#008000;stroke-width:1" />
    <line x1="401" y1="142" x2="409" y2="138" style="stroke:#008000;stroke-width:1" />
    <line x1="409" y1="138" x2="417" y2="133" style="stroke:#008000;stroke-width:1" />
    <line x1="417" y1="133" x2="409" y2="128" style="stroke:#008000;stroke-width:1" />
    <line x1="409" y1="128" x2="409" y2="119" style="stroke:#008000;stroke-width:1" />
    <line x1="409" y1="119" x2="409" y2="109" style="stroke:#008000;stroke-width:1" />
<circle cx="372" cy = "175" r = "9.375" stroke = "#000000" stroke-width = "1" fill = "none" />
<circle cx="372" cy = "288" r = "9.375" stroke = "#000000" stroke-width = "1" fill = "none" />
    <line x1="372" y1="184" x2="372" y2="194" style="stroke:#008000;stroke-width:1" />
    <line x1="372" y1="194" x2="372" y2="203" style="stroke:#008000;stroke-width:1" />
    <line x1="372" y1="203" x2="380" y2="208" style="stroke:#008000;stroke-width:1" />
    <line x1="380" y1="208" x2="372" y2="213" style="stroke:#008000;stroke-width:1" />
    <line x1="372" y1="213" x2="364" y2="217" style="stroke:#008000;stroke-width:1" />
    <line x1="364" y1="217" x2="372" y2="222" style="stroke:#008000;stroke-width:1" />
    <line x1="372" y1="222" x2="380" y2="227" style="stroke:#008000;stroke-width:1" />
    <line x1="380" y1="227" x2="372" y2="231" style="stroke:#008000;stroke-width:1" />
    <line x1="372" y1="231" x2="364" y2="236" style="stroke:#008000;stroke-width:1" />
    <line x1="364" y1="236" x2="372" y2="241" style="stroke:#008000;stroke-width:1" />
    <line x1="372" y1="241" x2="380" y2="245" style="stroke:#008000;stroke-width:1" />
    <line x1="380" y1="245" x2="372" y2="250" style="stroke:#008000;stroke-width:1" />
    <line x1="372" y1="250" x2="364" y2="255" style="stroke:#008000;stroke-width:1" />
    <line x1="364" y1="255" x2="372" y2="259" style="stroke:#008000;stroke-width:1" />
    <line x1="372" y1="259" x2="372" y2="269" style="stroke:#008000;stroke-width:1" />
    <line x1="372" y1="269" x2="372" y2="278" style="stroke:#008000;stroke-width:1" />
<circle cx="334" cy = "138" r = "9.375" stroke = "#000000" stroke-width = "1" fill = "none" />
<circle cx="334" cy = "250" r = "9.375" stroke = "#000000" stroke-width = "1" fill = "none" />
    <line x1="334" y1="147" x2="334" y2="156" style="stroke:#008000;stroke-width:1" />
    <line x1="334" y1="156" x2="334" y2="166" style="stroke:#008000;stroke-width:1" />
    <line x1="334" y1="166" x2="342" y2="170" style="stroke:#008000;stroke-width:1" />
    <line x1="342" y1="170" x2="334" y2="175" style="stroke:#008000;stroke-width:1" />
    <line x1="334" y1="175" x2="326" y2="180" style="stroke:#008000;stroke-width:1" />
    <line x1="326" y1="180" x2="334" y2="184" style="stroke:#008000;stroke-width:1" />
    <line x1="334" y1="184" x2="342" y2="189" style="stroke:#008000;stroke-width:1" />
    <line x1="342" y1="189" x2="334" y2="194" style="stroke:#008000;stroke-width:1" />
    <line x1="334" y1="194" x2="326" y2="198" style="stroke:#008000;stroke-width:1" />
    <line x1="326" y1="198" x2="334" y2="203" style="stroke:#008000;stroke-width:1" />
    <line x1="334" y1="203" x2="342" y2="208" style="stroke:#008000;stroke-width:1" />
    <line x1="342" y1="208" x2="334" y2="213" style="stroke:#008000;stroke-width:1" />
    <line x1="334" y1="213" x2="326" y2="217" style="stroke:#008000;stroke-width:1" />
    <line x1="326" y1="217" x2="334" y2="222" style="stroke:#008000;stroke-width:1" />
    <line x1="334" y1="222" x2="334" y2="231" style="stroke:#008000;stroke-width:1" />
    <line x1="334" y1="231" x2="334" y2="241" style="stroke:#008000;stroke-width:1" />
    <line x1="297" y1="250" x2="334" y2="250" style="stroke:#000000;stroke-width:1" />
    <line x1="334" y1="250" x2="334" y2="288" style="stroke:#000000;stroke-width:1" />
    <line x1="334" y1="288" x2="372" y2="288" style="stroke:#000000;stroke-width:1" />
<circle cx="334" cy = "288" r = "9.375" stroke = "#000000" stroke-width = "1" fill = "none" />
<circle cx="222" cy = "288" r = "9.375" stroke = "#000000" stroke-width = "1" fill = "none" />
    <line x1="325" y1="288" x2="316" y2="288" style="stroke:#008000;stroke-width:1" />
    <line x1="316" y1="288" x2="306" y2="288" style="stroke:#008000;stroke-width:1" />
    <line x1="306" y1="288" x2="301" y2="296" style="stroke:#008000;stroke-width:1" />
    <line x1="301" y1="296" x2="297" y2="288" style="stroke:#008000;stroke-width:1" />
    <line x1="297" y1="288" x2="292" y2="279" style="stroke:#008000;stroke-width:1" />
    <line x1="292" y1="279" x2="287" y2="288" style="stroke:#008000;stroke-width:1" />
    <line x1="287" y1="288" x2="283" y2="296" style="stroke:#008000;stroke-width:1" />
    <line x1="283" y1="296" x2="278" y2="288" style="stroke:#008000;stroke-width:1" />
    <line x1="278" y1="288" x2="273" y2="279" style="stroke:#008000;stroke-width:1" />
    <line x1="273" y1="279" x2="269" y2="288" style="stroke:#008000;stroke-width:1" />
    <line x1="269" y1="288" x2="264" y2="296" style="stroke:#008000;stroke-width:1" />
    <line x1="264" y1="296" x2="259" y2="288" style="stroke:#008000;stroke-width:1" />
    <line x1="259" y1="288" x2="255" y2="279" style="stroke:#008000;stroke-width:1" />
    <line x1="255" y1="279" x2="250" y2="288" style="stroke:#008000;stroke-width:1" />
    <line x1="250" y1="288" x2="241" y2="288" style="stroke:#008000;stroke-width:1" />
    <line x1="241" y1="288" x2="231" y2="288" style="stroke:#008000;stroke-width:1" />
    <line x1="297" y1="213" x2="334" y2="213" style="stroke:#000000;stroke-width:1" />
    <line x1="334" y1="213" x2="372" y2="213" style="stroke:#000000;stroke-width:1" />
    <line x1="372" y1="213" x2="409" y2="213" style="stroke:#000000;stroke-width:1" />
    <line x1="409" y1="213" x2="409" y2="250" style="stroke:#000000;stroke-width:1" />
    <line x1="409" y1="250" x2="409" y2="288" style="stroke:#000000;stroke-width:1" />
    <line x1="409" y1="288" x2="409" y2="325" style="stroke:#000000;stroke-width:1" />
<circle cx="409" cy = "325" r = "9.375" stroke = "#000000" stroke-width = "1" fill = "none" />
<circle cx="334" cy = "325" r = "9.375" stroke = "#000000" stroke-width = "1" fill = "none" />
    <line x1="386" y1="325" x2="376" y2="325" style="stroke:#008000;stroke-width:1" />
    <line x1="376" y1="316" x2="376" y2="334" style="stroke:#008000;stroke-width:1" />
    <line x1="367" y1="316" x2="367" y2="334" style="stroke:#008000;stroke-width:1" />
    <line x1="367" y1="325" x2="358" y2="325" style="stroke:#008000;stroke-width:1" />
<circle cx="334" cy = "363" r = "9.375" stroke = "#000000" stroke-width = "1" fill = "none" />
    <line x1="334" y1="363" x2="334" y2="325" style="stroke:#000000;stroke-width:1" />
    <line x1="334" y1="325" x2="297" y2="325" style="stroke:#000000;stroke-width:1" />
    <line x1="297" y1="325" x2="259" y2="325" style="stroke:#000000;stroke-width:1" />
    <line x1="259" y1="325" x2="222" y2="325" style="stroke:#000000;stroke-width:1" />
    <line x1="222" y1="325" x2="222" y2="288" style="stroke:#000000;stroke-width:1" />
    <line x1="222" y1="288" x2="184" y2="250" style="stroke:#000000;stroke-width:1" />
    <line x1="184" y1="250" x2="147" y2="212" style="stroke:#000000;stroke-width:1" />
    <line x1="372" y1="175" x2="372" y2="138" style="stroke:#000000;stroke-width:1" />
    <line x1="372" y1="138" x2="372" y2="100" style="stroke:#000000;stroke-width:1" />
    <line x1="372" y1="100" x2="409" y2="100" style="stroke:#000000;stroke-width:1" />
    <line x1="409" y1="100" x2="447" y2="100" style="stroke:#000000;stroke-width:1" />
<circle cx="447" cy = "100" r = "9.375" stroke = "#000000" stroke-width = "1" fill = "none" />
    <text x="466" y = "119" fill = "#000000" font-size = "37.5px" font-family = "Arial">clock</text>
    <text x="91" y = "119" fill = "#000000" font-size = "37.5px" font-family = "Arial">+</text>
    <text x="91" y = "231" fill = "#000000" font-size = "37.5px" font-family = "Arial">-</text>
    <line x1="166" y1="269" x2="166" y2="231" style="stroke:#008000;stroke-width:1" />
    <line x1="166" y1="231" x2="166" y2="194" style="stroke:#008000;stroke-width:1" />
    <line x1="166" y1="194" x2="166" y2="156" style="stroke:#008000;stroke-width:1" />
    <line x1="166" y1="156" x2="166" y2="119" style="stroke:#008000;stroke-width:1" />
    <line x1="166" y1="119" x2="203" y2="119" style="stroke:#008000;stroke-width:1" />
    <line x1="203" y1="119" x2="241" y2="119" style="stroke:#008000;stroke-width:1" />
    <line x1="241" y1="119" x2="278" y2="119" style="stroke:#008000;stroke-width:1" />
    <line x1="278" y1="119" x2="316" y2="119" style="stroke:#008000;stroke-width:1" />
    <line x1="316" y1="119" x2="316" y2="156" style="stroke:#008000;stroke-width:1" />
    <line x1="316" y1="156" x2="316" y2="194" style="stroke:#008000;stroke-width:1" />
    <line x1="316" y1="194" x2="316" y2="231" style="stroke:#008000;stroke-width:1" />
    <line x1="316" y1="231" x2="316" y2="269" style="stroke:#008000;stroke-width:1" />
    <line x1="316" y1="269" x2="278" y2="269" style="stroke:#008000;stroke-width:1" />
    <line x1="278" y1="269" x2="241" y2="269" style="stroke:#008000;stroke-width:1" />
    <line x1="241" y1="269" x2="203" y2="269" style="stroke:#008000;stroke-width:1" />
    <line x1="203" y1="269" x2="166" y2="269" style="stroke:#008000;stroke-width:1" />
</svg>