<svg width="600" height="200" viewbox = "0 0 600 200"  xmlns="http://www.w3.org/2000/svg">
<!--<json>{
  "glyph": "0330,0332,0336,0336,0336,0336,0331,0331,0337,0337,0337,0331,0332,0332,0337,0331,0332,0332,0337,0224,0336,0330,0333,0336,0333,0330,0333,0336,0330,0333,0336,0331,0330,0332,0332,0336,0333,0331,0337,0337,0124,0122,0101,0123,0110,0117,0124,0122,0117,0116,055,0110,0131,0120,0105,0122,0103,0125,0102,0105,0365,0331,0336,0331,0337,0107,0111,0124,0110,0125,0102,056,0103,0117,0115,057,0114,0101,0106,0105,0114,0101,0102,0123,057,0124,0122,0101,0123,0110,0117,0124,0122,0117,0116,0365,",
  "x0": 300,
  "y0": 122.83553626126641,
  "unit": 73.20500000000004,
  "width": 600,
  "height": 200,
  "style": {
    "color0": "black",
    "fill0": "black",
    "line0": 1,
    "color1": "black",
    "fill1": "black",
    "line1": 5,
    "color2": "red",
    "fill2": "red",
    "line2": 1,
    "color3": "#FF7900",
    "fill3": "#FF7900",
    "line3": 1,
    "color4": "yellow",
    "fill4": "yellow",
    "line4": 1,
    "color5": "green",
    "fill5": "green",
    "line5": 1,
    "color6": "blue",
    "fill6": "blue",
    "line6": 1,
    "color7": "purple",
    "fill7": "purple",
    "line7": 1
  },
  "shapes": [
    "0220:0336,0331,0331,0332,0332,0336,0330,0333,0335,0362,0203,0203,0335,0203,0334,0203,0203,0334,0203,0335,0203,0203,0203,0334,0203,0203,0334,0203,0335,0203,0203,0335,0203,0334,0203,0203,0203,0334,0203,0203,0203,0203,0203,0203,0203,0334,0203,0203,0203,0335,0203,0334,0203,0203,0334,0203,0335,0203,0203,0354,0334,0334,0333,0333,0333,0331,0337,0337,0330,",
    "0221:0331,0332,0336,0336,0362,0203,0203,0203,0335,0203,0334,0203,0203,0334,0203,0335,0203,0203,0203,0335,0203,0203,0203,0335,0203,0334,0203,0203,0334,0203,0335,0203,0203,0203,0335,0203,0203,0203,0335,0203,0334,0203,0203,0334,0203,0335,0203,0203,0203,0335,0203,0203,0203,0335,0203,0334,0203,0203,0334,0203,0335,0203,0203,0203,0354,0335,0337,0337,0333,0330,",
    "0222:0332,0362,0203,0335,0203,0203,0335,0203,0364,0335,0335,0336,0336,0332,0350,0310,0335,0337,0342,0336,0335,0331,0334,0337,0362,0203,0203,0364,0334,0336,0330,0335,0337,0335,0335,0335,0335,0362,0203,0203,0203,0364,0335,0336,0330,0335,0335,0335,0337,0362,0203,0203,0203,0203,0364,0335,0336,0331,0334,0335,0335,0335,0335,0337,0362,0203,0203,0203,0203,0364,0335,0336,0330,0335,0335,0335,0337,0362,0203,0203,0203,0203,0364,0335,0336,0331,0334,0337,0335,0335,0335,0335,0362,0203,0203,0203,0203,0364,0335,0336,0330,0335,0335,0335,0337,0362,0203,0203,0203,0203,0364,0335,0336,0331,0335,0335,0335,0337,0362,0203,0203,0203,0364,0335,0335,0335,0336,0330,0335,0337,0362,0203,0203,0364,0335,0336,0331,0335,0335,0335,0337,0342,0335,0336,0330,0335,0335,0304,0313,0337,0337,0331,0333,0337,",
    "0223:0336,0330,0336,0336,0336,0341,0337,0337,0337,0331,0337,",
    "0224:0362,0203,0335,0203,0203,0203,0203,0335,0203,0335,0203,0203,0203,0203,0354,0335,0322,0333,0342,0333,0342,0333,0342,0333,0336,0330,0334,0337,0201,0201,0201,0201,0335,0336,0331,0333,0333,0330,0332,0220,0333,0333,0333,0333,0333,0333,0221,0332,0332,0332,0331,0222,0332,0223,0332,0336,0333,0337,0223,0333,0223,0333,0223,0333,0223,0336,0332,0337,0223,0332,0223,0332,0332,0320,",
    "0225:0224,0336,0333,0330,0336,0333,0330,0333,0333,0336,0330,0333,0333,0332,0332,0332,0332,0331,0336,0330,0333,0337,0322,0107,0105,0117,0115,0105,0124,0122,0117,0116,040,0110,0131,0120,0105,0122,0103,0125,0102,0105,0365,0331,0336,0337,0107,0111,0124,0110,0125,0102,056,0103,0117,0115,057,0114,0101,0106,0105,0114,0101,0102,0123,057,0124,0122,0101,0123,0110,0117,0124,0122,0117,0116,0365,0331,0336,0331,0332,0337,0337,0337,0332,0332,0331,",
    "01220:0333,0200,0336,0330,0332,0220,0331,0333,0337,",
    "01221:0333,0200,0336,0330,0332,0221,0331,0333,0337,",
    "01222:0333,0200,0336,0336,0332,0332,0330,0222,0336,0331,0333,0336,0333,0333,0337,0337,0337,",
    "01223:0333,0200,0336,0332,0337,0223,0336,0333,0337,",
    "01224:0333,0200,0336,0330,0332,0336,0331,0332,0330,0331,0332,0224,0331,0337,0337,0333,",
    "01225:0333,0200,0336,0330,0332,0225,0331,0333,0337,",
    "01226:0333,0200,0336,0330,0332,0226,0331,0333,0337,",
    "01227:0333,0200,0336,0330,0332,0227,0331,0333,0337,",
    "01230:0333,0200,0336,0330,0332,0230,0331,0333,0337,",
    "01231:0333,0200,0336,0330,0332,0231,0331,0333,0337,",
    "01232:0333,0200,0336,0330,0332,0232,0331,0333,0337,",
    "01233:0333,0200,0336,0330,0332,0233,0331,0333,0337,",
    "01234:0333,0200,0336,0330,0332,0336,0234,0337,0331,0333,0337,",
    "01235:0333,0200,0336,0330,0332,0336,0336,0235,0337,0337,0331,0333,0337,",
    "01236:0333,0200,",
    "01237:0333,0200,",
    "0240:0220,0336,0331,0333,0336,0321,0335,0342,0335,0335,0342,0335,0330,0330,0332,0332,0337,0337,",
    "01240:0333,0200,0336,0330,0332,0210,0240,0211,0333,0331,0337,",
    "0241:0220,0336,0321,0343,0332,0350,0335,0336,0342,0334,0334,0342,0335,0304,0337,0333,0337,",
    "01241:0333,0200,0336,0332,0330,0210,0241,0211,0333,0331,0337,",
    "0242:0220,0321,0336,0343,0333,0336,0350,0335,0342,0334,0334,0342,0335,0337,0304,0332,0337,",
    "01242:0333,0200,0336,0330,0332,0210,0242,0211,0333,0331,0337,",
    "0243:0220,0336,0331,0332,0336,0321,0343,0332,0350,0334,0336,0342,0335,0335,0342,0337,0334,0334,0335,0304,0332,0330,0330,0337,0337,0333,",
    "01243:0333,0200,0336,0330,0332,0210,0243,0211,0333,0331,0337,",
    "0244:0220,0336,0331,0333,0336,0321,0343,0333,0350,0336,0335,0342,0334,0334,0342,0335,0337,0304,0333,0330,0330,0337,0337,0332,",
    "01244:0333,0200,0336,0330,0332,0210,0244,0211,0333,0331,0337,",
    "0245:0210,0332,0332,0362,0335,0203,0203,0203,0203,0334,0203,0363,0332,0332,0331,0211,",
    "01245:0333,0200,0336,0330,0332,0336,0245,0337,0333,0331,0337,",
    "0246:0210,0332,0332,0335,0306,0336,0330,0335,0335,0335,0321,0362,0203,0335,0335,0203,0364,0331,0350,0335,0337,0366,0333,0333,0333,0333,0334,0334,0334,0334,0367,0335,0336,0342,0334,0334,0342,0330,0330,0330,0330,0335,0335,0335,0304,0337,0211,",
    "01246:0333,0200,0336,0330,0332,0336,0246,",
    "0247:0330,0332,0336,0332,0336,0221,0333,0333,0333,0222,0333,0333,0333,0223,0333,0333,0333,0225,0333,0331,0331,0331,0332,0332,0332,0332,0332,0332,0332,0332,0332,0332,0332,0332,0333,0333,0226,0331,0331,0331,0333,0333,0333,0333,0333,0333,0333,0333,0333,0333,0333,0333,0333,0330,0333,0330,0330,0333,0330,0331,0332,0332,0332,0332,0332,0332,0332,0332,0332,0332,0332,0332,0227,0333,0333,0333,0230,0333,0331,0331,0331,0331,0332,0332,0332,0330,0332,0332,0332,0332,0332,0332,0333,0333,0231,0333,0333,0333,0232,0331,0333,0330,0333,0333,0233,0333,0333,0333,0234,0330,0330,0332,0330,0332,0332,0337,0337,",
    "01247:0333,0200,0336,0330,0332,0220,0336,0247,0337,0331,0333,0337,"
  ]
}</json>-->	<path d = "M7 169 L7 22 L154 22 L300 22 L446 22 L593 22 L593 169 L446 169 L300 169 L154 169 L7 169 Z" stroke = "#000000" stroke-width = "1" fill = "none" />    <line x1="154" y1="169" x2="154" y2="22" style="stroke:#ff0000;stroke-width:1" />
    <line x1="300" y1="169" x2="300" y2="22" style="stroke:#ff0000;stroke-width:1" />
    <line x1="446" y1="169" x2="446" y2="22" style="stroke:#ff0000;stroke-width:1" />
    <line x1="593" y1="95" x2="446" y2="95" style="stroke:#ff0000;stroke-width:1" />
    <line x1="446" y1="95" x2="300" y2="95" style="stroke:#ff0000;stroke-width:1" />
    <line x1="300" y1="95" x2="154" y2="95" style="stroke:#ff0000;stroke-width:1" />
    <line x1="154" y1="95" x2="7" y2="95" style="stroke:#ff0000;stroke-width:1" />
	<path d = "M25 150 L44 150 L62 150 L62 169 L80 169 L99 169 L99 150 L117 150 L135 150 L154 150 L154 132 L154 114 L135 114 L135 95 L135 77 L154 77 L154 59 L154 40 L154 22 L135 22 L117 22 L99 22 L80 22 L62 22 L44 22 L25 22 L25 40 L25 59 L25 77 L7 77 L7 95 L7 114 L25 114 L25 132 L25 150 Z" stroke = "#ff0000" stroke-width = "1" fill = "none" />	<path d = "M446 169 L446 150 L446 132 L446 114 L465 114 L465 95 L465 77 L446 77 L446 59 L446 40 L446 22 L465 22 L483 22 L501 22 L501 40 L520 40 L538 40 L538 22 L556 22 L575 22 L593 22 L593 40 L593 59 L593 77 L575 77 L575 95 L575 114 L593 114 L593 132 L593 150 L593 169 L575 169 L556 169 L538 169 L538 150 L520 150 L501 150 L501 169 L483 169 L465 169 L446 169 Z" stroke = "#ff0000" stroke-width = "1" fill = "none" />	<path d = "M227 169 L227 95 L300 95 L373 95 L373 169 " stroke = "#ff0000" stroke-width = "1" fill = "none" />    <line x1="355" y1="169" x2="373" y2="150" style="stroke:#ff0000;stroke-width:1" />
	<path d = "M337 169 L355 150 L373 132 " stroke = "#ff0000" stroke-width = "1" fill = "none" />	<path d = "M373 114 L355 132 L337 150 L318 169 " stroke = "#ff0000" stroke-width = "1" fill = "none" />	<path d = "M300 169 L318 150 L337 132 L355 114 L373 95 " stroke = "#ff0000" stroke-width = "1" fill = "none" />	<path d = "M355 95 L337 114 L318 132 L300 150 L282 169 " stroke = "#ff0000" stroke-width = "1" fill = "none" />	<path d = "M263 169 L282 150 L300 132 L318 114 L337 95 " stroke = "#ff0000" stroke-width = "1" fill = "none" />	<path d = "M318 95 L300 114 L282 132 L263 150 L245 169 " stroke = "#ff0000" stroke-width = "1" fill = "none" />	<path d = "M227 169 L245 150 L263 132 L282 114 L300 95 " stroke = "#ff0000" stroke-width = "1" fill = "none" />	<path d = "M282 95 L263 114 L245 132 L227 150 " stroke = "#ff0000" stroke-width = "1" fill = "none" />	<path d = "M227 132 L245 114 L263 95 " stroke = "#ff0000" stroke-width = "1" fill = "none" />    <line x1="245" y1="95" x2="227" y2="114" style="stroke:#ff0000;stroke-width:1" />
<circle cx="154" cy = "95" r = "9.150625000000005" stroke = "#ff0000" stroke-width = "1" fill = "none" />
<circle cx="80" cy = "95" r = "9.150625000000005" stroke = "#ff0000" stroke-width = "1" fill = "none" />
<circle cx="227" cy = "95" r = "9.150625000000005" stroke = "#ff0000" stroke-width = "1" fill = "none" />
<circle cx="373" cy = "95" r = "9.150625000000005" stroke = "#ff0000" stroke-width = "1" fill = "none" />
<circle cx="520" cy = "95" r = "9.150625000000005" stroke = "#ff0000" stroke-width = "1" fill = "none" />
<circle cx="446" cy = "95" r = "9.150625000000005" stroke = "#ff0000" stroke-width = "1" fill = "none" />
<circle cx="300" cy = "95" r = "9.150625000000005" stroke = "#ff0000" stroke-width = "1" fill = "none" />
    <text x="158" y = "45" fill = "#000000" font-size = "18.30125000000001px" font-family = "Arial">TRASHOTRON-HYPERCUBE</text>
    <text x="158" y = "73" fill = "#000000" font-size = "18.30125000000001px" font-family = "Arial">GITHUB.COM/LAFELABS/TRASHOTRON</text>
</svg>